SplineFontDB: 3.0
FontName: MezenetsUnicode
FullName: Mezenets Unicode
FamilyName: Mezenets Unicode
Weight: Medium
Copyright: Copyright 2013-2018 Aleksandr Andreev and Nikita Simmons.\n\nThis font is part of the Ponomar Project Slavonic Computing Initiative. See http://sci.ponomar.net/ for more information.\n\nOriginal glyph design by Nikita Simmons. Reencoding for Unicode, OpenType and Graphite feature creation and some tweaking by Aleksandr Andreev.
UComments: "2014-4-19: Created.+AAoA-See README for more information." 
Version: 0.875
ItalicAngle: 0
UnderlinePosition: -80
UnderlineWidth: 50
Ascent: 800
Descent: 200
woffMajor: 1
woffMinor: 1
LayerCount: 3
Layer: 0 0 "Back"  1
Layer: 1 0 "Fore"  0
Layer: 2 1 "TTF"  0
XUID: [1021 1004 1038049950 1172439]
FSType: 8
OS2Version: 0
OS2_WeightWidthSlopeOnly: 0
OS2_UseTypoMetrics: 0
CreationTime: 1397905996
ModificationTime: 1535202203
PfmFamily: 17
TTFWeight: 500
TTFWidth: 5
LineGap: 50
VLineGap: 0
OS2TypoAscent: 0
OS2TypoAOffset: 1
OS2TypoDescent: 0
OS2TypoDOffset: 1
OS2TypoLinegap: 50
OS2WinAscent: 0
OS2WinAOffset: 1
OS2WinDescent: 0
OS2WinDOffset: 1
HheadAscent: 0
HheadAOffset: 1
HheadDescent: 0
HheadDOffset: 1
OS2Vendor: 'PfEd'
Lookup: 4 0 0 "'ccmp' Precomposed Neumes"  {"'ccmp' Precomposed Neumes-1"  } ['ccmp' ('DFLT' <'dflt' > 'cyrl' <'dflt' > 'latn' <'dflt' > ) ]
Lookup: 4 8 0 "'ccmp' Priznak Composition"  {"'ccmp' Priznak Composition-1"  } ['ccmp' ('DFLT' <'dflt' > 'latn' <'dflt' > ) ]
Lookup: 4 0 0 "'ccmp' Precomposed Neumes Round 2"  {"'ccmp' Precomposed Neumes 2-1"  } ['ccmp' ('DFLT' <'dflt' > 'cyrl' <'dflt' > 'latn' <'dflt' > ) ]
Lookup: 1 8 0 "'ss01' Style Set 1 Demestvenny Variants"  {"'ss01' Style Set 1 Demestvenny Variants-1"  } ['ss01' ('DFLT' <'dflt' > 'cyrl' <'dflt' > 'latn' <'dflt' > ) ]
Lookup: 4 0 0 "'ccmp' Second Round of Demestvenny Ligs"  {"'ccmp' Second Round of Demestvenny Ligs-1"  } ['ccmp' ('DFLT' <'dflt' > 'cyrl' <'dflt' > 'latn' <'dflt' > ) ]

StartChar: uni0002
Encoding: 2 2 0
Width: 500
Flags: W
HStem: 0 19<66 435> 748 22<66 435>
VStem: 37 22<34 733> 442 22<34 733>
DStem2: 66 748 59 733 0.465951 -0.884811<10.0105 395.419 421.078 806.952> 59 34 66 19 0.465951 0.884811<0 385.408 411.068 796.942>
LayerCount: 3
Fore
SplineSet
37 770 m 5
 464 770 l 5
 464 0 l 5
 37 0 l 5
 37 770 l 5
66 748 m 5
 250 398 l 5
 435 748 l 5
 66 748 l 5
258 383 m 5
 442 34 l 5
 442 733 l 5
 258 383 l 5
435 19 m 5
 250 369 l 5
 66 19 l 5
 435 19 l 5
59 733 m 5
 59 34 l 5
 243 383 l 5
 59 733 l 5
EndSplineSet
Validated: 1
Layer: 2
SplineSet
37 770 m 5,0,-1
 464 770 l 1,1,-1
 464 0 l 1,2,-1
 37 0 l 1,3,-1
 37 770 l 5,0,-1
66 748 m 5,4,-1
 250 398 l 1,5,-1
 435 748 l 1,6,-1
 66 748 l 5,4,-1
258 383 m 5,7,-1
 442 34 l 1,8,-1
 442 733 l 1,9,-1
 258 383 l 5,7,-1
435 19 m 5,10,-1
 250 369 l 1,11,-1
 66 19 l 1,12,-1
 435 19 l 5,10,-1
59 733 m 5,13,-1
 59 34 l 1,14,-1
 243 383 l 1,15,-1
 59 733 l 5,13,-1
EndSplineSet
Validated: 1
EndChar

StartChar: uni0001
Encoding: 1 1 2
Width: 500
Flags: W
HStem: 0 19<66 435> 748 22<66 435>
VStem: 37 22<34 733> 442 22<34 733>
DStem2: 66 748 59 733 0.465951 -0.884811<10.0105 395.419 421.078 806.952> 59 34 66 19 0.465951 0.884811<0 385.408 411.068 796.942>
LayerCount: 3
Fore
SplineSet
37 770 m 1
 464 770 l 1
 464 0 l 1
 37 0 l 1
 37 770 l 1
66 748 m 1
 250 398 l 1
 435 748 l 1
 66 748 l 1
258 383 m 1
 442 34 l 1
 442 733 l 1
 258 383 l 1
435 19 m 1
 250 369 l 1
 66 19 l 1
 435 19 l 1
59 733 m 1
 59 34 l 1
 243 383 l 1
 59 733 l 1
EndSplineSet
Validated: 1
Layer: 2
SplineSet
37 770 m 1,0,-1
 464 770 l 1,1,-1
 464 0 l 1,2,-1
 37 0 l 1,3,-1
 37 770 l 1,0,-1
66 748 m 1,4,-1
 250 398 l 1,5,-1
 435 748 l 1,6,-1
 66 748 l 1,4,-1
258 383 m 1,7,-1
 442 34 l 1,8,-1
 442 733 l 1,9,-1
 258 383 l 1,7,-1
435 19 m 1,10,-1
 250 369 l 1,11,-1
 66 19 l 1,12,-1
 435 19 l 1,10,-1
59 733 m 1,13,-1
 59 34 l 1,14,-1
 243 383 l 1,15,-1
 59 733 l 1,13,-1
EndSplineSet
Validated: 1
EndChar

StartChar: uni0003
Encoding: 3 3 3
Width: 500
Flags: W
HStem: 0 19<66 435> 748 22<66 435>
VStem: 37 22<34 733> 442 22<34 733>
DStem2: 66 748 59 733 0.465951 -0.884811<10.0105 395.419 421.078 806.952> 59 34 66 19 0.465951 0.884811<0 385.408 411.068 796.942>
LayerCount: 3
Fore
SplineSet
37 770 m 5
 464 770 l 5
 464 0 l 5
 37 0 l 5
 37 770 l 5
66 748 m 5
 250 398 l 5
 435 748 l 5
 66 748 l 5
258 383 m 5
 442 34 l 5
 442 733 l 5
 258 383 l 5
435 19 m 5
 250 369 l 5
 66 19 l 5
 435 19 l 5
59 733 m 5
 59 34 l 5
 243 383 l 5
 59 733 l 5
EndSplineSet
Validated: 1
Layer: 2
SplineSet
37 770 m 5,0,-1
 464 770 l 1,1,-1
 464 0 l 1,2,-1
 37 0 l 1,3,-1
 37 770 l 5,0,-1
66 748 m 5,4,-1
 250 398 l 1,5,-1
 435 748 l 1,6,-1
 66 748 l 5,4,-1
258 383 m 5,7,-1
 442 34 l 1,8,-1
 442 733 l 1,9,-1
 258 383 l 5,7,-1
435 19 m 5,10,-1
 250 369 l 1,11,-1
 66 19 l 1,12,-1
 435 19 l 5,10,-1
59 733 m 5,13,-1
 59 34 l 1,14,-1
 243 383 l 1,15,-1
 59 733 l 5,13,-1
EndSplineSet
Validated: 1
EndChar

StartChar: uni0004
Encoding: 4 4 4
Width: 500
Flags: W
HStem: 0 19<66 435> 748 22<66 435>
VStem: 37 22<34 733> 442 22<34 733>
DStem2: 66 748 59 733 0.465951 -0.884811<10.0105 395.419 421.078 806.952> 59 34 66 19 0.465951 0.884811<0 385.408 411.068 796.942>
LayerCount: 3
Fore
SplineSet
37 770 m 5
 464 770 l 5
 464 0 l 5
 37 0 l 5
 37 770 l 5
66 748 m 5
 250 398 l 5
 435 748 l 5
 66 748 l 5
258 383 m 5
 442 34 l 5
 442 733 l 5
 258 383 l 5
435 19 m 5
 250 369 l 5
 66 19 l 5
 435 19 l 5
59 733 m 5
 59 34 l 5
 243 383 l 5
 59 733 l 5
EndSplineSet
Validated: 1
Layer: 2
SplineSet
37 770 m 5,0,-1
 464 770 l 1,1,-1
 464 0 l 1,2,-1
 37 0 l 1,3,-1
 37 770 l 5,0,-1
66 748 m 5,4,-1
 250 398 l 1,5,-1
 435 748 l 1,6,-1
 66 748 l 5,4,-1
258 383 m 5,7,-1
 442 34 l 1,8,-1
 442 733 l 1,9,-1
 258 383 l 5,7,-1
435 19 m 5,10,-1
 250 369 l 1,11,-1
 66 19 l 1,12,-1
 435 19 l 5,10,-1
59 733 m 5,13,-1
 59 34 l 1,14,-1
 243 383 l 1,15,-1
 59 733 l 5,13,-1
EndSplineSet
Validated: 1
EndChar

StartChar: uni0005
Encoding: 5 5 5
Width: 500
Flags: W
HStem: 0 19<66 435> 748 22<66 435>
VStem: 37 22<34 733> 442 22<34 733>
DStem2: 66 748 59 733 0.465951 -0.884811<10.0105 395.419 421.078 806.952> 59 34 66 19 0.465951 0.884811<0 385.408 411.068 796.942>
LayerCount: 3
Fore
SplineSet
37 770 m 5
 464 770 l 5
 464 0 l 5
 37 0 l 5
 37 770 l 5
66 748 m 5
 250 398 l 5
 435 748 l 5
 66 748 l 5
258 383 m 5
 442 34 l 5
 442 733 l 5
 258 383 l 5
435 19 m 5
 250 369 l 5
 66 19 l 5
 435 19 l 5
59 733 m 5
 59 34 l 5
 243 383 l 5
 59 733 l 5
EndSplineSet
Validated: 1
Layer: 2
SplineSet
37 770 m 5,0,-1
 464 770 l 1,1,-1
 464 0 l 1,2,-1
 37 0 l 1,3,-1
 37 770 l 5,0,-1
66 748 m 5,4,-1
 250 398 l 1,5,-1
 435 748 l 1,6,-1
 66 748 l 5,4,-1
258 383 m 5,7,-1
 442 34 l 1,8,-1
 442 733 l 1,9,-1
 258 383 l 5,7,-1
435 19 m 5,10,-1
 250 369 l 1,11,-1
 66 19 l 1,12,-1
 435 19 l 5,10,-1
59 733 m 5,13,-1
 59 34 l 1,14,-1
 243 383 l 1,15,-1
 59 733 l 5,13,-1
EndSplineSet
Validated: 1
EndChar

StartChar: uni0006
Encoding: 6 6 6
Width: 500
Flags: W
HStem: 0 19<66 435> 748 22<66 435>
VStem: 37 22<34 733> 442 22<34 733>
DStem2: 66 748 59 733 0.465951 -0.884811<10.0105 395.419 421.078 806.952> 59 34 66 19 0.465951 0.884811<0 385.408 411.068 796.942>
LayerCount: 3
Fore
SplineSet
37 770 m 5
 464 770 l 5
 464 0 l 5
 37 0 l 5
 37 770 l 5
66 748 m 5
 250 398 l 5
 435 748 l 5
 66 748 l 5
258 383 m 5
 442 34 l 5
 442 733 l 5
 258 383 l 5
435 19 m 5
 250 369 l 5
 66 19 l 5
 435 19 l 5
59 733 m 5
 59 34 l 5
 243 383 l 5
 59 733 l 5
EndSplineSet
Validated: 1
Layer: 2
SplineSet
37 770 m 5,0,-1
 464 770 l 1,1,-1
 464 0 l 1,2,-1
 37 0 l 1,3,-1
 37 770 l 5,0,-1
66 748 m 5,4,-1
 250 398 l 1,5,-1
 435 748 l 1,6,-1
 66 748 l 5,4,-1
258 383 m 5,7,-1
 442 34 l 1,8,-1
 442 733 l 1,9,-1
 258 383 l 5,7,-1
435 19 m 5,10,-1
 250 369 l 1,11,-1
 66 19 l 1,12,-1
 435 19 l 5,10,-1
59 733 m 5,13,-1
 59 34 l 1,14,-1
 243 383 l 1,15,-1
 59 733 l 5,13,-1
EndSplineSet
Validated: 1
EndChar

StartChar: uni0007
Encoding: 7 7 7
Width: 500
Flags: W
HStem: 0 19<66 435> 748 22<66 435>
VStem: 37 22<34 733> 442 22<34 733>
DStem2: 66 748 59 733 0.465951 -0.884811<10.0105 395.419 421.078 806.952> 59 34 66 19 0.465951 0.884811<0 385.408 411.068 796.942>
LayerCount: 3
Fore
SplineSet
37 770 m 5
 464 770 l 5
 464 0 l 5
 37 0 l 5
 37 770 l 5
66 748 m 5
 250 398 l 5
 435 748 l 5
 66 748 l 5
258 383 m 5
 442 34 l 5
 442 733 l 5
 258 383 l 5
435 19 m 5
 250 369 l 5
 66 19 l 5
 435 19 l 5
59 733 m 5
 59 34 l 5
 243 383 l 5
 59 733 l 5
EndSplineSet
Validated: 1
Layer: 2
SplineSet
37 770 m 5,0,-1
 464 770 l 1,1,-1
 464 0 l 1,2,-1
 37 0 l 1,3,-1
 37 770 l 5,0,-1
66 748 m 5,4,-1
 250 398 l 1,5,-1
 435 748 l 1,6,-1
 66 748 l 5,4,-1
258 383 m 5,7,-1
 442 34 l 1,8,-1
 442 733 l 1,9,-1
 258 383 l 5,7,-1
435 19 m 5,10,-1
 250 369 l 1,11,-1
 66 19 l 1,12,-1
 435 19 l 5,10,-1
59 733 m 5,13,-1
 59 34 l 1,14,-1
 243 383 l 1,15,-1
 59 733 l 5,13,-1
EndSplineSet
Validated: 1
EndChar

StartChar: uni000B
Encoding: 11 11 11
Width: 500
Flags: W
HStem: 0 19<66 435> 748 22<66 435>
VStem: 37 22<34 733> 442 22<34 733>
DStem2: 66 748 59 733 0.465951 -0.884811<10.0105 395.419 421.078 806.952> 59 34 66 19 0.465951 0.884811<0 385.408 411.068 796.942>
LayerCount: 3
Fore
SplineSet
37 770 m 5
 464 770 l 5
 464 0 l 5
 37 0 l 5
 37 770 l 5
66 748 m 5
 250 398 l 5
 435 748 l 5
 66 748 l 5
258 383 m 5
 442 34 l 5
 442 733 l 5
 258 383 l 5
435 19 m 5
 250 369 l 5
 66 19 l 5
 435 19 l 5
59 733 m 5
 59 34 l 5
 243 383 l 5
 59 733 l 5
EndSplineSet
Validated: 1
Layer: 2
SplineSet
37 770 m 5,0,-1
 464 770 l 1,1,-1
 464 0 l 1,2,-1
 37 0 l 1,3,-1
 37 770 l 5,0,-1
66 748 m 5,4,-1
 250 398 l 1,5,-1
 435 748 l 1,6,-1
 66 748 l 5,4,-1
258 383 m 5,7,-1
 442 34 l 1,8,-1
 442 733 l 1,9,-1
 258 383 l 5,7,-1
435 19 m 5,10,-1
 250 369 l 1,11,-1
 66 19 l 1,12,-1
 435 19 l 5,10,-1
59 733 m 5,13,-1
 59 34 l 1,14,-1
 243 383 l 1,15,-1
 59 733 l 5,13,-1
EndSplineSet
Validated: 1
EndChar

StartChar: uni000C
Encoding: 12 12 12
Width: 500
Flags: W
HStem: 0 19<66 435> 748 22<66 435>
VStem: 37 22<34 733> 442 22<34 733>
DStem2: 66 748 59 733 0.465951 -0.884811<10.0105 395.419 421.078 806.952> 59 34 66 19 0.465951 0.884811<0 385.408 411.068 796.942>
LayerCount: 3
Fore
SplineSet
37 770 m 5
 464 770 l 5
 464 0 l 5
 37 0 l 5
 37 770 l 5
66 748 m 5
 250 398 l 5
 435 748 l 5
 66 748 l 5
258 383 m 5
 442 34 l 5
 442 733 l 5
 258 383 l 5
435 19 m 5
 250 369 l 5
 66 19 l 5
 435 19 l 5
59 733 m 5
 59 34 l 5
 243 383 l 5
 59 733 l 5
EndSplineSet
Validated: 1
Layer: 2
SplineSet
37 770 m 5,0,-1
 464 770 l 1,1,-1
 464 0 l 1,2,-1
 37 0 l 1,3,-1
 37 770 l 5,0,-1
66 748 m 5,4,-1
 250 398 l 1,5,-1
 435 748 l 1,6,-1
 66 748 l 5,4,-1
258 383 m 5,7,-1
 442 34 l 1,8,-1
 442 733 l 1,9,-1
 258 383 l 5,7,-1
435 19 m 5,10,-1
 250 369 l 1,11,-1
 66 19 l 1,12,-1
 435 19 l 5,10,-1
59 733 m 5,13,-1
 59 34 l 1,14,-1
 243 383 l 1,15,-1
 59 733 l 5,13,-1
EndSplineSet
Validated: 1
EndChar

StartChar: uni000E
Encoding: 14 14 14
Width: 500
Flags: W
HStem: 0 19<66 435> 748 22<66 435>
VStem: 37 22<34 733> 442 22<34 733>
DStem2: 66 748 59 733 0.465951 -0.884811<10.0105 395.419 421.078 806.952> 59 34 66 19 0.465951 0.884811<0 385.408 411.068 796.942>
LayerCount: 3
Fore
SplineSet
37 770 m 5
 464 770 l 5
 464 0 l 5
 37 0 l 5
 37 770 l 5
66 748 m 5
 250 398 l 5
 435 748 l 5
 66 748 l 5
258 383 m 5
 442 34 l 5
 442 733 l 5
 258 383 l 5
435 19 m 5
 250 369 l 5
 66 19 l 5
 435 19 l 5
59 733 m 5
 59 34 l 5
 243 383 l 5
 59 733 l 5
EndSplineSet
Validated: 1
Layer: 2
SplineSet
37 770 m 5,0,-1
 464 770 l 1,1,-1
 464 0 l 1,2,-1
 37 0 l 1,3,-1
 37 770 l 5,0,-1
66 748 m 5,4,-1
 250 398 l 1,5,-1
 435 748 l 1,6,-1
 66 748 l 5,4,-1
258 383 m 5,7,-1
 442 34 l 1,8,-1
 442 733 l 1,9,-1
 258 383 l 5,7,-1
435 19 m 5,10,-1
 250 369 l 1,11,-1
 66 19 l 1,12,-1
 435 19 l 5,10,-1
59 733 m 5,13,-1
 59 34 l 1,14,-1
 243 383 l 1,15,-1
 59 733 l 5,13,-1
EndSplineSet
Validated: 1
EndChar

StartChar: uni000F
Encoding: 15 15 15
Width: 500
Flags: W
HStem: 0 19<66 435> 748 22<66 435>
VStem: 37 22<34 733> 442 22<34 733>
DStem2: 66 748 59 733 0.465951 -0.884811<10.0105 395.419 421.078 806.952> 59 34 66 19 0.465951 0.884811<0 385.408 411.068 796.942>
LayerCount: 3
Fore
SplineSet
37 770 m 5
 464 770 l 5
 464 0 l 5
 37 0 l 5
 37 770 l 5
66 748 m 5
 250 398 l 5
 435 748 l 5
 66 748 l 5
258 383 m 5
 442 34 l 5
 442 733 l 5
 258 383 l 5
435 19 m 5
 250 369 l 5
 66 19 l 5
 435 19 l 5
59 733 m 5
 59 34 l 5
 243 383 l 5
 59 733 l 5
EndSplineSet
Validated: 1
Layer: 2
SplineSet
37 770 m 5,0,-1
 464 770 l 1,1,-1
 464 0 l 1,2,-1
 37 0 l 1,3,-1
 37 770 l 5,0,-1
66 748 m 5,4,-1
 250 398 l 1,5,-1
 435 748 l 1,6,-1
 66 748 l 5,4,-1
258 383 m 5,7,-1
 442 34 l 1,8,-1
 442 733 l 1,9,-1
 258 383 l 5,7,-1
435 19 m 5,10,-1
 250 369 l 1,11,-1
 66 19 l 1,12,-1
 435 19 l 5,10,-1
59 733 m 5,13,-1
 59 34 l 1,14,-1
 243 383 l 1,15,-1
 59 733 l 5,13,-1
EndSplineSet
Validated: 1
EndChar

StartChar: uni0010
Encoding: 16 16 16
Width: 500
Flags: W
HStem: 0 19<66 435> 748 22<66 435>
VStem: 37 22<34 733> 442 22<34 733>
DStem2: 66 748 59 733 0.465951 -0.884811<10.0105 395.419 421.078 806.952> 59 34 66 19 0.465951 0.884811<0 385.408 411.068 796.942>
LayerCount: 3
Fore
SplineSet
37 770 m 5
 464 770 l 5
 464 0 l 5
 37 0 l 5
 37 770 l 5
66 748 m 5
 250 398 l 5
 435 748 l 5
 66 748 l 5
258 383 m 5
 442 34 l 5
 442 733 l 5
 258 383 l 5
435 19 m 5
 250 369 l 5
 66 19 l 5
 435 19 l 5
59 733 m 5
 59 34 l 5
 243 383 l 5
 59 733 l 5
EndSplineSet
Validated: 1
Layer: 2
SplineSet
37 770 m 5,0,-1
 464 770 l 1,1,-1
 464 0 l 1,2,-1
 37 0 l 1,3,-1
 37 770 l 5,0,-1
66 748 m 5,4,-1
 250 398 l 1,5,-1
 435 748 l 1,6,-1
 66 748 l 5,4,-1
258 383 m 5,7,-1
 442 34 l 1,8,-1
 442 733 l 1,9,-1
 258 383 l 5,7,-1
435 19 m 5,10,-1
 250 369 l 1,11,-1
 66 19 l 1,12,-1
 435 19 l 5,10,-1
59 733 m 5,13,-1
 59 34 l 1,14,-1
 243 383 l 1,15,-1
 59 733 l 5,13,-1
EndSplineSet
Validated: 1
EndChar

StartChar: uni0011
Encoding: 17 17 17
Width: 500
Flags: W
HStem: 0 19<66 435> 748 22<66 435>
VStem: 37 22<34 733> 442 22<34 733>
DStem2: 66 748 59 733 0.465951 -0.884811<10.0105 395.419 421.078 806.952> 59 34 66 19 0.465951 0.884811<0 385.408 411.068 796.942>
LayerCount: 3
Fore
SplineSet
37 770 m 5
 464 770 l 5
 464 0 l 5
 37 0 l 5
 37 770 l 5
66 748 m 5
 250 398 l 5
 435 748 l 5
 66 748 l 5
258 383 m 5
 442 34 l 5
 442 733 l 5
 258 383 l 5
435 19 m 5
 250 369 l 5
 66 19 l 5
 435 19 l 5
59 733 m 5
 59 34 l 5
 243 383 l 5
 59 733 l 5
EndSplineSet
Validated: 1
Layer: 2
SplineSet
37 770 m 5,0,-1
 464 770 l 1,1,-1
 464 0 l 1,2,-1
 37 0 l 1,3,-1
 37 770 l 5,0,-1
66 748 m 5,4,-1
 250 398 l 1,5,-1
 435 748 l 1,6,-1
 66 748 l 5,4,-1
258 383 m 5,7,-1
 442 34 l 1,8,-1
 442 733 l 1,9,-1
 258 383 l 5,7,-1
435 19 m 5,10,-1
 250 369 l 1,11,-1
 66 19 l 1,12,-1
 435 19 l 5,10,-1
59 733 m 5,13,-1
 59 34 l 1,14,-1
 243 383 l 1,15,-1
 59 733 l 5,13,-1
EndSplineSet
Validated: 1
EndChar

StartChar: uni0012
Encoding: 18 18 18
Width: 500
Flags: W
HStem: 0 19<66 435> 748 22<66 435>
VStem: 37 22<34 733> 442 22<34 733>
DStem2: 66 748 59 733 0.465951 -0.884811<10.0105 395.419 421.078 806.952> 59 34 66 19 0.465951 0.884811<0 385.408 411.068 796.942>
LayerCount: 3
Fore
SplineSet
37 770 m 5
 464 770 l 5
 464 0 l 5
 37 0 l 5
 37 770 l 5
66 748 m 5
 250 398 l 5
 435 748 l 5
 66 748 l 5
258 383 m 5
 442 34 l 5
 442 733 l 5
 258 383 l 5
435 19 m 5
 250 369 l 5
 66 19 l 5
 435 19 l 5
59 733 m 5
 59 34 l 5
 243 383 l 5
 59 733 l 5
EndSplineSet
Validated: 1
Layer: 2
SplineSet
37 770 m 5,0,-1
 464 770 l 1,1,-1
 464 0 l 1,2,-1
 37 0 l 1,3,-1
 37 770 l 5,0,-1
66 748 m 5,4,-1
 250 398 l 1,5,-1
 435 748 l 1,6,-1
 66 748 l 5,4,-1
258 383 m 5,7,-1
 442 34 l 1,8,-1
 442 733 l 1,9,-1
 258 383 l 5,7,-1
435 19 m 5,10,-1
 250 369 l 1,11,-1
 66 19 l 1,12,-1
 435 19 l 5,10,-1
59 733 m 5,13,-1
 59 34 l 1,14,-1
 243 383 l 1,15,-1
 59 733 l 5,13,-1
EndSplineSet
Validated: 1
EndChar

StartChar: uni0013
Encoding: 19 19 19
Width: 500
Flags: W
HStem: 0 19<66 435> 748 22<66 435>
VStem: 37 22<34 733> 442 22<34 733>
DStem2: 66 748 59 733 0.465951 -0.884811<10.0105 395.419 421.078 806.952> 59 34 66 19 0.465951 0.884811<0 385.408 411.068 796.942>
LayerCount: 3
Fore
SplineSet
37 770 m 5
 464 770 l 5
 464 0 l 5
 37 0 l 5
 37 770 l 5
66 748 m 5
 250 398 l 5
 435 748 l 5
 66 748 l 5
258 383 m 5
 442 34 l 5
 442 733 l 5
 258 383 l 5
435 19 m 5
 250 369 l 5
 66 19 l 5
 435 19 l 5
59 733 m 5
 59 34 l 5
 243 383 l 5
 59 733 l 5
EndSplineSet
Validated: 1
Layer: 2
SplineSet
37 770 m 5,0,-1
 464 770 l 1,1,-1
 464 0 l 1,2,-1
 37 0 l 1,3,-1
 37 770 l 5,0,-1
66 748 m 5,4,-1
 250 398 l 1,5,-1
 435 748 l 1,6,-1
 66 748 l 5,4,-1
258 383 m 5,7,-1
 442 34 l 1,8,-1
 442 733 l 1,9,-1
 258 383 l 5,7,-1
435 19 m 5,10,-1
 250 369 l 1,11,-1
 66 19 l 1,12,-1
 435 19 l 5,10,-1
59 733 m 5,13,-1
 59 34 l 1,14,-1
 243 383 l 1,15,-1
 59 733 l 5,13,-1
EndSplineSet
Validated: 1
EndChar

StartChar: uni0014
Encoding: 20 20 20
Width: 500
Flags: W
HStem: 0 19<66 435> 748 22<66 435>
VStem: 37 22<34 733> 442 22<34 733>
DStem2: 66 748 59 733 0.465951 -0.884811<10.0105 395.419 421.078 806.952> 59 34 66 19 0.465951 0.884811<0 385.408 411.068 796.942>
LayerCount: 3
Fore
SplineSet
37 770 m 5
 464 770 l 5
 464 0 l 5
 37 0 l 5
 37 770 l 5
66 748 m 5
 250 398 l 5
 435 748 l 5
 66 748 l 5
258 383 m 5
 442 34 l 5
 442 733 l 5
 258 383 l 5
435 19 m 5
 250 369 l 5
 66 19 l 5
 435 19 l 5
59 733 m 5
 59 34 l 5
 243 383 l 5
 59 733 l 5
EndSplineSet
Validated: 1
Layer: 2
SplineSet
37 770 m 5,0,-1
 464 770 l 1,1,-1
 464 0 l 1,2,-1
 37 0 l 1,3,-1
 37 770 l 5,0,-1
66 748 m 5,4,-1
 250 398 l 1,5,-1
 435 748 l 1,6,-1
 66 748 l 5,4,-1
258 383 m 5,7,-1
 442 34 l 1,8,-1
 442 733 l 1,9,-1
 258 383 l 5,7,-1
435 19 m 5,10,-1
 250 369 l 1,11,-1
 66 19 l 1,12,-1
 435 19 l 5,10,-1
59 733 m 5,13,-1
 59 34 l 1,14,-1
 243 383 l 1,15,-1
 59 733 l 5,13,-1
EndSplineSet
Validated: 1
EndChar

StartChar: uni0015
Encoding: 21 21 21
Width: 500
Flags: W
HStem: 0 19<66 435> 748 22<66 435>
VStem: 37 22<34 733> 442 22<34 733>
DStem2: 66 748 59 733 0.465951 -0.884811<10.0105 395.419 421.078 806.952> 59 34 66 19 0.465951 0.884811<0 385.408 411.068 796.942>
LayerCount: 3
Fore
SplineSet
37 770 m 5
 464 770 l 5
 464 0 l 5
 37 0 l 5
 37 770 l 5
66 748 m 5
 250 398 l 5
 435 748 l 5
 66 748 l 5
258 383 m 5
 442 34 l 5
 442 733 l 5
 258 383 l 5
435 19 m 5
 250 369 l 5
 66 19 l 5
 435 19 l 5
59 733 m 5
 59 34 l 5
 243 383 l 5
 59 733 l 5
EndSplineSet
Validated: 1
Layer: 2
SplineSet
37 770 m 5,0,-1
 464 770 l 1,1,-1
 464 0 l 1,2,-1
 37 0 l 1,3,-1
 37 770 l 5,0,-1
66 748 m 5,4,-1
 250 398 l 1,5,-1
 435 748 l 1,6,-1
 66 748 l 5,4,-1
258 383 m 5,7,-1
 442 34 l 1,8,-1
 442 733 l 1,9,-1
 258 383 l 5,7,-1
435 19 m 5,10,-1
 250 369 l 1,11,-1
 66 19 l 1,12,-1
 435 19 l 5,10,-1
59 733 m 5,13,-1
 59 34 l 1,14,-1
 243 383 l 1,15,-1
 59 733 l 5,13,-1
EndSplineSet
Validated: 1
EndChar

StartChar: uni0016
Encoding: 22 22 22
Width: 500
Flags: W
HStem: 0 19<66 435> 748 22<66 435>
VStem: 37 22<34 733> 442 22<34 733>
DStem2: 66 748 59 733 0.465951 -0.884811<10.0105 395.419 421.078 806.952> 59 34 66 19 0.465951 0.884811<0 385.408 411.068 796.942>
LayerCount: 3
Fore
SplineSet
37 770 m 5
 464 770 l 5
 464 0 l 5
 37 0 l 5
 37 770 l 5
66 748 m 5
 250 398 l 5
 435 748 l 5
 66 748 l 5
258 383 m 5
 442 34 l 5
 442 733 l 5
 258 383 l 5
435 19 m 5
 250 369 l 5
 66 19 l 5
 435 19 l 5
59 733 m 5
 59 34 l 5
 243 383 l 5
 59 733 l 5
EndSplineSet
Validated: 1
Layer: 2
SplineSet
37 770 m 5,0,-1
 464 770 l 1,1,-1
 464 0 l 1,2,-1
 37 0 l 1,3,-1
 37 770 l 5,0,-1
66 748 m 5,4,-1
 250 398 l 1,5,-1
 435 748 l 1,6,-1
 66 748 l 5,4,-1
258 383 m 5,7,-1
 442 34 l 1,8,-1
 442 733 l 1,9,-1
 258 383 l 5,7,-1
435 19 m 5,10,-1
 250 369 l 1,11,-1
 66 19 l 1,12,-1
 435 19 l 5,10,-1
59 733 m 5,13,-1
 59 34 l 1,14,-1
 243 383 l 1,15,-1
 59 733 l 5,13,-1
EndSplineSet
Validated: 1
EndChar

StartChar: uni0017
Encoding: 23 23 23
Width: 500
Flags: W
HStem: 0 19<66 435> 748 22<66 435>
VStem: 37 22<34 733> 442 22<34 733>
DStem2: 66 748 59 733 0.465951 -0.884811<10.0105 395.419 421.078 806.952> 59 34 66 19 0.465951 0.884811<0 385.408 411.068 796.942>
LayerCount: 3
Fore
SplineSet
37 770 m 5
 464 770 l 5
 464 0 l 5
 37 0 l 5
 37 770 l 5
66 748 m 5
 250 398 l 5
 435 748 l 5
 66 748 l 5
258 383 m 5
 442 34 l 5
 442 733 l 5
 258 383 l 5
435 19 m 5
 250 369 l 5
 66 19 l 5
 435 19 l 5
59 733 m 5
 59 34 l 5
 243 383 l 5
 59 733 l 5
EndSplineSet
Validated: 1
Layer: 2
SplineSet
37 770 m 5,0,-1
 464 770 l 1,1,-1
 464 0 l 1,2,-1
 37 0 l 1,3,-1
 37 770 l 5,0,-1
66 748 m 5,4,-1
 250 398 l 1,5,-1
 435 748 l 1,6,-1
 66 748 l 5,4,-1
258 383 m 5,7,-1
 442 34 l 1,8,-1
 442 733 l 1,9,-1
 258 383 l 5,7,-1
435 19 m 5,10,-1
 250 369 l 1,11,-1
 66 19 l 1,12,-1
 435 19 l 5,10,-1
59 733 m 5,13,-1
 59 34 l 1,14,-1
 243 383 l 1,15,-1
 59 733 l 5,13,-1
EndSplineSet
Validated: 1
EndChar

StartChar: uni0018
Encoding: 24 24 24
Width: 500
Flags: W
HStem: 0 19<66 435> 748 22<66 435>
VStem: 37 22<34 733> 442 22<34 733>
DStem2: 66 748 59 733 0.465951 -0.884811<10.0105 395.419 421.078 806.952> 59 34 66 19 0.465951 0.884811<0 385.408 411.068 796.942>
LayerCount: 3
Fore
SplineSet
37 770 m 5
 464 770 l 5
 464 0 l 5
 37 0 l 5
 37 770 l 5
66 748 m 5
 250 398 l 5
 435 748 l 5
 66 748 l 5
258 383 m 5
 442 34 l 5
 442 733 l 5
 258 383 l 5
435 19 m 5
 250 369 l 5
 66 19 l 5
 435 19 l 5
59 733 m 5
 59 34 l 5
 243 383 l 5
 59 733 l 5
EndSplineSet
Validated: 1
Layer: 2
SplineSet
37 770 m 5,0,-1
 464 770 l 1,1,-1
 464 0 l 1,2,-1
 37 0 l 1,3,-1
 37 770 l 5,0,-1
66 748 m 5,4,-1
 250 398 l 1,5,-1
 435 748 l 1,6,-1
 66 748 l 5,4,-1
258 383 m 5,7,-1
 442 34 l 1,8,-1
 442 733 l 1,9,-1
 258 383 l 5,7,-1
435 19 m 5,10,-1
 250 369 l 1,11,-1
 66 19 l 1,12,-1
 435 19 l 5,10,-1
59 733 m 5,13,-1
 59 34 l 1,14,-1
 243 383 l 1,15,-1
 59 733 l 5,13,-1
EndSplineSet
Validated: 1
EndChar

StartChar: uni0019
Encoding: 25 25 25
Width: 500
Flags: W
HStem: 0 19<66 435> 748 22<66 435>
VStem: 37 22<34 733> 442 22<34 733>
DStem2: 66 748 59 733 0.465951 -0.884811<10.0105 395.419 421.078 806.952> 59 34 66 19 0.465951 0.884811<0 385.408 411.068 796.942>
LayerCount: 3
Fore
SplineSet
37 770 m 5
 464 770 l 5
 464 0 l 5
 37 0 l 5
 37 770 l 5
66 748 m 5
 250 398 l 5
 435 748 l 5
 66 748 l 5
258 383 m 5
 442 34 l 5
 442 733 l 5
 258 383 l 5
435 19 m 5
 250 369 l 5
 66 19 l 5
 435 19 l 5
59 733 m 5
 59 34 l 5
 243 383 l 5
 59 733 l 5
EndSplineSet
Validated: 1
Layer: 2
SplineSet
37 770 m 5,0,-1
 464 770 l 1,1,-1
 464 0 l 1,2,-1
 37 0 l 1,3,-1
 37 770 l 5,0,-1
66 748 m 5,4,-1
 250 398 l 1,5,-1
 435 748 l 1,6,-1
 66 748 l 5,4,-1
258 383 m 5,7,-1
 442 34 l 1,8,-1
 442 733 l 1,9,-1
 258 383 l 5,7,-1
435 19 m 5,10,-1
 250 369 l 1,11,-1
 66 19 l 1,12,-1
 435 19 l 5,10,-1
59 733 m 5,13,-1
 59 34 l 1,14,-1
 243 383 l 1,15,-1
 59 733 l 5,13,-1
EndSplineSet
Validated: 1
EndChar

StartChar: uni001A
Encoding: 26 26 26
Width: 500
Flags: W
HStem: 0 19<66 435> 748 22<66 435>
VStem: 37 22<34 733> 442 22<34 733>
DStem2: 66 748 59 733 0.465951 -0.884811<10.0105 395.419 421.078 806.952> 59 34 66 19 0.465951 0.884811<0 385.408 411.068 796.942>
LayerCount: 3
Fore
SplineSet
37 770 m 5
 464 770 l 5
 464 0 l 5
 37 0 l 5
 37 770 l 5
66 748 m 5
 250 398 l 5
 435 748 l 5
 66 748 l 5
258 383 m 5
 442 34 l 5
 442 733 l 5
 258 383 l 5
435 19 m 5
 250 369 l 5
 66 19 l 5
 435 19 l 5
59 733 m 5
 59 34 l 5
 243 383 l 5
 59 733 l 5
EndSplineSet
Validated: 1
Layer: 2
SplineSet
37 770 m 5,0,-1
 464 770 l 1,1,-1
 464 0 l 1,2,-1
 37 0 l 1,3,-1
 37 770 l 5,0,-1
66 748 m 5,4,-1
 250 398 l 1,5,-1
 435 748 l 1,6,-1
 66 748 l 5,4,-1
258 383 m 5,7,-1
 442 34 l 1,8,-1
 442 733 l 1,9,-1
 258 383 l 5,7,-1
435 19 m 5,10,-1
 250 369 l 1,11,-1
 66 19 l 1,12,-1
 435 19 l 5,10,-1
59 733 m 5,13,-1
 59 34 l 1,14,-1
 243 383 l 1,15,-1
 59 733 l 5,13,-1
EndSplineSet
Validated: 1
EndChar

StartChar: uni001B
Encoding: 27 27 27
Width: 500
Flags: W
HStem: 0 19<66 435> 748 22<66 435>
VStem: 37 22<34 733> 442 22<34 733>
DStem2: 66 748 59 733 0.465951 -0.884811<10.0105 395.419 421.078 806.952> 59 34 66 19 0.465951 0.884811<0 385.408 411.068 796.942>
LayerCount: 3
Fore
SplineSet
37 770 m 5
 464 770 l 5
 464 0 l 5
 37 0 l 5
 37 770 l 5
66 748 m 5
 250 398 l 5
 435 748 l 5
 66 748 l 5
258 383 m 5
 442 34 l 5
 442 733 l 5
 258 383 l 5
435 19 m 5
 250 369 l 5
 66 19 l 5
 435 19 l 5
59 733 m 5
 59 34 l 5
 243 383 l 5
 59 733 l 5
EndSplineSet
Validated: 1
Layer: 2
SplineSet
37 770 m 5,0,-1
 464 770 l 1,1,-1
 464 0 l 1,2,-1
 37 0 l 1,3,-1
 37 770 l 5,0,-1
66 748 m 5,4,-1
 250 398 l 1,5,-1
 435 748 l 1,6,-1
 66 748 l 5,4,-1
258 383 m 5,7,-1
 442 34 l 1,8,-1
 442 733 l 1,9,-1
 258 383 l 5,7,-1
435 19 m 5,10,-1
 250 369 l 1,11,-1
 66 19 l 1,12,-1
 435 19 l 5,10,-1
59 733 m 5,13,-1
 59 34 l 1,14,-1
 243 383 l 1,15,-1
 59 733 l 5,13,-1
EndSplineSet
Validated: 1
EndChar

StartChar: uni001C
Encoding: 28 28 28
Width: 500
Flags: W
HStem: 0 19<66 435> 748 22<66 435>
VStem: 37 22<34 733> 442 22<34 733>
DStem2: 66 748 59 733 0.465951 -0.884811<10.0105 395.419 421.078 806.952> 59 34 66 19 0.465951 0.884811<0 385.408 411.068 796.942>
LayerCount: 3
Fore
SplineSet
37 770 m 5
 464 770 l 5
 464 0 l 5
 37 0 l 5
 37 770 l 5
66 748 m 5
 250 398 l 5
 435 748 l 5
 66 748 l 5
258 383 m 5
 442 34 l 5
 442 733 l 5
 258 383 l 5
435 19 m 5
 250 369 l 5
 66 19 l 5
 435 19 l 5
59 733 m 5
 59 34 l 5
 243 383 l 5
 59 733 l 5
EndSplineSet
Validated: 1
Layer: 2
SplineSet
37 770 m 5,0,-1
 464 770 l 1,1,-1
 464 0 l 1,2,-1
 37 0 l 1,3,-1
 37 770 l 5,0,-1
66 748 m 5,4,-1
 250 398 l 1,5,-1
 435 748 l 1,6,-1
 66 748 l 5,4,-1
258 383 m 5,7,-1
 442 34 l 1,8,-1
 442 733 l 1,9,-1
 258 383 l 5,7,-1
435 19 m 5,10,-1
 250 369 l 1,11,-1
 66 19 l 1,12,-1
 435 19 l 5,10,-1
59 733 m 5,13,-1
 59 34 l 1,14,-1
 243 383 l 1,15,-1
 59 733 l 5,13,-1
EndSplineSet
Validated: 1
EndChar

StartChar: uni001E
Encoding: 30 30 30
Width: 500
Flags: W
HStem: 0 19<66 435> 748 22<66 435>
VStem: 37 22<34 733> 442 22<34 733>
DStem2: 66 748 59 733 0.465951 -0.884811<10.0105 395.419 421.078 806.952> 59 34 66 19 0.465951 0.884811<0 385.408 411.068 796.942>
LayerCount: 3
Fore
SplineSet
37 770 m 5
 464 770 l 5
 464 0 l 5
 37 0 l 5
 37 770 l 5
66 748 m 5
 250 398 l 5
 435 748 l 5
 66 748 l 5
258 383 m 5
 442 34 l 5
 442 733 l 5
 258 383 l 5
435 19 m 5
 250 369 l 5
 66 19 l 5
 435 19 l 5
59 733 m 5
 59 34 l 5
 243 383 l 5
 59 733 l 5
EndSplineSet
Validated: 1
Layer: 2
SplineSet
37 770 m 5,0,-1
 464 770 l 1,1,-1
 464 0 l 1,2,-1
 37 0 l 1,3,-1
 37 770 l 5,0,-1
66 748 m 5,4,-1
 250 398 l 1,5,-1
 435 748 l 1,6,-1
 66 748 l 5,4,-1
258 383 m 5,7,-1
 442 34 l 1,8,-1
 442 733 l 1,9,-1
 258 383 l 5,7,-1
435 19 m 5,10,-1
 250 369 l 1,11,-1
 66 19 l 1,12,-1
 435 19 l 5,10,-1
59 733 m 5,13,-1
 59 34 l 1,14,-1
 243 383 l 1,15,-1
 59 733 l 5,13,-1
EndSplineSet
Validated: 1
EndChar

StartChar: uni001F
Encoding: 31 31 31
Width: 500
Flags: W
HStem: 0 19<66 435> 748 22<66 435>
VStem: 37 22<34 733> 442 22<34 733>
DStem2: 66 748 59 733 0.465951 -0.884811<10.0105 395.419 421.078 806.952> 59 34 66 19 0.465951 0.884811<0 385.408 411.068 796.942>
LayerCount: 3
Fore
SplineSet
37 770 m 5
 464 770 l 5
 464 0 l 5
 37 0 l 5
 37 770 l 5
66 748 m 5
 250 398 l 5
 435 748 l 5
 66 748 l 5
258 383 m 5
 442 34 l 5
 442 733 l 5
 258 383 l 5
435 19 m 5
 250 369 l 5
 66 19 l 5
 435 19 l 5
59 733 m 5
 59 34 l 5
 243 383 l 5
 59 733 l 5
EndSplineSet
Validated: 1
Layer: 2
SplineSet
37 770 m 5,0,-1
 464 770 l 1,1,-1
 464 0 l 1,2,-1
 37 0 l 1,3,-1
 37 770 l 5,0,-1
66 748 m 5,4,-1
 250 398 l 1,5,-1
 435 748 l 1,6,-1
 66 748 l 5,4,-1
258 383 m 5,7,-1
 442 34 l 1,8,-1
 442 733 l 1,9,-1
 258 383 l 5,7,-1
435 19 m 5,10,-1
 250 369 l 1,11,-1
 66 19 l 1,12,-1
 435 19 l 5,10,-1
59 733 m 5,13,-1
 59 34 l 1,14,-1
 243 383 l 1,15,-1
 59 733 l 5,13,-1
EndSplineSet
Validated: 1
EndChar

StartChar: bracketleft
Encoding: 91 91 33
Width: 241
VWidth: 0
Flags: W
HStem: -107 37<110.144 204.903> 684 38<118.143 220.894>
VStem: 0 102<-64.8513 452.688> 12 102<155.516 683.988>
LayerCount: 3
Fore
SplineSet
205 -103 m 0xe0
 204 -104 198 -106 189 -107 c 0
 186 -107 183 -107 179 -107 c 0
 172 -107 164 -107 154 -107 c 0
 141 -107 125 -107 109 -107 c 0
 94 -107 77 -107 63 -107 c 0
 49 -107 37 -102 27 -102 c 0
 17 -102 10 -98 7 -95 c 0
 4 -92 0 -88 0 -84 c 0
 -1 -82 -1 -79 -1 -76 c 0
 -1 -70 0 -61 0 -49 c 0
 0 -32 0 -4 0 31 c 0xe0
 0 68 7 117 7 182 c 0
 7 280 12 362 12 428 c 0
 12 494 12 547 12 586 c 0
 12 627 12 656 12 674 c 0
 12 693 12 705 15 709 c 0
 16 711 23 713 32 715 c 0
 41 717 54 719 67 719 c 0
 80 721 96 721 111 721 c 0
 126 721 142 722 156 722 c 0
 170 722 183 721 193 721 c 0
 204 719 210 718 213 717 c 0
 218 714 221 708 221 701 c 0
 221 694 218 687 213 684 c 0
 211 683 205 684 197 684 c 0
 187 684 177 684 166 684 c 0
 156 684 145 684 137 684 c 0
 127 684 121 680 118 678 c 1
 116 676 115 664 115 644 c 0
 115 624 114 598 114 567 c 2
 114 468 l 1xd0
 113 368 l 1
 113 314 106 261 106 211 c 0
 106 161 102 116 102 76 c 0
 102 36 102 4 102 -22 c 0
 102 -48 107 -62 110 -65 c 0
 113 -68 120 -70 129 -70 c 0
 138 -71 149 -70 159 -70 c 0
 169 -70 178 -70 188 -70 c 0
 196 -70 203 -71 205 -73 c 0
 210 -77 212 -82 213 -90 c 0
 213 -96 210 -101 205 -103 c 0xe0
EndSplineSet
Validated: 1
Layer: 2
SplineSet
213 -90 m 1,0,1
 213 -105 213 -105 189 -107 c 1,2,3
 63 -107 l 1,4,-1
 27 -102 l 1,5,6
 14 -102 14 -102 7 -95 c 128,-1,7
 0 -88 0 -88 -0.5 -85 c 128,-1,8
 -1 -82 -1 -82 -1 -76 c 2,9,-1
 0 -49 l 1,10,-1
 0 31 l 1,11,-1
 7 182 l 1,12,-1
 12 428 l 1,13,-1
 12 674 l 2,14,15
 12 705 12 705 14 708.5 c 128,-1,16
 16 712 16 712 33 715.5 c 128,-1,17
 50 719 50 719 67 719 c 1,18,19
 80 721 80 721 111 721 c 2,20,-1
 156 722 l 1,21,-1
 193 721 l 1,22,23
 211 718 211 718 216 715 c 128,-1,24
 221 712 221 712 221 700.5 c 128,-1,25
 221 689 221 689 213 684 c 1,26,-1
 137 684 l 2,27,28
 127 684 127 684 118 678 c 0,29,30
 115 675 115 675 115 644 c 2,31,-1
 114 567 l 1,32,-1
 114 468 l 1,33,-1
 113 368 l 1,34,-1
 106 211 l 1,35,-1
 102 76 l 1,36,-1
 102 -22 l 2,37,38
 102 -57 102 -57 108.5 -63.5 c 128,-1,39
 115 -70 115 -70 136 -70 c 2,40,41
 179 -70 l 2,42,43
 202 -70 202 -70 207 -74 c 128,-1,44
 212 -78 212 -78 213 -90 c 1,0,1
EndSplineSet
Validated: 1
EndChar

StartChar: backslash
Encoding: 92 92 34
Width: 296
Flags: W
HStem: -14 21G<221.391 296> 656 20G<0 73.6377>
VStem: 0 296
DStem2: 67 676 0 676 0.31499 -0.949095<0 705.589>
LayerCount: 3
Fore
SplineSet
0 676 m 1
 67 676 l 1
 296 -14 l 1
 228 -14 l 1
 0 676 l 1
EndSplineSet
Validated: 1
Layer: 2
SplineSet
0 676 m 1,0,-1
 67 676 l 1,1,-1
 296 -14 l 1,2,-1
 228 -14 l 1,3,-1
 0 676 l 1,0,-1
EndSplineSet
Validated: 1
EndChar

StartChar: bracketright
Encoding: 93 93 35
Width: 284
VWidth: 0
Flags: W
HStem: -107 37<41.1421 136.856> 684 38<51.3999 154.856>
VStem: 150 98<-64.8513 643.058> 158 103<469.685 684>
LayerCount: 3
Fore
SplineSet
239 -95 m 1xe0
 236 -98 229 -102 219 -102 c 0
 209 -102 196 -107 182 -107 c 0
 168 -107 152 -107 136 -107 c 0
 120 -107 104 -107 91 -107 c 0
 82 -107 73 -107 66 -107 c 0
 62 -107 59 -107 56 -107 c 0
 47 -106 41 -104 40 -103 c 0
 35 -101 32 -96 33 -90 c 0
 34 -82 36 -77 41 -73 c 0
 44 -71 49 -70 58 -70 c 0
 67 -70 77 -70 88 -70 c 0
 98 -70 109 -71 118 -70 c 0
 127 -70 134 -68 137 -65 c 0
 140 -62 145 -48 145 -22 c 0
 145 4 150 36 150 76 c 0
 150 116 150 161 150 211 c 0
 150 261 150 314 150 368 c 0xe0
 150 400 151 432 151 468 c 0
 151 504 155 536 155 567 c 0
 155 598 158 624 158 644 c 0
 158 664 157 676 155 678 c 0
 152 680 145 684 137 684 c 0
 127 684 117 684 106 684 c 0
 96 684 86 684 78 684 c 0
 68 684 62 683 59 684 c 0
 54 687 51 694 51 701 c 0
 52 708 55 714 60 717 c 0
 63 718 71 719 82 721 c 0
 92 721 105 722 119 722 c 0
 132 722 148 721 163 721 c 0
 178 721 194 721 207 719 c 0
 220 719 233 717 242 715 c 0
 251 714 257 712 258 709 c 0
 261 705 261 693 261 674 c 0xd0
 261 656 258 627 258 586 c 0
 258 547 252 494 252 428 c 0
 252 362 248 280 248 182 c 2
 248 31 l 1
 248 -49 l 1
 248 -84 l 1
 239 -95 l 1xe0
EndSplineSet
Validated: 1
Layer: 2
SplineSet
32 -92 m 0,0,1
 32 -70 32 -70 60 -70 c 2,2,-1
 110 -70 l 2,3,4
 132 -70 132 -70 138.5 -63.5 c 128,-1,5
 145 -57 145 -57 145 -22 c 1,6,-1
 150 76 l 1,7,-1
 150 368 l 1,8,-1
 151 468 l 1,9,-1
 158 644 l 1,10,11
 158 675 158 675 155 678 c 0,12,13
 146 684 146 684 137 684 c 2,14,-1
 59 684 l 1,15,16
 51 689 51 689 51 701 c 1,17,18
 53 713 53 713 60 717 c 1,19,20
 66 717 66 717 82 721 c 1,21,-1
 119 722 l 1,22,-1
 163 721 l 2,23,24
 194 721 194 721 207 719 c 1,25,26
 224 719 224 719 240.5 716 c 128,-1,27
 257 713 257 713 258 709 c 1,28,29
 261 705 261 705 261 674 c 1,30,-1
 252 428 l 1,31,-1
 248 182 l 1,32,-1
 248 -84 l 1,33,-1
 239 -95 l 2,34,35
 232 -102 232 -102 219 -102 c 1,36,-1
 182 -107 l 1,37,-1
 56 -107 l 1,38,39
 32 -105 32 -105 32 -92 c 0,0,1
EndSplineSet
Validated: 1
EndChar

StartChar: uni25CC
Encoding: 9676 9676 37
Width: 525
GlyphClass: 2
Flags: W
HStem: -11 69<228.499 293.116> 42 69<94.4993 160.204 360.499 425.204> 174 69<34.1933 99.4636 422.499 487.204> 319 69<94.7991 159.92 363.219 422.698> 376 69<228.508 293.246>
VStem: 33 67<174.596 241.864> 93 68<42.7508 109.864 319.837 385.91> 227 67<-9.86539 56.8636 376.837 443.492> 359 67<42.7508 109.97 324.788 392.864> 421 67<174.796 241.864>
AnchorPoint: "Podtinka" 65 -77 basechar 0
AnchorPoint: "Otsechka" 632 201.2 basechar 0
AnchorPoint: "Borzaya" -15 -1 basechar 0
AnchorPoint: "Podvertka" 533 -13 basechar 0
AnchorPoint: "Tonal" 274 638 basechar 0
AnchorPoint: "Zaderzhka" 515 501.9 basechar 0
AnchorPoint: "Podchashie" 266 -118 basechar 0
AnchorPoint: "Oblachko" 260 640 basechar 0
AnchorPoint: "Tikhaya" 206 160.5 basechar 0
AnchorPoint: "Lomka" 528 -15 basechar 0
AnchorPoint: "Kachka" 263 639 basechar 0
AnchorPoint: "Kupnaya" 268 -114 basechar 0
AnchorPoint: "Udarka" 525 496 basechar 0
AnchorPoint: "Zevok" 519 501 basechar 0
AnchorPoint: "Shaidur" 100 425 basechar 0
LayerCount: 3
Fore
SplineSet
67 243 m 0x25
 81 243 84 243 93 233 c 0x23
 102 223 100 223 100 208 c 0
 100 193 100 193 91 183.5 c 0
 82 174 82 174 67 174 c 0
 52 174 52 174 42.5 184 c 0
 33 194 33 194 33 208 c 0
 33 222 33 222 43.5 232.5 c 0
 54 243 54 243 67 243 c 0x25
127 111 m 0x63
 142 111 142 111 151.5 101 c 0
 161 91 161 91 161 76 c 0
 161 62 161 62 151 52 c 0
 141 42 141 42 127 42 c 0
 113 42 113 42 103 52 c 0
 93 62 93 62 93 76 c 0
 93 89 93 89 103.5 100 c 0
 114 111 114 111 127 111 c 0x63
127 388 m 0x33
 141 388 141 386 151 376 c 0x2b
 161 366 161 368 161 354 c 0
 161 339 161 339 151.5 329 c 0
 142 319 142 319 127 319 c 0x33
 113 319 113 319 103 329.5 c 0
 93 340 93 340 93 354 c 0
 93 366 93 365 104 376 c 0x2b
 115 387 115 388 127 388 c 0x33
261 58 m 0xa1
 276 58 276 58 285 48 c 0
 294 38 294 38 294 23 c 0
 294 9 294 10 284.5 0 c 0
 275 -10 275 -11 261 -11 c 0
 247 -11 247 -10 237 0 c 0
 227 10 227 9 227 23 c 0
 227 36 227 36 237.5 47 c 0
 248 58 248 58 261 58 c 0xa1
261 445 m 0x29
 275 445 275 445 284.5 435 c 0
 294 425 294 425 294 411 c 0
 294 396 294 396 285 386 c 0
 276 376 276 376 261 376 c 0
 247 376 247 376 237 386.5 c 0
 227 397 227 397 227 411 c 0
 227 423 227 423 238 434 c 0
 249 445 249 445 261 445 c 0x29
392 111 m 0x6180
 407 111 407 111 416.5 101 c 0
 426 91 426 91 426 76 c 0
 426 61 426 61 416.5 51.5 c 0
 407 42 407 42 392 42 c 0
 379 42 379 42 369 52 c 0
 359 62 359 62 359 76 c 0
 359 89 359 89 369.5 100 c 0
 380 111 380 111 392 111 c 0x6180
392 394 m 0
 407 394 407 394 416.5 384 c 0
 426 374 426 374 426 359 c 0
 426 344 426 344 416.5 334 c 0
 407 324 407 324 392 324 c 0
 379 324 379 324 369 334.5 c 0
 359 345 359 345 359 359 c 0
 359 371 359 371 369.5 382.5 c 0
 380 394 380 394 392 394 c 0
455 243 m 0
 469 243 469 243 478.5 233 c 0
 488 223 488 223 488 208 c 0
 488 193 488 193 479 183.5 c 0
 470 174 470 174 455 174 c 0
 441 174 441 174 431 184 c 0
 421 194 421 194 421 208 c 0x2140
 421 221 421 221 431.5 232 c 0
 442 243 442 243 455 243 c 0
EndSplineSet
Validated: 1
Layer: 2
SplineSet
100 220 m 2,0,-1
 100 208 l 2,1,2
 100 197 100 197 99.5 195 c 128,-1,3
 99 193 99 193 91.5 184.5 c 128,-1,4
 84 176 84 176 81 175 c 128,-1,5
 78 174 78 174 67 174 c 128,-1,6
 56 174 56 174 54 175 c 128,-1,7
 52 176 52 176 43 184 c 0,8,9
 35 192 35 192 34 195 c 128,-1,10
 33 198 33 198 33 208.5 c 128,-1,11
 33 219 33 219 34.5 222 c 128,-1,12
 36 225 36 225 43.5 232.5 c 128,-1,13
 51 240 51 240 54 241.5 c 128,-1,14
 57 243 57 243 70.5 243 c 128,-1,15
 84 243 84 243 89.5 236.5 c 128,-1,16
 95 230 95 230 97.5 227.5 c 128,-1,17
 100 225 100 225 100 220 c 2,0,-1
114 109.5 m 128,-1,19
 117 111 117 111 127.5 111 c 128,-1,20
 138 111 138 111 141 110 c 128,-1,21
 144 109 144 109 151.5 101.5 c 128,-1,22
 159 94 159 94 160 90.5 c 128,-1,23
 161 87 161 87 161 74.5 c 128,-1,24
 161 62 161 62 151 52 c 128,-1,25
 141 42 141 42 127 42 c 128,-1,26
 113 42 113 42 103 52 c 128,-1,27
 93 62 93 62 93 75 c 128,-1,28
 93 88 93 88 94.5 90 c 128,-1,29
 96 92 96 92 103.5 100 c 128,-1,18
 111 108 111 108 114 109.5 c 128,-1,19
94 365 m 128,-1,31
 95 367 95 367 105.5 377.5 c 128,-1,32
 116 388 116 388 125 388 c 128,-1,33
 134 388 134 388 138 387 c 128,-1,34
 142 386 142 386 149 379 c 128,-1,35
 156 372 156 372 158 368 c 0,36,37
 161 364 161 364 161 354 c 128,-1,38
 161 344 161 344 160 338 c 0,39,40
 158 331 158 331 141 320 c 0,41,42
 139 319 139 319 127 319 c 0,43,44
 116 319 116 319 114 320 c 128,-1,45
 112 321 112 321 104 329 c 128,-1,46
 96 337 96 337 94.5 340.5 c 128,-1,47
 93 344 93 344 93 353.5 c 128,-1,30
 93 363 93 363 94 365 c 128,-1,31
248 56.5 m 128,-1,49
 251 58 251 58 261.5 58 c 128,-1,50
 272 58 272 58 276 56 c 0,51,52
 294 45 294 45 294 28.5 c 128,-1,53
 294 12 294 12 293 10 c 128,-1,54
 292 8 292 8 284.5 0 c 128,-1,55
 277 -8 277 -8 274 -9.5 c 128,-1,56
 271 -11 271 -11 259.5 -11 c 128,-1,57
 248 -11 248 -11 240 -3 c 2,58,-1
 231 6 l 2,59,60
 227 10 227 10 227 14 c 2,61,-1
 227 23 l 2,62,63
 227 34 227 34 228.5 36.5 c 128,-1,64
 230 39 230 39 237.5 47 c 128,-1,48
 245 55 245 55 248 56.5 c 128,-1,49
261 445 m 128,-1,66
 273 445 273 445 275 444 c 128,-1,67
 277 443 277 443 284.5 435.5 c 128,-1,68
 292 428 292 428 293 425 c 128,-1,69
 294 422 294 422 294 409 c 128,-1,70
 294 396 294 396 286 387 c 128,-1,71
 278 378 278 378 275 377 c 128,-1,72
 272 376 272 376 260 376 c 128,-1,73
 248 376 248 376 248 376 c 2,74,-1
 237 387 l 2,75,76
 230 394 230 394 228 397 c 0,77,78
 227 400 227 400 227 411.5 c 128,-1,79
 227 423 227 423 238 434 c 128,-1,65
 249 445 249 445 261 445 c 128,-1,66
380 109.5 m 128,-1,81
 383 111 383 111 393.5 111 c 128,-1,82
 404 111 404 111 406.5 109.5 c 128,-1,83
 409 108 409 108 416.5 101 c 128,-1,84
 424 94 424 94 425 90.5 c 128,-1,85
 426 87 426 87 426 76 c 128,-1,86
 426 65 426 65 425 62 c 128,-1,87
 424 59 424 59 416.5 51.5 c 128,-1,88
 409 44 409 44 406 43 c 128,-1,89
 403 42 403 42 391 42 c 128,-1,90
 379 42 379 42 369 52 c 128,-1,91
 359 62 359 62 359 75 c 128,-1,92
 359 88 359 88 360.5 90 c 128,-1,93
 362 92 362 92 369.5 100 c 128,-1,80
 377 108 377 108 380 109.5 c 128,-1,81
380 392.5 m 128,-1,95
 383 394 383 394 393 394 c 128,-1,96
 403 394 403 394 405.5 393 c 128,-1,97
 408 392 408 392 416 384 c 128,-1,98
 424 376 424 376 425 373 c 128,-1,99
 426 370 426 370 426 359.5 c 128,-1,100
 426 349 426 349 425 345 c 128,-1,101
 424 341 424 341 416.5 333.5 c 128,-1,102
 409 326 409 326 406 325 c 128,-1,103
 403 324 403 324 391.5 324 c 128,-1,104
 380 324 380 324 380 324 c 2,105,-1
 369 335 l 2,106,107
 362 342 362 342 360 345 c 0,108,109
 359 348 359 348 359 359 c 128,-1,110
 359 370 359 370 360.5 372 c 128,-1,111
 362 374 362 374 369.5 382.5 c 128,-1,94
 377 391 377 391 380 392.5 c 128,-1,95
442 241.5 m 128,-1,113
 445 243 445 243 456 243 c 128,-1,114
 467 243 467 243 468 242.5 c 128,-1,115
 469 242 469 242 477.5 233.5 c 128,-1,116
 486 225 486 225 487 222 c 128,-1,117
 488 219 488 219 488 208 c 128,-1,118
 488 197 488 197 487.5 195 c 128,-1,119
 487 193 487 193 479.5 184.5 c 128,-1,120
 472 176 472 176 469 175 c 128,-1,121
 466 174 466 174 453.5 174 c 128,-1,122
 441 174 441 174 431 184 c 128,-1,123
 421 194 421 194 421 207 c 128,-1,124
 421 220 421 220 422.5 222 c 128,-1,125
 424 224 424 224 431.5 232 c 128,-1,112
 439 240 439 240 442 241.5 c 128,-1,113
EndSplineSet
Validated: 1
EndChar

StartChar: exclam
Encoding: 33 33 47
Width: 333
Flags: W
HStem: -9 107<140.695 225.537> 656 20G<166.5 200>
VStem: 130 107<0.953918 86.462 423.917 663.421>
LayerCount: 3
Fore
SplineSet
189 176 m 5
 176 176 l 5
 152.054 463.358 130 526.089 130 599 c 4
 130 646 150 676 183 676 c 4
 217 676 236 648 236 596 c 4
 236 526 214 462 189 176 c 5
183 98 m 4
 213 98 237 73 237 43 c 4
 237 13 214 -9 182 -9 c 4
 152 -9 130 13 130 43 c 4
 130 74 153 98 183 98 c 4
EndSplineSet
Validated: 1
Layer: 2
SplineSet
189 176 m 1,0,-1
 176 176 l 1,1,2
 163 332 163 332 146.5 451 c 128,-1,3
 130 570 130 570 130 602 c 128,-1,4
 130 634 130 634 144 655 c 128,-1,5
 158 676 158 676 183 676 c 0,6,7
 236 676 236 676 236 596 c 0,8,9
 236 568 236 568 230 526 c 0,10,11
 205 349 205 349 189 176 c 1,0,-1
183 98 m 128,-1,13
 205 98 205 98 221 82 c 128,-1,14
 237 66 237 66 237 43 c 128,-1,15
 237 20 237 20 221.5 5.5 c 128,-1,16
 206 -9 206 -9 183 -9 c 128,-1,17
 160 -9 160 -9 145 5.5 c 128,-1,18
 130 20 130 20 130 43 c 128,-1,19
 130 66 130 66 145.5 82 c 128,-1,12
 161 98 161 98 183 98 c 128,-1,13
EndSplineSet
Validated: 1
EndChar

StartChar: quotedbl
Encoding: 34 34 48
Width: 343
Flags: W
HStem: 431 245<86.1143 114.395 228.114 256.395>
VStem: 58 85<489.767 670.645> 200 85<489.767 670.645>
LayerCount: 3
Fore
SplineSet
253 431 m 1
 232 431 l 1
 215 521 200 619 200 635 c 0
 200 658 219 676 243 676 c 0
 266 676 285 658 285 636 c 0
 285 618 270 520 253 431 c 1
111 431 m 1
 90 431 l 1
 73 521 58 619 58 635 c 0
 58 658 77 676 101 676 c 0
 124 676 143 658 143 636 c 0
 143 618 128 520 111 431 c 1
EndSplineSet
Validated: 1
Layer: 2
SplineSet
253 431 m 1,0,-1
 232 431 l 1,1,2
 200 600 200 600 200 626 c 128,-1,3
 200 652 200 652 212.5 664 c 128,-1,4
 225 676 225 676 242.5 676 c 128,-1,5
 260 676 260 676 272.5 664 c 128,-1,6
 285 652 285 652 285 636 c 0,7,8
 285 599 285 599 253 431 c 1,0,-1
111 431 m 1,9,-1
 90 431 l 1,10,11
 58 600 58 600 58 626 c 128,-1,12
 58 652 58 652 70.5 664 c 128,-1,13
 83 676 83 676 100.5 676 c 128,-1,14
 118 676 118 676 130.5 664 c 128,-1,15
 143 652 143 652 143 636 c 0,16,17
 143 599 143 599 111 431 c 1,9,-1
EndSplineSet
Validated: 1
EndChar

StartChar: numbersign
Encoding: 35 35 49
Width: 500
Flags: W
HStem: 0 21G<79 140.056 273 333.87> 216 55<5 112 179 304 371 471> 405 55<32 142 208 333 399 496> 642 20G<177.931 239 368.03 429>
VStem: 79 58<0 58> 181 58<604 662> 273 58<0 58> 371 58<604 662>
DStem2: 79 0 137 0 0.152282 0.988337<8.83233 218.506 283.068 409.87 474.279 669.812> 273 0 331 0 0.14644 0.989219<8.49354 218.211 282.43 409.42 473.492 669.214>
LayerCount: 3
Fore
SplineSet
471 271 m 1
 471 216 l 1
 362 216 l 1
 331 0 l 1
 273 0 l 1
 304 216 l 1
 170 216 l 1
 137 0 l 1
 79 0 l 1
 112 216 l 1
 5 216 l 1
 5 271 l 1
 121 271 l 1
 142 405 l 1
 32 405 l 1
 32 460 l 1
 150 460 l 1
 181 662 l 1
 239 662 l 1
 208 460 l 1
 341 460 l 1
 371 662 l 1
 429 662 l 1
 399 460 l 1
 496 460 l 1
 496 405 l 1
 391 405 l 1
 371 271 l 1
 471 271 l 1
333 405 m 1
 200 405 l 1
 179 271 l 1
 313 271 l 1
 333 405 l 1
EndSplineSet
Validated: 1
Layer: 2
SplineSet
471 271 m 1,0,-1
 471 216 l 1,1,-1
 362 216 l 1,2,-1
 331 0 l 1,3,-1
 273 0 l 1,4,-1
 304 216 l 1,5,-1
 170 216 l 1,6,-1
 137 0 l 1,7,-1
 79 0 l 1,8,-1
 112 216 l 1,9,-1
 5 216 l 1,10,-1
 5 271 l 1,11,-1
 121 271 l 1,12,-1
 142 405 l 1,13,-1
 32 405 l 1,14,-1
 32 460 l 1,15,-1
 150 460 l 1,16,-1
 181 662 l 1,17,-1
 239 662 l 1,18,-1
 208 460 l 1,19,-1
 341 460 l 1,20,-1
 371 662 l 1,21,-1
 429 662 l 1,22,-1
 399 460 l 1,23,-1
 496 460 l 1,24,-1
 496 405 l 1,25,-1
 391 405 l 1,26,-1
 371 271 l 1,27,-1
 471 271 l 1,0,-1
333 405 m 1,28,-1
 200 405 l 1,29,-1
 179 271 l 1,30,-1
 313 271 l 1,31,-1
 333 405 l 1,28,-1
EndSplineSet
Validated: 1
EndChar

StartChar: dollar
Encoding: 36 36 50
Width: 500
Flags: W
HStem: 0 28<156.808 230 264 307.033> 637 27<188.186 229 264 316.718>
VStem: 44 15<157.447 181> 52 74<473.95 588.358> 230 34<-87 0 28 293 407 637 662.064 727> 378 79<88.2245 218.132> 410 15<500 526.362>
LayerCount: 3
Fore
SplineSet
52 512 m 0xd8
 52 596 111 651 230 664 c 1
 230 727 l 1
 264 727 l 1
 264 664 l 1
 348 654 391 639 425 611 c 1
 425 500 l 1
 410 500 l 1xda
 393 585 348 627 264 637 c 1
 264 391 l 1
 372 328 457 294 457 170 c 0
 457 66 385 20 264 0 c 1
 264 -87 l 1
 230 -87 l 1
 230 0 l 1
 146 3 104 14 44 51 c 1
 44 181 l 1
 59 181 l 1xec
 83 76 136 29 230 28 c 1
 230 310 l 1
 103 381 52 429 52 512 c 0xd8
229 407 m 1
 229 637 l 1
 160 623 126 589 126 534 c 0
 126 488 146 463 229 407 c 1
264 293 m 1
 264 28 l 1
 342 43 378 80 378 146 c 0xcc
 378 208 357 235 264 293 c 1
EndSplineSet
Validated: 1
Layer: 2
SplineSet
91.5 408.5 m 128,-1,1
 52 452 52 452 52 514 c 128,-1,2
 52 576 52 576 97 615 c 128,-1,3
 142 654 142 654 230 664 c 1,4,-1
 230 727 l 1,5,-1
 264 727 l 1,6,-1
 264 664 l 1,7,8
 377 651 377 651 425 611 c 1,9,-1
 425 500 l 1,10,-1
 410 500 l 1,11,12
 397 564 397 564 362 596.5 c 128,-1,13
 327 629 327 629 264 637 c 1,14,-1
 264 391 l 1,15,16
 274 385 274 385 302.5 369 c 128,-1,17
 331 353 331 353 340.5 347 c 128,-1,18
 350 341 350 341 372 326.5 c 128,-1,19
 394 312 394 312 402 303 c 128,-1,20
 410 294 410 294 424 278 c 128,-1,21
 438 262 438 262 443 248 c 0,22,23
 457 207 457 207 457 170 c 0,24,25
 457 95 457 95 408.5 55.5 c 128,-1,26
 360 16 360 16 264 0 c 1,27,-1
 264 -87 l 1,28,-1
 230 -87 l 1,29,-1
 230 0 l 1,30,31
 167 2 167 2 128 12.5 c 128,-1,32
 89 23 89 23 44 51 c 1,33,-1
 44 181 l 1,34,-1
 59 181 l 1,35,36
 77 102 77 102 118 65.5 c 128,-1,37
 159 29 159 29 230 28 c 1,38,-1
 230 310 l 1,39,0
 131 365 131 365 91.5 408.5 c 128,-1,1
229 407 m 1,40,-1
 229 637 l 1,41,42
 126 616 126 616 126 534 c 0,43,44
 126 499 126 499 146.5 474 c 128,-1,45
 167 449 167 449 229 407 c 1,40,-1
264 293 m 1,46,-1
 264 28 l 1,47,48
 378 50 378 50 378 146 c 0,49,50
 378 192 378 192 356 220.5 c 128,-1,51
 334 249 334 249 264 293 c 1,46,-1
EndSplineSet
Validated: 1
EndChar

StartChar: percent
Encoding: 37 37 51
Width: 833
Flags: W
HStem: -13 21G<201 260.176> 0 30<545.704 635.409> 289 34<154.321 248.289> 339 32<630.353 717.395> 583 25<378.409 512.947> 632 30<244.357 305.06> 656 20G<568 634>
VStem: 61 76<342.841 484.296> 359 25<474.893 592.444> 449 76<50.6492 193.061> 746 26<183.851 304.003>
DStem2: 201 -13 249 -13 0.487793 0.872959<23.4141 717.688 734.553 793.659>
LayerCount: 3
Fore
SplineSet
669 371 m 0x79e0
 734 371 772 332 772 264 c 0
 772 186 739 105 686 51 c 0
 651 16 614 0 569 0 c 0
 497 0 449 51 449 129 c 0
 449 254 556 371 669 371 c 0x79e0
586 30 m 0
 676 30 746 166 746 259 c 0
 746 303 714 339 676 339 c 0
 575 339 525 145 525 94 c 0
 525 56 550 30 586 30 c 0
282 662 m 0xbde0
 358 662 341 608 439 608 c 0
 501 608 541 625 595 676 c 1
 634 676 l 1x3be0
 249 -13 l 1
 201 -13 l 1
 552 613 l 1
 512 590 486 583 442 583 c 0
 413 583 395 586 377 593 c 1
 382 575 384 563 384 549 c 0
 384 435 301 289 179 289 c 0
 114 289 61 346 61 416 c 0
 61 543 168 662 282 662 c 0xbde0
282 632 m 0x3de0
 215 632 137 477 137 384 c 0
 137 348 161 323 196 323 c 0
 277 323 359 438 359 551 c 0
 359 565 356 580 350 600 c 1
 291 616 296 632 282 632 c 0x3de0
EndSplineSet
Validated: 1
Layer: 2
SplineSet
669 371 m 0,0,1
 718 371 718 371 745 343 c 128,-1,2
 772 315 772 315 772 260.5 c 128,-1,3
 772 206 772 206 749 149 c 128,-1,4
 726 92 726 92 680.5 46 c 128,-1,5
 635 0 635 0 575 0 c 128,-1,6
 515 0 515 0 482 35.5 c 128,-1,7
 449 71 449 71 449 129 c 0,8,9
 449 223 449 223 516.5 297 c 128,-1,10
 584 371 584 371 669 371 c 0,0,1
586 30 m 0,11,12
 629 30 629 30 667 68 c 128,-1,13
 705 106 705 106 725.5 158.5 c 128,-1,14
 746 211 746 211 746 251.5 c 128,-1,15
 746 292 746 292 725.5 315.5 c 128,-1,16
 705 339 705 339 676 339 c 0,17,18
 630 339 630 339 593 287 c 128,-1,19
 556 235 556 235 540.5 180.5 c 128,-1,20
 525 126 525 126 525 96 c 128,-1,21
 525 66 525 66 542 48 c 128,-1,22
 559 30 559 30 586 30 c 0,11,12
282 662 m 0,23,24
 313 662 313 662 332 648.5 c 128,-1,25
 351 635 351 635 374.5 621.5 c 128,-1,26
 398 608 398 608 442 608 c 128,-1,27
 486 608 486 608 520.5 623 c 128,-1,28
 555 638 555 638 595 676 c 1,29,-1
 634 676 l 1,30,-1
 249 -13 l 1,31,-1
 201 -13 l 1,32,-1
 552 613 l 1,33,34
 500 583 500 583 451.5 583 c 128,-1,35
 403 583 403 583 377 593 c 1,36,37
 384 568 384 568 384 549 c 0,38,39
 384 456 384 456 324.5 372.5 c 128,-1,40
 265 289 265 289 179 289 c 0,41,42
 130 289 130 289 95.5 326.5 c 128,-1,43
 61 364 61 364 61 416 c 0,44,45
 61 511 61 511 128.5 586.5 c 128,-1,46
 196 662 196 662 282 662 c 0,23,24
282 632 m 0,47,48
 234 632 234 632 185.5 544.5 c 128,-1,49
 137 457 137 457 137 384 c 0,50,51
 137 357 137 357 153.5 340 c 128,-1,52
 170 323 170 323 196 323 c 0,53,54
 257 323 257 323 308 394.5 c 128,-1,55
 359 466 359 466 359 551 c 0,56,57
 359 570 359 570 350 600 c 1,58,59
 313 609 313 609 303 618 c 0,60,61
 287 632 287 632 282 632 c 0,47,48
EndSplineSet
Validated: 1
EndChar

StartChar: ampersand
Encoding: 38 38 52
Width: 778
Flags: W
HStem: -13 71<566.92 675.071> -13 52<197.514 324.13> 405 21<495 540.711 665.613 711> 644 32<310.145 404.649>
VStem: 42 92<104.791 228.596> 202 79<458.044 599.8> 438 53<492.35 617.761>
LayerCount: 3
Fore
SplineSet
491 555 m 0x7e
 491 486 451 438 336 384 c 1
 380 298 412 247 468 178 c 1
 532 263 559 317 559 360 c 0
 559 390 545 400 495 405 c 1
 495 426 l 1
 711 426 l 1
 711 405 l 1
 661 399 641 387 617 346 c 0
 575.489 272.557 559.728 242.158 491 150 c 1
 537 89 589 58 645 58 c 0
 681 58 703 71 735 111 c 1
 750 100 l 1
 720 29 663 -13 599 -13 c 0xbe
 541 -13 492 13 429 78 c 1
 354 12 294 -13 213 -13 c 0
 107 -13 42 44 42 139 c 0
 42 266 148 328 237 377 c 1
 210 452 202 484 202 522 c 0
 202 608 270 676 356 676 c 0
 435 676 491 626 491 555 c 0x7e
321 416 m 1
 403 460 438 503 438 559 c 0
 438 608 404 644 358 644 c 0
 312 644 281 610 281 562 c 0
 281 517 291 479 321 416 c 1
252 343 m 1
 165 287 134 244 134 180 c 0
 134 103 193 39 263 39 c 0x7e
 305 39 345 57 404 104 c 1
 347 174 312 229 252 343 c 1
EndSplineSet
Validated: 1
Layer: 2
SplineSet
491 555 m 128,-1,1
 491 502 491 502 456 463 c 128,-1,2
 421 424 421 424 336 384 c 1,3,4
 396 267 396 267 468 178 c 1,5,6
 559 299 559 299 559 360 c 0,7,8
 559 383 559 383 545.5 392 c 128,-1,9
 532 401 532 401 495 405 c 1,10,-1
 495 426 l 1,11,-1
 711 426 l 1,12,-1
 711 405 l 1,13,14
 673 400 673 400 654 388.5 c 128,-1,15
 635 377 635 377 617 346 c 0,16,17
 554 234 554 234 491 150 c 1,18,19
 560 58 560 58 645 58 c 0,20,21
 672 58 672 58 691.5 69.5 c 128,-1,22
 711 81 711 81 735 111 c 1,23,-1
 750 100 l 1,24,25
 728 47 728 47 687.5 17 c 128,-1,26
 647 -13 647 -13 599 -13 c 0,27,28
 517 -13 517 -13 429 78 c 1,29,30
 373 29 373 29 323.5 8 c 128,-1,31
 274 -13 274 -13 203.5 -13 c 128,-1,32
 133 -13 133 -13 87.5 27.5 c 128,-1,33
 42 68 42 68 42 139 c 0,34,35
 42 228 42 228 108 288 c 0,36,37
 142 319 142 319 168 336 c 0,38,39
 198 355 198 355 237 377 c 1,40,41
 202 474 202 474 202 530 c 128,-1,42
 202 586 202 586 247 631 c 128,-1,43
 292 676 292 676 353.5 676 c 128,-1,44
 415 676 415 676 453 642 c 128,-1,0
 491 608 491 608 491 555 c 128,-1,1
321 416 m 1,45,46
 382 449 382 449 410 483 c 128,-1,47
 438 517 438 517 438 556.5 c 128,-1,48
 438 596 438 596 415.5 620 c 128,-1,49
 393 644 393 644 358.5 644 c 128,-1,50
 324 644 324 644 302.5 621 c 128,-1,51
 281 598 281 598 281 562 c 0,52,53
 281 500 281 500 321 416 c 1,45,46
252 343 m 1,54,55
 187 301 187 301 160.5 264.5 c 128,-1,56
 134 228 134 228 134 175 c 128,-1,57
 134 122 134 122 172 80.5 c 128,-1,58
 210 39 210 39 266 39 c 128,-1,59
 322 39 322 39 404 104 c 1,60,61
 330 195 330 195 252 343 c 1,54,55
EndSplineSet
Validated: 1
EndChar

StartChar: quotesingle
Encoding: 39 39 53
Width: 200
Flags: W
HStem: 431 245<86.1143 114.395>
VStem: 58 85<489.767 670.645>
LayerCount: 3
Fore
SplineSet
111 431 m 1
 90 431 l 1
 73 521 58 619 58 635 c 0
 58 658 77 676 101 676 c 0
 124 676 143 658 143 636 c 0
 143 618 128 520 111 431 c 1
EndSplineSet
Validated: 1
Layer: 2
SplineSet
111 431 m 1,0,-1
 90 431 l 1,1,2
 58 600 58 600 58 626 c 128,-1,3
 58 652 58 652 70.5 664 c 128,-1,4
 83 676 83 676 100.5 676 c 128,-1,5
 118 676 118 676 130.5 664 c 128,-1,6
 143 652 143 652 143 636 c 0,7,8
 143 599 143 599 111 431 c 1,0,-1
EndSplineSet
Validated: 1
EndChar

StartChar: parenleft
Encoding: 40 40 54
Width: 333
Flags: W
HStem: 656 20G<254 304>
VStem: 48 86<109.424 400.802>
LayerCount: 3
Fore
SplineSet
292 -177 m 5
 218 -132 48 11 48 252 c 4
 48 506 213 623 295 676 c 5
 304 660 l 5
 201 577 134 500 134 255 c 4
 134 0 201 -80 304 -161 c 5
 292 -177 l 5
EndSplineSet
Validated: 1
Layer: 2
SplineSet
292 -177 m 1,0,1
 231 -139 231 -139 185 -87.5 c 128,-1,2
 139 -36 139 -36 112 9.5 c 128,-1,3
 85 55 85 55 66.5 119 c 128,-1,4
 48 183 48 183 48 253.5 c 128,-1,5
 48 324 48 324 66.5 388.5 c 128,-1,6
 85 453 85 453 110 495.5 c 128,-1,7
 135 538 135 538 173.5 577.5 c 128,-1,8
 212 617 212 617 237 636 c 128,-1,9
 262 655 262 655 295 676 c 1,10,-1
 304 660 l 1,11,12
 260 624 260 624 233 595 c 128,-1,13
 206 566 206 566 181 520 c 0,14,15
 134 432 134 432 134 255 c 0,16,17
 134 70 134 70 181 -20 c 0,18,19
 206 -67 206 -67 233 -97 c 128,-1,20
 260 -127 260 -127 304 -161 c 1,21,-1
 292 -177 l 1,0,1
EndSplineSet
Validated: 1
EndChar

StartChar: asterisk
Encoding: 42 42 56
Width: 500
Flags: W
HStem: 656 20G<241 261>
VStem: 214 74<269.579 383.485 556.84 672.448> 241 19<370.98 456 486 569.041>
LayerCount: 3
Fore
SplineSet
214 302 m 0xc0
 214 337 241 358 241 456 c 1
 145 397 156 351 105 351 c 0
 83 351 69 364 69 386 c 0
 69 434 136 411 234 471 c 1
 134 523 69 500.424 69 555 c 0
 69 575 84 591 103 591 c 0
 151 591 143 543 241 486 c 1
 241 585 216 604.94 216 641 c 0
 216 661 231 676 251 676 c 0
 271 676 287 660 287 639 c 0
 287 597.707 260 586.021 260 484 c 1
 346 537 352 593 395 593 c 0
 416 593 431 577 431 554 c 0
 431 507 357 522 268 470 c 1
 361 412 432 436 432 387 c 0
 432 365 418 350 397 350 c 0
 349 350 348 396 260 456 c 1xa0
 260 359.201 288 331.81 288 305 c 0
 288 284 270 265 249 265 c 0
 230 265 214 282 214 302 c 0xc0
EndSplineSet
Validated: 1
Layer: 2
SplineSet
224.5 276 m 128,-1,1
 214 287 214 287 214 299.5 c 128,-1,2
 214 312 214 312 227.5 355.5 c 128,-1,3
 241 399 241 399 241 456 c 1,4,5
 202 432 202 432 177 404 c 128,-1,6
 152 376 152 376 139.5 363.5 c 128,-1,7
 127 351 127 351 105 351 c 0,8,9
 69 351 69 351 69 386 c 0,10,11
 69 415 69 415 114 424 c 0,12,13
 173 435 173 435 234 471 c 1,14,15
 195 491 195 491 149.5 502 c 128,-1,16
 104 513 104 513 86.5 522 c 128,-1,17
 69 531 69 531 69 550.5 c 128,-1,18
 69 570 69 570 79 580.5 c 128,-1,19
 89 591 89 591 104 591 c 128,-1,20
 119 591 119 591 131.5 582 c 128,-1,21
 144 573 144 573 153 560 c 128,-1,22
 162 547 162 547 185.5 526 c 128,-1,23
 209 505 209 505 241 486 c 1,24,25
 241 543 241 543 228.5 587 c 128,-1,26
 216 631 216 631 216 643.5 c 128,-1,27
 216 656 216 656 226 666 c 128,-1,28
 236 676 236 676 251 676 c 128,-1,29
 266 676 266 676 276.5 665.5 c 128,-1,30
 287 655 287 655 287 640.5 c 128,-1,31
 287 626 287 626 273.5 584.5 c 128,-1,32
 260 543 260 543 260 484 c 1,33,34
 295 506 295 506 321.5 534.5 c 128,-1,35
 348 563 348 563 362.5 578 c 128,-1,36
 377 593 377 593 394 593 c 128,-1,37
 411 593 411 593 421 582 c 128,-1,38
 431 571 431 571 431 552 c 128,-1,39
 431 533 431 533 411 524 c 128,-1,40
 391 515 391 515 347 502.5 c 128,-1,41
 303 490 303 490 268 470 c 1,42,43
 298 451 298 451 332 439.5 c 128,-1,44
 366 428 366 428 385.5 425 c 128,-1,45
 405 422 405 422 418.5 413 c 128,-1,46
 432 404 432 404 432 387 c 128,-1,47
 432 370 432 370 422.5 360 c 128,-1,48
 413 350 413 350 394.5 350 c 128,-1,49
 376 350 376 350 362 362.5 c 128,-1,50
 348 375 348 375 321.5 403.5 c 128,-1,51
 295 432 295 432 260 456 c 1,52,53
 260 399 260 399 274 354.5 c 128,-1,54
 288 310 288 310 288 299.5 c 128,-1,55
 288 289 288 289 276.5 277 c 128,-1,56
 265 265 265 265 250 265 c 128,-1,0
 235 265 235 265 224.5 276 c 128,-1,1
EndSplineSet
Validated: 1
EndChar

StartChar: plus
Encoding: 43 43 57
Width: 564
Flags: W
HStem: 0 21G<249 315> 220 66<30 249 315 534>
VStem: 249 66<0 220 286 506>
LayerCount: 3
Fore
SplineSet
249 286 m 1
 249 506 l 1
 315 506 l 1
 315 286 l 1
 534 286 l 1
 534 220 l 1
 315 220 l 1
 315 0 l 1
 249 0 l 1
 249 220 l 1
 30 220 l 1
 30 286 l 1
 249 286 l 1
EndSplineSet
Validated: 1
Layer: 2
SplineSet
249 286 m 1,0,-1
 249 506 l 1,1,-1
 315 506 l 1,2,-1
 315 286 l 1,3,-1
 534 286 l 1,4,-1
 534 220 l 1,5,-1
 315 220 l 1,6,-1
 315 0 l 1,7,-1
 249 0 l 1,8,-1
 249 220 l 1,9,-1
 30 220 l 1,10,-1
 30 286 l 1,11,-1
 249 286 l 1,0,-1
EndSplineSet
Validated: 1
EndChar

StartChar: comma
Encoding: 44 44 58
Width: 250
Flags: W
HStem: -2 104<67.5297 155.184>
VStem: 156 39<-55.7663 38>
LayerCount: 3
Fore
SplineSet
142 -2 m 0
 138 -2 132 -6 115 -6 c 0
 79 -6 56 13 56 45 c 0
 56 79 80 102 115 102 c 0
 160 102 195 63 195 13 c 0
 195 -47 150 -108 83 -141 c 1
 74 -122 l 1
 128 -85 156 -48 156 -16 c 0
 156 -8 150 -2 142 -2 c 0
EndSplineSet
Validated: 1
Layer: 2
SplineSet
142 -2 m 1,0,1
 125 -6 125 -6 106.5 -6 c 128,-1,2
 88 -6 88 -6 72 7.5 c 128,-1,3
 56 21 56 21 56 45.5 c 128,-1,4
 56 70 56 70 72.5 86 c 128,-1,5
 89 102 89 102 119 102 c 128,-1,6
 149 102 149 102 172 76.5 c 128,-1,7
 195 51 195 51 195 9.5 c 128,-1,8
 195 -32 195 -32 164 -74 c 128,-1,9
 133 -116 133 -116 83 -141 c 1,10,-1
 74 -122 l 1,11,12
 156 -66 156 -66 156 -16 c 0,13,14
 156 -2 156 -2 142 -2 c 1,0,1
EndSplineSet
Validated: 1
EndChar

StartChar: hyphen
Encoding: 45 45 59
Width: 333
Flags: W
HStem: 194 63<39 285>
VStem: 39 246<194 257>
LayerCount: 3
Fore
SplineSet
39 257 m 1
 285 257 l 1
 285 194 l 1
 39 194 l 1
 39 257 l 1
EndSplineSet
Validated: 1
Layer: 2
SplineSet
39 257 m 1,0,-1
 285 257 l 1,1,-1
 285 194 l 1,2,-1
 39 194 l 1,3,-1
 39 257 l 1,0,-1
EndSplineSet
Validated: 1
EndChar

StartChar: period
Encoding: 46 46 60
Width: 250
Flags: W
HStem: -11 111<82.6807 167.913>
VStem: 70 111<1.59692 87.6945>
LayerCount: 3
Fore
SplineSet
125 100 m 0
 155 100 181 74 181 43 c 0
 181 14 155 -11 124 -11 c 0
 95 -11 70 14 70 43 c 0
 70 74 95 100 125 100 c 0
EndSplineSet
Validated: 1
Layer: 2
SplineSet
86.5 83 m 128,-1,1
 103 100 103 100 125.5 100 c 128,-1,2
 148 100 148 100 164.5 83 c 128,-1,3
 181 66 181 66 181 43.5 c 128,-1,4
 181 21 181 21 164 5 c 128,-1,5
 147 -11 147 -11 124.5 -11 c 128,-1,6
 102 -11 102 -11 86 5 c 128,-1,7
 70 21 70 21 70 43.5 c 128,-1,0
 70 66 70 66 86.5 83 c 128,-1,1
EndSplineSet
Validated: 1
EndChar

StartChar: slash
Encoding: 47 47 61
Width: 296
Flags: W
HStem: -14 21G<0 74.6087> 656 20G<222.362 296>
VStem: 0 296
DStem2: 0 -14 68 -14 0.31499 0.949095<21.4193 727.008>
LayerCount: 3
Fore
SplineSet
296 676 m 5
 68 -14 l 5
 0 -14 l 5
 229 676 l 5
 296 676 l 5
EndSplineSet
Validated: 1
Layer: 2
SplineSet
296 676 m 5,0,-1
 68 -14 l 1,1,-1
 0 -14 l 1,2,-1
 229 676 l 1,3,-1
 296 676 l 5,0,-1
EndSplineSet
Validated: 1
EndChar

StartChar: uni2010
Encoding: 8208 8208 70
Width: 333
Flags: W
HStem: 194 63<39 285>
VStem: 39 246<194 257>
LayerCount: 3
Fore
SplineSet
39 257 m 1
 285 257 l 1
 285 194 l 1
 39 194 l 1
 39 257 l 1
EndSplineSet
Validated: 1
Layer: 2
SplineSet
39 257 m 1,0,-1
 285 257 l 1,1,-1
 285 194 l 1,2,-1
 39 194 l 1,3,-1
 39 257 l 1,0,-1
EndSplineSet
Validated: 1
EndChar

StartChar: uni2011
Encoding: 8209 8209 71
Width: 333
Flags: W
HStem: 194 63<39 285>
VStem: 39 246<194 257>
LayerCount: 3
Fore
SplineSet
39 257 m 1
 285 257 l 1
 285 194 l 1
 39 194 l 1
 39 257 l 1
EndSplineSet
Validated: 1
Layer: 2
SplineSet
39 257 m 1,0,-1
 285 257 l 1,1,-1
 285 194 l 1,2,-1
 39 194 l 1,3,-1
 39 257 l 1,0,-1
EndSplineSet
Validated: 1
EndChar

StartChar: endash
Encoding: 8211 8211 73
Width: 500
Flags: W
HStem: 194 63<0 500>
LayerCount: 3
Fore
SplineSet
0 257 m 1
 500 257 l 1
 500 194 l 1
 0 194 l 1
 0 257 l 1
EndSplineSet
Validated: 1
Layer: 2
SplineSet
0 257 m 1,0,-1
 500 257 l 1,1,-1
 500 194 l 1,2,-1
 0 194 l 1,3,-1
 0 257 l 1,0,-1
EndSplineSet
Validated: 1
EndChar

StartChar: emdash
Encoding: 8212 8212 74
Width: 1000
Flags: W
HStem: 194 63<0 1000>
LayerCount: 3
Fore
SplineSet
0 257 m 1
 1000 257 l 1
 1000 194 l 1
 0 194 l 1
 0 257 l 1
EndSplineSet
Validated: 1
Layer: 2
SplineSet
0 257 m 1,0,-1
 1000 257 l 1,1,-1
 1000 194 l 1,2,-1
 0 194 l 1,3,-1
 0 257 l 1,0,-1
EndSplineSet
Validated: 1
EndChar

StartChar: zero
Encoding: 48 48 76
Width: 500
Flags: W
HStem: -14 26<206.315 293.685> 650 26<207.662 294.79>
VStem: 24 96<178.035 489.425> 380 96<176.235 487.191>
LayerCount: 3
Fore
SplineSet
250 -14 m 0
 112 -14 24 134 24 336 c 0
 24 522 108 676 254 676 c 0
 385 676 476 535 476 330 c 0
 476 130 388 -14 250 -14 c 0
251 650 m 0
 165 650 120 539 120 327 c 0
 120 119 164 12 250 12 c 0
 336 12 380 119 380 328 c 0
 380 537 335 650 251 650 c 0
EndSplineSet
Validated: 1
Layer: 2
SplineSet
250 -14 m 128,-1,1
 148 -14 148 -14 86 84 c 128,-1,2
 24 182 24 182 24 331.5 c 128,-1,3
 24 481 24 481 86 578.5 c 128,-1,4
 148 676 148 676 250 676 c 128,-1,5
 352 676 352 676 414 580 c 128,-1,6
 476 484 476 484 476 331 c 128,-1,7
 476 178 476 178 414 82 c 128,-1,0
 352 -14 352 -14 250 -14 c 128,-1,1
251 650 m 0,8,9
 120 650 120 650 120 331 c 128,-1,10
 120 12 120 12 250 12 c 128,-1,11
 380 12 380 12 380 328 c 0,12,13
 380 485 380 485 347 567.5 c 128,-1,14
 314 650 314 650 251 650 c 0,8,9
EndSplineSet
Validated: 1
EndChar

StartChar: one
Encoding: 49 49 77
Width: 500
Flags: W
HStem: 0 15<118 175.492 327.46 394> 656 20G<251.44 299>
VStem: 213 86<30.3918 592.105>
LayerCount: 3
Fore
SplineSet
183 593 m 0
 168 593 150 587 111 571 c 1
 111 585 l 1
 291 676 l 1
 299 674 l 1
 299 74 l 2
 299 26 315 16 394 15 c 1
 394 0 l 1
 118 0 l 1
 118 15 l 1
 189 17 213 28 213 93 c 2
 213 546 l 2
 213 578 204 593 183 593 c 0
EndSplineSet
Validated: 1
Layer: 2
SplineSet
183 593 m 0,0,1
 165 593 165 593 111 571 c 1,2,-1
 111 585 l 1,3,-1
 291 676 l 1,4,-1
 299 674 l 1,5,-1
 299 74 l 2,6,7
 299 38 299 38 317 27 c 128,-1,8
 335 16 335 16 394 15 c 1,9,-1
 394 0 l 1,10,-1
 118 0 l 1,11,-1
 118 15 l 1,12,13
 174 17 174 17 193.5 31.5 c 128,-1,14
 213 46 213 46 213 93 c 2,15,-1
 213 546 l 2,16,17
 213 593 213 593 183 593 c 0,0,1
EndSplineSet
Validated: 1
EndChar

StartChar: two
Encoding: 50 50 78
Width: 500
Flags: W
HStem: 0 76<128 420> 602 74<145.449 276.259>
VStem: 31 21<475.333 493.776> 338 86<399.953 539.691>
DStem2: 30 12 128 76 0.685605 0.727974<113.78 392.075>
LayerCount: 3
Fore
SplineSet
31 477 m 1
 42 524 78 676 239 676 c 0
 343 676 424 599 424 499 c 0
 424 421 385 345 296 252 c 2
 128 76 l 1
 367 76 l 2
 412 76 425 85 462 142 c 1
 475 137 l 1
 420 0 l 1
 30 0 l 1
 30 12 l 1
 208 201 l 2
 292 290 338 383 338 461 c 0
 338 545 281 602 197 602 c 0
 128 602 92 570 52 472 c 1
 31 477 l 1
EndSplineSet
Validated: 1
Layer: 2
SplineSet
31 477 m 1,0,1
 36 500 36 500 41 517 c 128,-1,2
 46 534 46 534 62.5 566.5 c 128,-1,3
 79 599 79 599 99.5 620.5 c 128,-1,4
 120 642 120 642 156.5 659 c 128,-1,5
 193 676 193 676 239 676 c 0,6,7
 317 676 317 676 370.5 625 c 128,-1,8
 424 574 424 574 424 499 c 0,9,10
 424 386 424 386 296 252 c 2,11,-1
 128 76 l 1,12,-1
 367 76 l 2,13,14
 401 76 401 76 417.5 87.5 c 128,-1,15
 434 99 434 99 462 142 c 1,16,-1
 475 137 l 1,17,-1
 420 0 l 1,18,-1
 30 0 l 1,19,-1
 30 12 l 1,20,-1
 208 201 l 2,21,22
 338 339 338 339 338 461 c 0,23,24
 338 524 338 524 299 563 c 128,-1,25
 260 602 260 602 202.5 602 c 128,-1,26
 145 602 145 602 113.5 573.5 c 128,-1,27
 82 545 82 545 52 472 c 1,28,-1
 31 477 l 1,0,1
EndSplineSet
Validated: 1
EndChar

StartChar: three
Encoding: 51 51 79
Width: 500
Flags: W
HStem: -14 36<121 266.542> 330 13<153 169.332> 616 60<150.683 278.881>
VStem: 319 79<466.86 574.859> 360 72<122.197 253.069>
LayerCount: 3
Fore
SplineSet
81 78 m 0xe8
 130 78 165 22 229 22 c 0
 303 22 360 87 360 171 c 0xe8
 360 308 238 330 153 330 c 1
 153 343 l 1
 228 369 319 409 319 509 c 0
 319 572 274 616 209 616 c 0
 146 616 101 583 60 510 c 1
 45 514 l 1
 72 589 120 676 242 676 c 0
 334 676 398 620 398 539 c 0xf0
 398 485 373 448 304 401 c 1
 371 372 432 328 432 219 c 0
 432 75 311 -14 156 -14 c 0
 86 -14 43 8 43 43 c 0
 43 64 58 78 81 78 c 0xe8
EndSplineSet
Validated: 1
Layer: 2
SplineSet
53.5 68.5 m 128,-1,1
 64 78 64 78 84 78 c 128,-1,2
 104 78 104 78 149.5 50 c 128,-1,3
 195 22 195 22 229 22 c 0,4,5
 284 22 284 22 322 65 c 128,-1,6
 360 108 360 108 360 171 c 0,7,8
 360 210 360 210 346.5 240 c 128,-1,9
 333 270 333 270 312 286.5 c 128,-1,10
 291 303 291 303 262 314 c 0,11,12
 216 330 216 330 153 330 c 1,13,-1
 153 343 l 1,14,15
 274 386 274 386 304 445 c 0,16,17
 319 473 319 473 319 514.5 c 128,-1,18
 319 556 319 556 288.5 586 c 128,-1,19
 258 616 258 616 210 616 c 128,-1,20
 162 616 162 616 126.5 590.5 c 128,-1,21
 91 565 91 565 60 510 c 1,22,-1
 45 514 l 1,23,24
 71 585 71 585 115.5 630.5 c 128,-1,25
 160 676 160 676 235.5 676 c 128,-1,26
 311 676 311 676 354.5 638 c 128,-1,27
 398 600 398 600 398 539 c 0,28,29
 398 498 398 498 377 467 c 128,-1,30
 356 436 356 436 304 401 c 1,31,32
 364 375 364 375 398 334.5 c 128,-1,33
 432 294 432 294 432 219 c 0,34,35
 432 113 432 113 353.5 49.5 c 128,-1,36
 275 -14 275 -14 156 -14 c 0,37,38
 104 -14 104 -14 73.5 1.5 c 128,-1,39
 43 17 43 17 43 43 c 0,40,0
 43 59 43 59 53.5 68.5 c 128,-1,1
EndSplineSet
Validated: 1
EndChar

StartChar: four
Encoding: 52 52 80
Width: 500
Flags: W
HStem: 0 21G<293 370> 167 64<52 292 370 472> 656 20G<311.888 370>
VStem: 292 78<0 167 231 574>
DStem2: 12 231 52 231 0.576539 0.81707<23.0616 441.686>
LayerCount: 3
Fore
SplineSet
472 231 m 1
 472 167 l 1
 370 167 l 1
 370 0 l 1
 293 0 l 1
 293 167 l 1
 12 167 l 1
 12 231 l 1
 326 676 l 1
 370 676 l 1
 370 231 l 1
 472 231 l 1
292 231 m 1
 292 574 l 1
 52 231 l 1
 292 231 l 1
EndSplineSet
Validated: 1
Layer: 2
SplineSet
472 231 m 1,0,-1
 472 167 l 1,1,-1
 370 167 l 1,2,-1
 370 0 l 1,3,-1
 293 0 l 1,4,-1
 293 167 l 1,5,-1
 12 167 l 1,6,-1
 12 231 l 1,7,-1
 326 676 l 1,8,-1
 370 676 l 1,9,-1
 370 231 l 1,10,-1
 472 231 l 1,0,-1
292 231 m 1,11,-1
 292 574 l 1,12,-1
 52 231 l 1,13,-1
 292 231 l 1,11,-1
EndSplineSet
Validated: 1
EndChar

StartChar: five
Encoding: 53 53 81
Width: 500
Flags: W
HStem: -14 37<116.5 263.673> 583 79<181 404.906>
VStem: 357 70<129.577 283.38>
DStem2: 65 425 139 498 0.417842 0.90852<97.2423 192.016>
LayerCount: 3
Fore
SplineSet
357 194 m 0
 357 380 138 412 76 412 c 0
 68 412 64 415 64 420 c 0
 64 422 64 423 65 425 c 2
 174 662 l 1
 383 662 l 2
 404 662 414 667 429 688 c 1
 438 681 l 1
 400 592 l 2
 397 585 393 583 377 583 c 2
 181 583 l 1
 139 498 l 1
 325 465 427 398 427 242 c 0
 427 37 260 -14 154 -14 c 0
 79 -14 32 10 32 48 c 0
 32 73 46 85 75 85 c 0
 131 85 165 23 218 23 c 0
 296 23 357 98 357 194 c 0
EndSplineSet
Validated: 1
Layer: 2
SplineSet
317 72.5 m 128,-1,1
 357 122 357 122 357 184.5 c 128,-1,2
 357 247 357 247 333.5 288 c 128,-1,3
 310 329 310 329 276.5 351.5 c 128,-1,4
 243 374 243 374 202 388 c 0,5,6
 134 412 134 412 76 412 c 0,7,8
 64 412 64 412 64 420 c 0,9,10
 64 423 64 423 65 425 c 2,11,-1
 174 662 l 1,12,-1
 383 662 l 2,13,14
 399 662 399 662 408.5 667 c 128,-1,15
 418 672 418 672 429 688 c 1,16,-1
 438 681 l 1,17,-1
 400 592 l 2,18,19
 396 583 396 583 377 583 c 2,20,-1
 181 583 l 1,21,-1
 139 498 l 1,22,23
 285 472 285 472 356 413.5 c 128,-1,24
 427 355 427 355 427 242 c 0,25,26
 427 183 427 183 408.5 137 c 128,-1,27
 390 91 390 91 361.5 63 c 128,-1,28
 333 35 333 35 296 17 c 0,29,30
 231 -14 231 -14 164.5 -14 c 128,-1,31
 98 -14 98 -14 65 2.5 c 128,-1,32
 32 19 32 19 32 48 c 0,33,34
 32 85 32 85 75 85 c 0,35,36
 103 85 103 85 147.5 54 c 128,-1,37
 192 23 192 23 218 23 c 0,38,0
 277 23 277 23 317 72.5 c 128,-1,1
EndSplineSet
Validated: 1
EndChar

StartChar: six
Encoding: 54 54 82
Width: 500
Flags: W
HStem: -14 28<216.005 318.198> 382 46<193.693 311.431> 668 16<413.559 446.875>
VStem: 34 93<143.868 349.301> 378 90<108.382 303.96>
LayerCount: 3
Fore
SplineSet
258 -14 m 0
 124 -14 34 103 34 279 c 0
 34 395.961 90.7127 652.834 446 684 c 1
 448 668 l 1
 291 642 179 534 152 383 c 1
 215 421 236 428 280 428 c 0
 395 428 468 347 468 219 c 0
 468 81 382 -14 258 -14 c 0
242 382 m 0
 144 382 127 333 127 263 c 0
 127 108 181 14 269 14 c 0
 339 14 378 75 378 185 c 0
 378 310 328 382 242 382 c 0
EndSplineSet
Validated: 1
Layer: 2
SplineSet
409.5 51 m 128,-1,1
 351 -14 351 -14 254 -14 c 128,-1,2
 157 -14 157 -14 95.5 66.5 c 128,-1,3
 34 147 34 147 34 279 c 0,4,5
 34 374 34 374 77 462 c 0,6,7
 104 518 104 518 147 562 c 128,-1,8
 190 606 190 606 267.5 640.5 c 128,-1,9
 345 675 345 675 446 684 c 1,10,-1
 448 668 l 1,11,12
 330 649 330 649 251 572.5 c 128,-1,13
 172 496 172 496 152 383 c 1,14,15
 199 411 199 411 223 419.5 c 128,-1,16
 247 428 247 428 280 428 c 0,17,18
 366 428 366 428 417 371.5 c 128,-1,19
 468 315 468 315 468 215.5 c 128,-1,0
 468 116 468 116 409.5 51 c 128,-1,1
342.5 330.5 m 128,-1,21
 307 382 307 382 240.5 382 c 128,-1,22
 174 382 174 382 150.5 352 c 128,-1,23
 127 322 127 322 127 263 c 0,24,25
 127 147 127 147 165 80.5 c 128,-1,26
 203 14 203 14 269 14 c 0,27,28
 322 14 322 14 350 58.5 c 128,-1,29
 378 103 378 103 378 191 c 128,-1,20
 378 279 378 279 342.5 330.5 c 128,-1,21
EndSplineSet
Validated: 1
EndChar

StartChar: seven
Encoding: 55 55 83
Width: 500
Flags: W
HStem: -8 21G<172 243.483> 588 74<82.7287 370>
VStem: 172 65<-8 57>
LayerCount: 3
Fore
SplineSet
449 662 m 1
 449 646 l 1
 237 -8 l 1
 172 -8 l 1
 370 588 l 1
 153 588 l 2
 98 588 80 575 37 507 c 1
 20 515 l 1
 79 662 l 1
 449 662 l 1
EndSplineSet
Validated: 1
Layer: 2
SplineSet
449 662 m 1,0,-1
 449 646 l 1,1,-1
 237 -8 l 1,2,-1
 172 -8 l 1,3,-1
 370 588 l 1,4,-1
 153 588 l 2,5,6
 112 588 112 588 90.5 573 c 128,-1,7
 69 558 69 558 37 507 c 1,8,-1
 20 515 l 1,9,-1
 79 662 l 1,10,-1
 449 662 l 1,0,-1
EndSplineSet
Validated: 1
EndChar

StartChar: eight
Encoding: 56 56 84
Width: 500
Flags: W
HStem: -14 28<201.928 315.579> 648 28<187.998 301.542>
VStem: 56 76<72.674 231.964 486.907 581.558> 355 69<458.651 605.856> 369 76<69.9236 196.01>
LayerCount: 3
Fore
SplineSet
290 371 m 1xf0
 411 281 445 232 445 155 c 0xe8
 445 52 368 -14 248 -14 c 0
 135 -14 56 54 56 151 c 0
 56 219 78 250 186 332 c 1
 81 424 62 453 62 518 c 0
 62 609 143 676 252 676 c 0
 352 676 424 616 424 534 c 0
 424 466 389 424 290 371 c 1xf0
212 312 m 1
 154 265 132 223 132 159 c 0
 132 72 183 14 259 14 c 0
 324 14 369 59 369 124 c 0
 369 208.294 309.317 240.635 212 312 c 1
261 389 m 1
 289 410 355 447 355 535 c 0xf0
 355 604 312 648 244 648 c 0
 181 648 136 607 136 549 c 0
 136 493 172 447 261 389 c 1
EndSplineSet
Validated: 1
Layer: 2
SplineSet
290 371 m 1,0,1
 380 304 380 304 412.5 258.5 c 128,-1,2
 445 213 445 213 445 155 c 0,3,4
 445 78 445 78 391.5 32 c 128,-1,5
 338 -14 338 -14 250.5 -14 c 128,-1,6
 163 -14 163 -14 109.5 32 c 128,-1,7
 56 78 56 78 56 151 c 0,8,9
 56 202 56 202 80.5 236.5 c 128,-1,10
 105 271 105 271 186 332 c 1,11,12
 107 401 107 401 84.5 435 c 128,-1,13
 62 469 62 469 62 518 c 0,14,15
 62 586 62 586 116 631 c 128,-1,16
 170 676 170 676 248.5 676 c 128,-1,17
 327 676 327 676 375.5 636 c 128,-1,18
 424 596 424 596 424 539.5 c 128,-1,19
 424 483 424 483 394 447 c 128,-1,20
 364 411 364 411 290 371 c 1,0,1
212 312 m 1,21,22
 168 277 168 277 150 242 c 128,-1,23
 132 207 132 207 132 150.5 c 128,-1,24
 132 94 132 94 167 54 c 128,-1,25
 202 14 202 14 255 14 c 128,-1,26
 308 14 308 14 338.5 44.5 c 128,-1,27
 369 75 369 75 369 123 c 0,28,29
 369 172 369 172 342 205 c 0,30,31
 316 238 316 238 289 257 c 128,-1,32
 262 276 262 276 212 312 c 1,21,22
261 389 m 1,33,34
 261 389 261 389 274 398 c 0,35,36
 283 404 283 404 305 424 c 0,37,38
 324 441 324 441 340 469 c 0,39,40
 355 497 355 497 355 542 c 128,-1,41
 355 587 355 587 325 617.5 c 128,-1,42
 295 648 295 648 246 648 c 128,-1,43
 197 648 197 648 166.5 620 c 128,-1,44
 136 592 136 592 136 549.5 c 128,-1,45
 136 507 136 507 165 470 c 128,-1,46
 194 433 194 433 261 389 c 1,33,34
EndSplineSet
Validated: 1
EndChar

StartChar: nine
Encoding: 57 57 85
Width: 500
Flags: W
HStem: -22 20<57.95 91.2809> 237 43<184.464 304.28> 648 28<183.476 279.981>
VStem: 30 92<356.674 548.319> 362 97<311.018 520.293>
LayerCount: 3
Fore
SplineSet
59 -22 m 1
 56 -2 l 1
 208 24 319 131 360 294 c 1
 307 253 265 237 210 237 c 0
 102 237 30 318 30 440 c 0
 30 575 119 676 238 676 c 0
 367 676 459 559 459 394 c 0
 459 283.491 412.861 19.0732 59 -22 c 1
246 280 m 0
 274 280 362 295 362 355 c 2
 362 394 l 2
 362 562 317 648 230 648 c 0
 144 648 122 548 122 474 c 0
 122 355 170 280 246 280 c 0
EndSplineSet
Validated: 1
Layer: 2
SplineSet
59 -22 m 1,0,-1
 56 -2 l 1,1,2
 170 18 170 18 249.5 95 c 128,-1,3
 329 172 329 172 360 294 c 1,4,5
 286 237 286 237 207.5 237 c 128,-1,6
 129 237 129 237 79.5 293 c 128,-1,7
 30 349 30 349 30 445 c 128,-1,8
 30 541 30 541 89.5 608.5 c 128,-1,9
 149 676 149 676 242 676 c 128,-1,10
 335 676 335 676 397 597 c 128,-1,11
 459 518 459 518 459 394 c 0,12,13
 459 354 459 354 452 312 c 128,-1,14
 445 270 445 270 419.5 212.5 c 128,-1,15
 394 155 394 155 353 109.5 c 128,-1,16
 312 64 312 64 236 27 c 128,-1,17
 160 -10 160 -10 59 -22 c 1,0,-1
338 310 m 0,18,19
 362 328 362 328 362 355 c 2,20,-1
 362 394 l 2,21,22
 362 648 362 648 230 648 c 0,23,24
 198 648 198 648 177 632 c 0,25,26
 122 590 122 590 122 461 c 0,27,28
 122 385 122 385 155.5 332.5 c 128,-1,29
 189 280 189 280 243.5 280 c 128,-1,30
 298 280 298 280 338 310 c 0,18,19
EndSplineSet
Validated: 1
EndChar

StartChar: less
Encoding: 60 60 88
Width: 564
Flags: W
HStem: -10 21G<491.826 536>
VStem: 28 88<176 330>
DStem2: 28 286 116 253 0.91098 0.412451<66.5553 527.945> 116 253 28 220 0.91098 -0.412451<0 461.39>
LayerCount: 3
Fore
SplineSet
536 -10 m 1
 28 220 l 1
 28 286 l 1
 536 516 l 1
 536 444 l 1
 116 253 l 1
 536 62 l 1
 536 -10 l 1
EndSplineSet
Validated: 1
Layer: 2
SplineSet
536 -10 m 1,0,-1
 28 220 l 1,1,-1
 28 286 l 1,2,-1
 536 516 l 1,3,-1
 536 444 l 1,4,-1
 116 253 l 1,5,-1
 536 62 l 1,6,-1
 536 -10 l 1,0,-1
EndSplineSet
Validated: 1
EndChar

StartChar: equal
Encoding: 61 61 89
Width: 564
Flags: W
HStem: 120 66<30 534> 320 66<30 534>
LayerCount: 3
Fore
SplineSet
534 386 m 1
 534 320 l 1
 30 320 l 1
 30 386 l 1
 534 386 l 1
534 186 m 1
 534 120 l 1
 30 120 l 1
 30 186 l 1
 534 186 l 1
EndSplineSet
Validated: 1
Layer: 2
SplineSet
534 386 m 1,0,-1
 534 320 l 1,1,-1
 30 320 l 1,2,-1
 30 386 l 1,3,-1
 534 386 l 1,0,-1
534 186 m 1,4,-1
 534 120 l 1,5,-1
 30 120 l 1,6,-1
 30 186 l 1,7,-1
 534 186 l 1,4,-1
EndSplineSet
Validated: 1
EndChar

StartChar: question
Encoding: 63 63 91
Width: 444
Flags: W
HStem: -8 107<195.079 279.228> 646 30<157.739 265.696>
VStem: 68 51<511 605.141> 184 107<1.95392 87.1533> 227 17<164 202.659> 322 92<435.738 597.346>
LayerCount: 3
Fore
SplineSet
230 676 m 4xec
 327 676 414 618 414 521 c 4
 414 445 365 386 309 318 c 4
 272 271 255 231 244 164 c 5
 227 164 l 5
 229.027 253.207 252.245 295.132 285 370 c 4
 309 425 322 480 322 526 c 4
 322 593 274 646 214 646 c 4
 165 646 119 616 119 584 c 4
 119 563 157 541 157 510 c 4
 157 486 140 469 116 469 c 4
 85 469 68 491 68 531 c 4
 68 614 138 676 230 676 c 4xec
237 99 m 4
 266 99 291 74 291 44 c 4
 291 14 268 -8 236 -8 c 4
 206 -8 184 14 184 43 c 4xf4
 184 75 207 99 237 99 c 4
EndSplineSet
Validated: 1
Layer: 2
SplineSet
114.5 634.5 m 128,-1,1
 161 676 161 676 233.5 676 c 128,-1,2
 306 676 306 676 360 633.5 c 128,-1,3
 414 591 414 591 414 521 c 0,4,5
 414 485 414 485 397 447.5 c 128,-1,6
 380 410 380 410 363 386.5 c 128,-1,7
 346 363 346 363 309 318 c 1,8,9
 259 254 259 254 244 164 c 1,10,-1
 227 164 l 1,11,12
 227 202 227 202 232.5 225.5 c 128,-1,13
 238 249 238 249 240 258 c 128,-1,14
 242 267 242 267 249.5 286.5 c 128,-1,15
 257 306 257 306 259 311.5 c 128,-1,16
 261 317 261 317 272 340 c 0,17,18
 322 447 322 447 322 526 c 0,19,20
 322 576 322 576 290.5 611 c 128,-1,21
 259 646 259 646 218 646 c 128,-1,22
 177 646 177 646 148 627 c 128,-1,23
 119 608 119 608 119 584 c 0,24,25
 119 575 119 575 138 551 c 128,-1,26
 157 527 157 527 157 509.5 c 128,-1,27
 157 492 157 492 145.5 480.5 c 128,-1,28
 134 469 134 469 116 469 c 0,29,30
 68 469 68 469 68 531 c 128,-1,0
 68 593 68 593 114.5 634.5 c 128,-1,1
199 83 m 128,-1,32
 214 99 214 99 236.5 99 c 128,-1,33
 259 99 259 99 275 82.5 c 128,-1,34
 291 66 291 66 291 43.5 c 128,-1,35
 291 21 291 21 275.5 6.5 c 128,-1,36
 260 -8 260 -8 237 -8 c 128,-1,37
 214 -8 214 -8 199 6.5 c 128,-1,38
 184 21 184 21 184 44 c 128,-1,31
 184 67 184 67 199 83 c 128,-1,32
EndSplineSet
Validated: 1
EndChar

StartChar: at
Encoding: 64 64 92
Width: 865
Flags: W
HStem: -14 39<355.587 575.12> 143 33<577.496 656.178> 144 43<354.5 447.114> 464 44<445.386 534.12> 645 31<365.117 542.811>
VStem: 86 84<208.627 446.871> 291 71<204.038 362.04> 739 40<279.675 468.672>
LayerCount: 3
Fore
SplineSet
452 645 m 0xdf
 280 645 170 497 170 323 c 0
 170 149 292 25 462 25 c 0
 529 25 580 38 658 73 c 1
 670 43 l 1
 573 -1 523 -14 453 -14 c 0
 246 -14 86 134 86 326 c 0
 86 521 248 676 451 676 c 0
 636 676 779 548 779 383 c 0
 779 254 694 143 595 143 c 0xdf
 547 143 510 172 504 216 c 1
 470 171 423 144 379 144 c 0xbf
 330 144 291 193 291 256 c 0
 291 366 369 508 487 508 c 0
 522 508 537 497 559 456 c 1
 569 494 l 1
 638 494 l 1
 573 240 l 2
 572 234 571 229 571 222 c 0
 571 191 584 176 610 176 c 0
 676 176 739 273 739 373 c 0
 739 522 609 645 452 645 c 0xdf
542 406 m 0
 542 452 517 464 498 464 c 0
 452 464 362 391 362 272 c 0
 362 220 385 187 422 187 c 0xbf
 491 187 542 325 542 406 c 0
EndSplineSet
Validated: 1
Layer: 2
SplineSet
654.5 565 m 128,-1,1
 570 645 570 645 448 645 c 128,-1,2
 326 645 326 645 248 551.5 c 128,-1,3
 170 458 170 458 170 325.5 c 128,-1,4
 170 193 170 193 252 109 c 128,-1,5
 334 25 334 25 462 25 c 0,6,7
 551 25 551 25 658 73 c 1,8,-1
 670 43 l 1,9,10
 597 10 597 10 551.5 -2 c 128,-1,11
 506 -14 506 -14 453 -14 c 0,12,13
 298 -14 298 -14 192 84 c 128,-1,14
 86 182 86 182 86 327 c 128,-1,15
 86 472 86 472 192.5 574 c 128,-1,16
 299 676 299 676 444.5 676 c 128,-1,17
 590 676 590 676 684.5 591.5 c 128,-1,18
 779 507 779 507 779 383 c 0,19,20
 779 286 779 286 724 214.5 c 128,-1,21
 669 143 669 143 595 143 c 0,22,23
 559 143 559 143 533.5 163 c 128,-1,24
 508 183 508 183 504 216 c 1,25,26
 450 144 450 144 379 144 c 0,27,28
 342 144 342 144 316.5 176.5 c 128,-1,29
 291 209 291 209 291 256 c 0,30,31
 291 346 291 346 347.5 427 c 128,-1,32
 404 508 404 508 487 508 c 0,33,34
 513 508 513 508 527.5 497.5 c 128,-1,35
 542 487 542 487 559 456 c 1,36,-1
 569 494 l 1,37,-1
 638 494 l 1,38,-1
 573 240 l 1,39,40
 571 228 571 228 571 222 c 0,41,42
 571 176 571 176 610 176 c 0,43,44
 659 176 659 176 699 237 c 128,-1,45
 739 298 739 298 739 373 c 0,46,0
 739 485 739 485 654.5 565 c 128,-1,1
542 406 m 0,47,48
 542 437 542 437 529 450.5 c 128,-1,49
 516 464 516 464 498 464 c 0,50,51
 457 464 457 464 409.5 408.5 c 128,-1,52
 362 353 362 353 362 272 c 0,53,54
 362 233 362 233 378 210 c 128,-1,55
 394 187 394 187 422 187 c 0,56,57
 470 187 470 187 506 262 c 128,-1,58
 542 337 542 337 542 406 c 0,47,48
EndSplineSet
Validated: 1
EndChar

StartChar: A
Encoding: 65 65 93
Width: 721
Flags: W
HStem: 0 19<15 52.5415 162.049 213 451 507.837 666.414 706> 216 41<216 447> 654 20G<338.527 375.768>
DStem2: 139 183 153 99 0.390068 0.920786<-110.396 53.79 98.1734 396.247> 367 674 331 532 0.401495 -0.915861<115.598 414.034 506.233 629.969>
LayerCount: 3
Fore
SplineSet
706 19 m 1
 706 0 l 1
 451 0 l 1
 451 19 l 1
 504 20 521 28 521 53 c 0
 521 67 514 93 502 120 c 2
 461 216 l 1
 199 216 l 1
 153 99 l 2
 148 86 145 72 145 60 c 0
 145 32 165 19 213 19 c 1
 213 0 l 1
 15 0 l 1
 15 19 l 1
 63 21 77 36 139 183 c 2
 347 674 l 1
 367 674 l 1
 616 106 l 2
 648.866 31.0283 661 22 706 19 c 1
216 257 m 1
 447 257 l 1
 331 532 l 1
 216 257 l 1
EndSplineSet
Validated: 1
Layer: 2
SplineSet
706 19 m 1,0,-1
 706 0 l 1,1,-1
 451 0 l 1,2,-1
 451 19 l 1,3,4
 491 20 491 20 506 27 c 128,-1,5
 521 34 521 34 521 55.5 c 128,-1,6
 521 77 521 77 502 120 c 2,7,-1
 461 216 l 1,8,-1
 199 216 l 1,9,-1
 153 99 l 2,10,11
 145 78 145 78 145 60 c 0,12,13
 145 19 145 19 213 19 c 1,14,-1
 213 0 l 1,15,-1
 15 0 l 1,16,-1
 15 19 l 1,17,18
 52 21 52 21 72.5 47.5 c 128,-1,19
 93 74 93 74 139 183 c 2,20,-1
 347 674 l 1,21,-1
 367 674 l 1,22,-1
 616 106 l 2,23,24
 640 51 640 51 656 36 c 128,-1,25
 672 21 672 21 706 19 c 1,0,-1
216 257 m 1,26,-1
 447 257 l 1,27,-1
 331 532 l 1,28,-1
 216 257 l 1,26,-1
EndSplineSet
Validated: 1
EndChar

StartChar: B
Encoding: 66 66 94
Width: 631
Flags: W
HStem: 0 37<217.251 398.861> 0 19<15 80.0084> 326 40<213 390.03> 625 37<214.015 376.733> 643 19<15 76.5513>
VStem: 111 102<42.6316 326 366 623.875> 455 102<415.383 565.388> 476 115<99.5121 258.795>
LayerCount: 3
Fore
SplineSet
591 180 m 0x35
 591 108 543 0 349 0 c 2xb5
 15 0 l 1
 15 19 l 1
 98 22 111 35 111 109 c 2
 111 553 l 2
 111 627 99 638 15 643 c 1
 15 662 l 1x6d
 295 662 l 2
 468 662 557 604 557 492 c 0x36
 557 377 455 357 420 348 c 1
 460 338 591 310 591 180 c 0x35
276 37 m 0
 385 37 476 61 476 179 c 0
 476 320.845 346.798 326 213 326 c 1
 213 78 l 2
 213 46 227 37 276 37 c 0
213 366 m 1
 308 366 l 2
 402 366 455 410 455 488 c 0x36
 455 577 394 625 279 625 c 2
 235 625 l 2
 220 625 213 616 213 595 c 2
 213 366 l 1
EndSplineSet
Validated: 1
Layer: 2
SplineSet
576 246.5 m 128,-1,1
 591 217 591 217 591 183.5 c 128,-1,2
 591 150 591 150 580 121 c 128,-1,3
 569 92 569 92 543.5 63.5 c 128,-1,4
 518 35 518 35 468 17.5 c 128,-1,5
 418 0 418 0 349 0 c 2,6,-1
 15 0 l 1,7,-1
 15 19 l 1,8,9
 77 21 77 21 94 37 c 128,-1,10
 111 53 111 53 111 109 c 2,11,-1
 111 553 l 2,12,13
 111 608 111 608 94.5 623.5 c 128,-1,14
 78 639 78 639 15 643 c 1,15,-1
 15 662 l 1,16,-1
 295 662 l 2,17,18
 557 662 557 662 557 492 c 0,19,20
 557 459 557 459 545 433.5 c 128,-1,21
 533 408 533 408 520.5 394.5 c 128,-1,22
 508 381 508 381 482 369 c 128,-1,23
 456 357 456 357 449 355.5 c 128,-1,24
 442 354 442 354 420 348 c 1,25,-1
 454 339 l 2,26,27
 466 336 466 336 496.5 322 c 128,-1,28
 527 308 527 308 544 292 c 128,-1,0
 561 276 561 276 576 246.5 c 128,-1,1
226 45.5 m 128,-1,30
 239 37 239 37 280 37 c 0,31,32
 363 37 363 37 420 65 c 0,33,34
 476 94 476 94 476 179 c 0,35,36
 476 220 476 220 460.5 248.5 c 128,-1,37
 445 277 445 277 423 292 c 0,38,39
 373 326 373 326 213 326 c 1,40,-1
 213 78 l 2,41,29
 213 54 213 54 226 45.5 c 128,-1,30
213 366 m 1,42,-1
 308 366 l 2,43,44
 378 366 378 366 416.5 397.5 c 128,-1,45
 455 429 455 429 455 492 c 128,-1,46
 455 555 455 555 410 590 c 128,-1,47
 365 625 365 625 279 625 c 2,48,-1
 235 625 l 2,49,50
 213 625 213 625 213 595 c 2,51,-1
 213 366 l 1,42,-1
EndSplineSet
Validated: 1
EndChar

StartChar: C
Encoding: 67 67 95
Width: 670
Flags: W
HStem: -14 44<296.776 492.499> 450 21G<590 627> 636 40<294.935 481.812>
VStem: 35 116<193.989 453.295> 597 21<656.986 676> 604 23<450 480.914>
LayerCount: 3
Fore
SplineSet
35 325 m 0xf4
 35 536 183 676 370 676 c 0
 479 676 519 643 555 643 c 0
 575 643 591 655 597 676 c 1
 618 676 l 1xf8
 627 450 l 1
 604 450 l 1
 576 545 518 636 389 636 c 0
 244 636 151 519 151 338 c 0
 151 94 287 30 399 30 c 0
 482 30 548 60 622 131 c 1
 640 113 l 1
 579 32 480 -14 367 -14 c 0
 171 -14 35 120 35 325 c 0xf4
EndSplineSet
Validated: 1
Layer: 2
SplineSet
127 79 m 128,-1,1
 35 172 35 172 35 326.5 c 128,-1,2
 35 481 35 481 131 578.5 c 128,-1,3
 227 676 227 676 370 676 c 0,4,5
 434 676 434 676 490 659.5 c 128,-1,6
 546 643 546 643 555 643 c 0,7,8
 588 643 588 643 597 676 c 1,9,-1
 618 676 l 1,10,-1
 627 450 l 1,11,-1
 604 450 l 1,12,13
 549 636 549 636 389 636 c 0,14,15
 280 636 280 636 215.5 555 c 128,-1,16
 151 474 151 474 151 338 c 0,17,18
 151 251 151 251 173.5 187.5 c 128,-1,19
 196 124 196 124 234 92 c 0,20,21
 306 30 306 30 399 30 c 0,22,23
 517 30 517 30 622 131 c 1,24,-1
 640 113 l 1,25,26
 594 52 594 52 523 19 c 128,-1,27
 452 -14 452 -14 367 -14 c 0,28,0
 219 -14 219 -14 127 79 c 128,-1,1
EndSplineSet
Validated: 1
EndChar

StartChar: D
Encoding: 68 68 96
Width: 719
Flags: W
HStem: 0 37<208.591 391.974> 0 19<15 70.9777> 625 37<208.033 380.667> 643 19<15 70.4163>
VStem: 103 102<41.3888 621.94> 575 109<210.722 451.324>
LayerCount: 3
Fore
SplineSet
684 334 m 0x2c
 684 196 607 0 299 0 c 2xac
 15 0 l 1
 15 19 l 1
 91 24 103 37 103 109 c 2
 103 553 l 2
 103 627 94 636 15 643 c 1
 15 662 l 1x5c
 285 662 l 2
 602 662 684 479 684 334 c 0x2c
575 327 m 0
 575 461 511 625 257 625 c 0
 216 625 205 617 205 586 c 2
 205 78 l 2
 205 46 217 37 257 37 c 0
 445 37 575 110 575 327 c 0
EndSplineSet
Validated: 1
Layer: 2
SplineSet
673.5 424 m 128,-1,1
 684 381 684 381 684 335 c 128,-1,2
 684 289 684 289 674 246 c 128,-1,3
 664 203 664 203 637 157 c 128,-1,4
 610 111 610 111 568 77.5 c 128,-1,5
 526 44 526 44 456.5 22 c 128,-1,6
 387 0 387 0 299 0 c 2,7,-1
 15 0 l 1,8,-1
 15 19 l 1,9,10
 72 23 72 23 87.5 39 c 128,-1,11
 103 55 103 55 103 109 c 2,12,-1
 103 553 l 2,13,14
 103 608 103 608 88.5 623 c 128,-1,15
 74 638 74 638 15 643 c 1,16,-1
 15 662 l 1,17,-1
 285 662 l 2,18,19
 376 662 376 662 447.5 641.5 c 128,-1,20
 519 621 519 621 562.5 588.5 c 128,-1,21
 606 556 606 556 634.5 511.5 c 128,-1,0
 663 467 663 467 673.5 424 c 128,-1,1
575 327 m 0,22,23
 575 418 575 418 536 490 c 0,24,25
 491 573 491 573 387 606 c 0,26,27
 330 625 330 625 278 625 c 128,-1,28
 226 625 226 625 215.5 617 c 128,-1,29
 205 609 205 609 205 586 c 2,30,-1
 205 78 l 2,31,32
 205 54 205 54 216 45.5 c 128,-1,33
 227 37 227 37 257 37 c 0,34,35
 575 37 575 37 575 327 c 0,22,23
EndSplineSet
Validated: 1
EndChar

StartChar: E
Encoding: 69 69 97
Width: 610
Flags: W
HStem: 0 37<207.53 471.625> 0 19<15 67.5256> 327 41<204 440.315> 624 38<205.018 484> 643 19<15 67.9688>
VStem: 102 102<42.2158 327 368 623.195> 468 23<231 281.016 413.792 463> 524 25<519 565.063>
LayerCount: 3
Fore
SplineSet
204 80 m 2x37
 204 42 211 37 309 37 c 2
 336 37 l 2xb7
 479 37 522 61 572 169 c 1
 600 169 l 1
 555 0 l 1
 15 0 l 1
 15 19 l 1
 88 24 102 39 102 109 c 2
 102 553 l 2
 102 623 89 637 15 643 c 1
 15 662 l 1
 546 662 l 1x6f
 549 519 l 1
 524 519 l 1
 507 609 485 624 372 624 c 2
 237 624 l 2
 210 624 204 618 204 590 c 2
 204 368 l 1
 358 368 l 2
 451 368 457 397 468 463 c 1
 491 463 l 1
 491 231 l 1
 468 231 l 1
 455 314 440 327 358 327 c 2
 204 327 l 1
 204 80 l 2x37
EndSplineSet
Validated: 1
Layer: 2
SplineSet
204 80 m 2,0,1
 204 51 204 51 220.5 44 c 128,-1,2
 237 37 237 37 309 37 c 2,3,-1
 336 37 l 2,4,5
 443 37 443 37 489 62.5 c 128,-1,6
 535 88 535 88 572 169 c 1,7,-1
 600 169 l 1,8,-1
 555 0 l 1,9,-1
 15 0 l 1,10,-1
 15 19 l 1,11,12
 70 23 70 23 86 39.5 c 128,-1,13
 102 56 102 56 102 109 c 2,14,-1
 102 553 l 2,15,16
 102 606 102 606 86 622.5 c 128,-1,17
 70 639 70 639 15 643 c 1,18,-1
 15 662 l 1,19,-1
 546 662 l 1,20,-1
 549 519 l 1,21,-1
 524 519 l 1,22,23
 511 586 511 586 484 605 c 128,-1,24
 457 624 457 624 372 624 c 2,25,-1
 237 624 l 2,26,27
 217 624 217 624 210.5 617.5 c 128,-1,28
 204 611 204 611 204 590 c 2,29,-1
 204 368 l 1,30,-1
 358 368 l 2,31,32
 422 368 422 368 440.5 387.5 c 128,-1,33
 459 407 459 407 468 463 c 1,34,-1
 491 463 l 1,35,-1
 491 231 l 1,36,-1
 468 231 l 1,37,38
 458 293 458 293 439 310 c 128,-1,39
 420 327 420 327 358 327 c 2,40,-1
 204 327 l 1,41,-1
 204 80 l 2,0,1
EndSplineSet
Validated: 1
EndChar

StartChar: F
Encoding: 70 70 98
Width: 564
Flags: W
HStem: 0 19<15 68.855 237.821 295> 327 41<204 431.338> 624 38<204.896 484> 643 19<15 67.9688>
VStem: 102 102<36.1617 327 368 623.195> 459 23<231 280.172 414.406 463> 524 25<519 565.063>
LayerCount: 3
Fore
SplineSet
482 231 m 1xee
 459 231 l 1
 447 312 430 327 349 327 c 2
 204 327 l 1
 204 119 l 2
 204 37.5 218 23 295 19 c 1
 295 0 l 1
 15 0 l 1
 15 19 l 1
 91 24 102 37 102 120 c 2
 102 553 l 2
 102 623 89 637 15 643 c 1
 15 662 l 1
 546 662 l 1xde
 549 519 l 1
 524 519 l 1
 507 609 485 624 372 624 c 2
 236 624 l 2
 209 624 204 618 204 590 c 2
 204 368 l 1
 349 368 l 2
 429 368 447 383 459 463 c 1
 482 463 l 1
 482 231 l 1xee
EndSplineSet
Validated: 1
Layer: 2
SplineSet
482 231 m 1,0,-1
 459 231 l 1,1,2
 450 292 450 292 430 309.5 c 128,-1,3
 410 327 410 327 349 327 c 2,4,-1
 204 327 l 1,5,-1
 204 119 l 2,6,7
 204 58 204 58 220.5 40 c 128,-1,8
 237 22 237 22 295 19 c 1,9,-1
 295 0 l 1,10,-1
 15 0 l 1,11,-1
 15 19 l 1,12,13
 72 23 72 23 87 40.5 c 128,-1,14
 102 58 102 58 102 120 c 2,15,-1
 102 553 l 2,16,17
 102 606 102 606 86 622.5 c 128,-1,18
 70 639 70 639 15 643 c 1,19,-1
 15 662 l 1,20,-1
 546 662 l 1,21,-1
 549 519 l 1,22,-1
 524 519 l 1,23,24
 511 586 511 586 484 605 c 128,-1,25
 457 624 457 624 372 624 c 2,26,-1
 236 624 l 2,27,28
 216 624 216 624 210 617.5 c 128,-1,29
 204 611 204 611 204 590 c 2,30,-1
 204 368 l 1,31,-1
 349 368 l 2,32,33
 409 368 409 368 429.5 385.5 c 128,-1,34
 450 403 450 403 459 463 c 1,35,-1
 482 463 l 1,36,-1
 482 231 l 1,0,-1
EndSplineSet
Validated: 1
EndChar

StartChar: G
Encoding: 71 71 99
Width: 722
Flags: W
HStem: -14 40<307.947 508.374> 336 18<457 513.467 668.563 712> 636 40<298.195 487.162>
VStem: 35 114<193.446 451.076> 545 97<54.3595 322.547> 603 22<657.871 676> 610 23<465 488.168>
LayerCount: 3
Fore
SplineSet
395 636 m 0xf2
 198 636 149 449 149 326 c 0
 149 140 249 26 412 26 c 0
 484 26 545 53 545 85 c 2
 545 247 l 2
 545 324 530 331 457 336 c 1
 457 354 l 1
 712 354 l 1
 712 336 l 1
 654 331 642 318 642 259 c 2
 642 56 l 1xf8
 602 21 477 -14 391 -14 c 0
 255 -14 35 54 35 325 c 0
 35 529 178 676 378 676 c 0
 478 676 523 643 558 643 c 0
 579 643 597 657 603 676 c 1
 625 676 l 1xf4
 633 465 l 1
 610 465 l 1
 576 547 525 636 395 636 c 0xf2
EndSplineSet
Validated: 1
Layer: 2
SplineSet
395 636 m 0,0,1
 338 636 338 636 294 616 c 0,2,3
 215 579 215 579 179 488 c 0,4,5
 149 412 149 412 149 326 c 0,6,7
 149 187 149 187 219.5 106.5 c 128,-1,8
 290 26 290 26 412 26 c 0,9,10
 466 26 466 26 505.5 43.5 c 128,-1,11
 545 61 545 61 545 85 c 2,12,-1
 545 247 l 2,13,14
 545 303 545 303 529.5 317.5 c 128,-1,15
 514 332 514 332 457 336 c 1,16,-1
 457 354 l 1,17,-1
 712 354 l 1,18,-1
 712 336 l 1,19,20
 668 332 668 332 655 317.5 c 128,-1,21
 642 303 642 303 642 259 c 2,22,-1
 642 56 l 1,23,24
 612 30 612 30 533.5 8 c 128,-1,25
 455 -14 455 -14 400.5 -14 c 128,-1,26
 346 -14 346 -14 301 -5 c 128,-1,27
 256 4 256 4 207 28 c 128,-1,28
 158 52 158 52 121 88.5 c 128,-1,29
 84 125 84 125 59.5 186 c 128,-1,30
 35 247 35 247 35 325 c 0,31,32
 35 478 35 478 131.5 577 c 128,-1,33
 228 676 228 676 378 676 c 0,34,35
 436 676 436 676 492.5 659.5 c 128,-1,36
 549 643 549 643 561.5 643 c 128,-1,37
 574 643 574 643 586 652.5 c 128,-1,38
 598 662 598 662 603 676 c 1,39,-1
 625 676 l 1,40,-1
 633 465 l 1,41,-1
 610 465 l 1,42,43
 578 543 578 543 530 589.5 c 128,-1,44
 482 636 482 636 395 636 c 0,0,1
EndSplineSet
Validated: 1
EndChar

StartChar: H
Encoding: 72 72 100
Width: 714
Flags: W
HStem: 0 19<15 71.8664 239.356 293 420 476.866 644.356 698> 315 44<205 508> 643 19<15 69.53 238.47 293 420 474.53 643.47 698>
VStem: 103 102<35.1653 315 359 627.725> 508 102<35.1653 315 359 627.725>
LayerCount: 3
Fore
SplineSet
205 359 m 1
 508 359 l 1
 508 553 l 2
 508 625 497 636 420 643 c 1
 420 662 l 1
 698 662 l 1
 698 643 l 1
 621 636 610 625 610 553 c 2
 610 109 l 2
 610 38 623 25 698 19 c 1
 698 0 l 1
 420 0 l 1
 420 19 l 1
 498 24 508 36 508 120 c 2
 508 315 l 1
 205 315 l 1
 205 109 l 2
 205 38 218 25 293 19 c 1
 293 0 l 1
 15 0 l 1
 15 19 l 1
 93 24 103 36 103 120 c 2
 103 553 l 2
 103 625 92 636 15 643 c 1
 15 662 l 1
 293 662 l 1
 293 643 l 1
 216 636 205 625 205 553 c 2
 205 359 l 1
EndSplineSet
Validated: 1
Layer: 2
SplineSet
205 359 m 1,0,-1
 508 359 l 1,1,-1
 508 553 l 2,2,3
 508 607 508 607 493 622.5 c 128,-1,4
 478 638 478 638 420 643 c 1,5,-1
 420 662 l 1,6,-1
 698 662 l 1,7,-1
 698 643 l 1,8,9
 640 638 640 638 625 622.5 c 128,-1,10
 610 607 610 607 610 553 c 2,11,-1
 610 109 l 2,12,13
 610 56 610 56 626 40 c 128,-1,14
 642 24 642 24 698 19 c 1,15,-1
 698 0 l 1,16,-1
 420 0 l 1,17,-1
 420 19 l 1,18,19
 478 23 478 23 493 40 c 128,-1,20
 508 57 508 57 508 120 c 2,21,-1
 508 315 l 1,22,-1
 205 315 l 1,23,-1
 205 109 l 2,24,25
 205 56 205 56 221 40 c 128,-1,26
 237 24 237 24 293 19 c 1,27,-1
 293 0 l 1,28,-1
 15 0 l 1,29,-1
 15 19 l 1,30,31
 73 23 73 23 88 40 c 128,-1,32
 103 57 103 57 103 120 c 2,33,-1
 103 553 l 2,34,35
 103 607 103 607 88 622.5 c 128,-1,36
 73 638 73 638 15 643 c 1,37,-1
 15 662 l 1,38,-1
 293 662 l 1,39,-1
 293 643 l 1,40,41
 235 638 235 638 220 622.5 c 128,-1,42
 205 607 205 607 205 553 c 2,43,-1
 205 359 l 1,0,-1
EndSplineSet
Validated: 1
EndChar

StartChar: I
Encoding: 73 73 101
Width: 327
Flags: W
HStem: 0 19<15 80.7454 248.803 312> 643 19<15 77.248 247.915 312>
VStem: 112 102<35.4136 627.204>
LayerCount: 3
Fore
SplineSet
112 109 m 2
 112 553 l 2
 112 627 100 638 15 643 c 1
 15 662 l 1
 312 662 l 1
 312 643 l 1
 228 639 214 626 214 553 c 2
 214 109 l 2
 214 36 230 22 312 19 c 1
 312 0 l 1
 15 0 l 1
 15 19 l 1
 99 22 112 34 112 109 c 2
EndSplineSet
Validated: 1
Layer: 2
SplineSet
112 109 m 2,0,-1
 112 553 l 2,1,2
 112 608 112 608 95.5 623.5 c 128,-1,3
 79 639 79 639 15 643 c 1,4,-1
 15 662 l 1,5,-1
 312 662 l 1,6,-1
 312 643 l 1,7,8
 249 640 249 640 231.5 624 c 128,-1,9
 214 608 214 608 214 553 c 2,10,-1
 214 109 l 2,11,12
 214 54 214 54 232 37.5 c 128,-1,13
 250 21 250 21 312 19 c 1,14,-1
 312 0 l 1,15,-1
 15 0 l 1,16,-1
 15 19 l 1,17,18
 78 21 78 21 95 37 c 128,-1,19
 112 53 112 53 112 109 c 2,0,-1
EndSplineSet
Validated: 1
EndChar

StartChar: J
Encoding: 74 74 102
Width: 385
Flags: W
HStem: -14 38<80 166.292> 643 19<83 140.905 312.77 370>
VStem: 176 102<73.6536 627.481>
LayerCount: 3
Fore
SplineSet
59 108 m 0
 120 108 102 24 138 24 c 0
 164 24 176 45 176 90 c 2
 176 553 l 2
 176 626 165 637 83 643 c 1
 83 662 l 1
 370 662 l 1
 370 643 l 1
 289 637 278 626 278 553 c 2
 278 183 l 2
 278 58 217 -14 109 -14 c 0
 51 -14 10 16 10 58 c 0
 10 85 32 108 59 108 c 0
EndSplineSet
Validated: 1
Layer: 2
SplineSet
24.5 93 m 128,-1,1
 39 108 39 108 59.5 108 c 128,-1,2
 80 108 80 108 92 95 c 128,-1,3
 104 82 104 82 108 66 c 0,4,5
 118 24 118 24 138 24 c 0,6,7
 176 24 176 24 176 90 c 2,8,-1
 176 553 l 2,9,10
 176 608 176 608 160 623.5 c 128,-1,11
 144 639 144 639 83 643 c 1,12,-1
 83 662 l 1,13,-1
 370 662 l 1,14,-1
 370 643 l 1,15,16
 309 639 309 639 293.5 623.5 c 128,-1,17
 278 608 278 608 278 553 c 2,18,-1
 278 183 l 2,19,20
 278 89 278 89 234 37.5 c 128,-1,21
 190 -14 190 -14 109 -14 c 0,22,23
 66 -14 66 -14 38 6 c 128,-1,24
 10 26 10 26 10 52 c 128,-1,0
 10 78 10 78 24.5 93 c 128,-1,1
EndSplineSet
Validated: 1
EndChar

StartChar: K
Encoding: 75 75 103
Width: 709
Flags: W
HStem: 0 19<15 70.8801 239.629 297 399 459.139 655.467 704> 643 19<15 70.437 241.77 299 394 452.25 595.689 656>
VStem: 105 102<35.3481 296 348 626.835>
DStem2: 207 348 314 377 0.710838 0.703356<96.457 366.208> 314 377 233 317 0.681797 -0.731542<0 349.87>
LayerCount: 3
Fore
SplineSet
394 643 m 1
 394 662 l 1
 656 662 l 1
 656 643 l 1
 588 638 571 631 504 565 c 2
 314 377 l 1
 547 127 l 2
 638 30 652 20 704 19 c 1
 704 0 l 1
 399 0 l 1
 399 19 l 1
 425.808 21.2344 469 21 469 42 c 0
 469 66 415 137 339 212 c 2
 233 317 l 1
 207 296 l 1
 207 109 l 2
 207 36 219 24 297 19 c 1
 297 0 l 1
 15 0 l 1
 15 19 l 1
 94 24 105 37 105 120 c 2
 105 553 l 2
 105 624 93 637 15 643 c 1
 15 662 l 1
 299 662 l 1
 299 643 l 1
 218 637 207 626 207 553 c 2
 207 348 l 1
 384 509 l 2
 439 560 462 590 462 612 c 0
 462 632 450 640 420 642 c 0
 416 642 406 642 394 643 c 1
EndSplineSet
Validated: 1
Layer: 2
SplineSet
399 19 m 1,0,1
 469 19 469 19 469 42 c 0,2,3
 469 60 469 60 432.5 108 c 128,-1,4
 396 156 396 156 339 212 c 2,5,-1
 233 317 l 1,6,-1
 207 296 l 1,7,-1
 207 109 l 2,8,9
 207 54 207 54 223 38.5 c 128,-1,10
 239 23 239 23 297 19 c 1,11,-1
 297 0 l 1,12,-1
 15 0 l 1,13,-1
 15 19 l 1,14,15
 74 23 74 23 89.5 40.5 c 128,-1,16
 105 58 105 58 105 120 c 2,17,-1
 105 553 l 2,18,19
 105 606 105 606 89 622.5 c 128,-1,20
 73 639 73 639 15 643 c 1,21,-1
 15 662 l 1,22,-1
 299 662 l 1,23,-1
 299 643 l 1,24,25
 238 639 238 639 222.5 623.5 c 128,-1,26
 207 608 207 608 207 553 c 2,27,-1
 207 348 l 1,28,-1
 384 509 l 2,29,30
 462 581 462 581 462 612 c 0,31,32
 462 639 462 639 424 641 c 0,33,34
 406 642 406 642 394 643 c 1,35,-1
 394 662 l 1,36,-1
 656 662 l 1,37,-1
 656 643 l 1,38,39
 604 639 604 639 578.5 626.5 c 128,-1,40
 553 614 553 614 504 565 c 2,41,-1
 314 377 l 1,42,-1
 547 127 l 2,43,44
 615 54 615 54 640 37 c 128,-1,45
 665 20 665 20 704 19 c 1,46,-1
 704 0 l 1,47,-1
 399 0 l 1,48,-1
 399 19 l 1,0,1
EndSplineSet
Validated: 1
EndChar

StartChar: L
Encoding: 76 76 104
Width: 611
Flags: W
HStem: 0 39<207.633 472.094> 0 19<15 67.5256> 643 19<15 67.9688 240.424 297>
VStem: 102 102<44.9387 626.194>
LayerCount: 3
Fore
SplineSet
357 39 m 2xb0
 532 39 556 128 576 174 c 1
 601 174 l 1
 553 0 l 1
 15 0 l 1
 15 19 l 1x70
 88 24 102 39 102 109 c 2
 102 553 l 2
 102 623 89 637 15 643 c 1
 15 662 l 1
 297 662 l 1
 297 643 l 1
 218 638 204 624 204 553 c 2
 204 80 l 2
 204 45 217 39 290 39 c 2
 357 39 l 2xb0
EndSplineSet
Validated: 1
Layer: 2
SplineSet
357 39 m 2,0,1
 436 39 436 39 478 60 c 2,2,-1
 504 73 l 2,3,4
 514 78 514 78 524.5 89.5 c 128,-1,5
 535 101 535 101 541 106 c 0,6,7
 547 112 547 112 561.5 141 c 128,-1,8
 576 170 576 170 576 174 c 1,9,-1
 601 174 l 1,10,-1
 553 0 l 1,11,-1
 15 0 l 1,12,-1
 15 19 l 1,13,14
 70 23 70 23 86 39.5 c 128,-1,15
 102 56 102 56 102 109 c 2,16,-1
 102 553 l 2,17,18
 102 606 102 606 86 622.5 c 128,-1,19
 70 639 70 639 15 643 c 1,20,-1
 15 662 l 1,21,-1
 297 662 l 1,22,-1
 297 643 l 1,23,24
 238 639 238 639 221 622.5 c 128,-1,25
 204 606 204 606 204 553 c 2,26,-1
 204 80 l 2,27,28
 204 54 204 54 219.5 46.5 c 128,-1,29
 235 39 235 39 290 39 c 2,30,-1
 357 39 l 2,0,1
EndSplineSet
Validated: 1
EndChar

StartChar: M
Encoding: 77 77 105
Width: 881
Flags: W
HStem: 0 19<15 67.5662 198.313 250 586 642.112 813.474 866> 643 19<17 77.4103 813.031 866>
VStem: 112 44<43.3196 550> 677 102<35.3481 571.481>
DStem2: 215 662 156 550 0.415173 -0.909742<77.3959 555.325> 446 157 421 0 0.407912 0.913021<0 474.044>
LayerCount: 3
Fore
SplineSet
677 573 m 1
 421 0 l 1
 407 0 l 1
 156 550 l 1
 156 147 l 2
 156 46 173 23 250 19 c 1
 250 0 l 1
 15 0 l 1
 15 19 l 1
 98 25 112 44 112 147 c 2
 112 553 l 2
 112 626 99 638 17 643 c 1
 17 662 l 1
 215 662 l 1
 446 157 l 1
 667 662 l 1
 866 662 l 1
 866 643 l 1
 792 637 779 624 779 553 c 2
 779 109 l 2
 779 38 793 24 866 19 c 1
 866 0 l 1
 586 0 l 1
 586 19 l 1
 665 24 677 37 677 120 c 2
 677 573 l 1
EndSplineSet
Validated: 1
Layer: 2
SplineSet
677 573 m 1,0,-1
 421 0 l 1,1,-1
 407 0 l 1,2,-1
 156 550 l 1,3,-1
 156 147 l 2,4,5
 156 71 156 71 174 46.5 c 128,-1,6
 192 22 192 22 250 19 c 1,7,-1
 250 0 l 1,8,-1
 15 0 l 1,9,-1
 15 19 l 1,10,11
 77 23 77 23 94.5 46.5 c 128,-1,12
 112 70 112 70 112 147 c 2,13,-1
 112 553 l 2,14,15
 112 608 112 608 95.5 623.5 c 128,-1,16
 79 639 79 639 17 643 c 1,17,-1
 17 662 l 1,18,-1
 215 662 l 1,19,-1
 446 157 l 1,20,-1
 667 662 l 1,21,-1
 866 662 l 1,22,-1
 866 643 l 1,23,24
 810 638 810 638 794.5 622 c 128,-1,25
 779 606 779 606 779 553 c 2,26,-1
 779 109 l 2,27,28
 779 56 779 56 795 39.5 c 128,-1,29
 811 23 811 23 866 19 c 1,30,-1
 866 0 l 1,31,-1
 586 0 l 1,32,-1
 586 19 l 1,33,34
 645 23 645 23 661 40.5 c 128,-1,35
 677 58 677 58 677 120 c 2,36,-1
 677 573 l 1,0,-1
EndSplineSet
Validated: 1
EndChar

StartChar: N
Encoding: 78 78 106
Width: 725
Flags: W
HStem: -11 21G<581.927 615> 0 19<15 67.5662 198.313 250> 643 19<15 63.3229 475 524.813 660.936 710>
VStem: 112 44<43.3196 539> 571 44<178 617.342>
DStem2: 186 662 112 588 0.630056 -0.77655<0 10.8406 76.614 618.422>
LayerCount: 3
Fore
SplineSet
710 643 m 1x78
 649 637 615 632 615 515 c 2
 615 -11 l 1
 598 -11 l 1xb8
 156 539 l 1
 156 147 l 2
 156 46 173 23 250 19 c 1
 250 0 l 1
 15 0 l 1
 15 19 l 1
 98 25 112 44 112 147 c 2
 112 588 l 1
 72 635 58 643 15 643 c 1
 15 662 l 1
 186 662 l 1
 571 178 l 1
 571 515 l 2
 571 619 552 637 475 643 c 1
 475 662 l 1
 710 662 l 1
 710 643 l 1x78
EndSplineSet
Validated: 1
Layer: 2
SplineSet
710 643 m 1,0,1
 682 640 682 640 668.5 636.5 c 128,-1,2
 655 633 655 633 640 621 c 0,3,4
 615 600 615 600 615 515 c 2,5,-1
 615 -11 l 1,6,-1
 598 -11 l 1,7,-1
 156 539 l 1,8,-1
 156 147 l 2,9,10
 156 71 156 71 174 46.5 c 128,-1,11
 192 22 192 22 250 19 c 1,12,-1
 250 0 l 1,13,-1
 15 0 l 1,14,-1
 15 19 l 1,15,16
 77 23 77 23 94.5 46.5 c 128,-1,17
 112 70 112 70 112 147 c 2,18,-1
 112 588 l 1,19,20
 82 623 82 623 64.5 633 c 128,-1,21
 47 643 47 643 15 643 c 1,22,-1
 15 662 l 1,23,-1
 186 662 l 1,24,-1
 571 178 l 1,25,-1
 571 515 l 2,26,27
 571 591 571 591 552.5 614.5 c 128,-1,28
 534 638 534 638 475 643 c 1,29,-1
 475 662 l 1,30,-1
 710 662 l 1,31,-1
 710 643 l 1,0,1
EndSplineSet
Validated: 1
EndChar

StartChar: O
Encoding: 79 79 107
Width: 724
Flags: W
HStem: -14 36<280.995 443.651> 640 36<284.688 440.102>
VStem: 35 114<204.381 462.197> 575 114<197.101 459.705>
LayerCount: 3
Fore
SplineSet
356 -14 m 0
 181 -14 35 121 35 331 c 0
 35 532 171 676 362 676 c 0
 552 676 689 536 689 327 c 0
 689 126 553 -14 356 -14 c 0
575 328 m 0
 575 577 450 640 362 640 c 0
 190 640 149 453 149 329 c 0
 149 208 191 22 360 22 c 0
 532 22 575 208 575 328 c 0
EndSplineSet
Validated: 1
Layer: 2
SplineSet
596.5 81 m 128,-1,1
 504 -14 504 -14 362.5 -14 c 128,-1,2
 221 -14 221 -14 128 81.5 c 128,-1,3
 35 177 35 177 35 329.5 c 128,-1,4
 35 482 35 482 127 579 c 128,-1,5
 219 676 219 676 362.5 676 c 128,-1,6
 506 676 506 676 597.5 579.5 c 128,-1,7
 689 483 689 483 689 329.5 c 128,-1,0
 689 176 689 176 596.5 81 c 128,-1,1
565 229 m 128,-1,9
 575 278 575 278 575 339 c 128,-1,10
 575 400 575 400 561 456 c 0,11,12
 536 556 536 556 475 602 c 0,13,14
 425 640 425 640 369 640 c 128,-1,15
 313 640 313 640 274 619 c 128,-1,16
 235 598 235 598 212.5 566.5 c 128,-1,17
 190 535 190 535 170 476 c 0,18,19
 149 417 149 417 149 347.5 c 128,-1,20
 149 278 149 278 159 229 c 128,-1,21
 169 180 169 180 191 131 c 128,-1,22
 213 82 213 82 256.5 52 c 128,-1,23
 300 22 300 22 360.5 22 c 128,-1,24
 421 22 421 22 465.5 52 c 128,-1,25
 510 82 510 82 532.5 131 c 128,-1,8
 555 180 555 180 565 229 c 128,-1,9
EndSplineSet
Validated: 1
EndChar

StartChar: P
Encoding: 80 80 108
Width: 576
Flags: W
HStem: 0 19<15 66.2779 234.228 295> 288 40<201 358.189> 625 37<202.321 348.788> 643 19<15 65.3973>
VStem: 99 102<34.7922 291 329.292 624.252> 432 109<392.908 557.55>
LayerCount: 3
Fore
SplineSet
541 481 m 0xec
 541 404 500 288 270 288 c 0
 244 288 227 289 201 291 c 1
 201 109 l 2
 201 36 216 22 295 19 c 1
 295 0 l 1
 15 0 l 1
 15 19 l 1
 91 26 99 36 99 120 c 2
 99 553 l 2
 99 625 89 635 15 643 c 1
 15 662 l 1xdc
 279 662 l 2
 387 662 541 626 541 481 c 0xec
201 591 m 2
 201 331 l 1
 224 329 238 328 258 328 c 0
 373 328 432 378 432 475 c 0
 432 578 370 625 235 625 c 0xec
 208 625 201 618 201 591 c 2
EndSplineSet
Validated: 1
Layer: 2
SplineSet
512 380 m 0,0,1
 475 324 475 324 386 301 c 0,2,3
 336 288 336 288 288 288 c 128,-1,4
 240 288 240 288 201 291 c 1,5,-1
 201 109 l 2,6,7
 201 54 201 54 218.5 37.5 c 128,-1,8
 236 21 236 21 295 19 c 1,9,-1
 295 0 l 1,10,-1
 15 0 l 1,11,-1
 15 19 l 1,12,13
 72 24 72 24 85.5 40.5 c 128,-1,14
 99 57 99 57 99 120 c 2,15,-1
 99 553 l 2,16,17
 99 607 99 607 85 622 c 128,-1,18
 71 637 71 637 15 643 c 1,19,-1
 15 662 l 1,20,-1
 279 662 l 2,21,22
 371 662 371 662 450 626 c 0,23,24
 491 607 491 607 516 570 c 128,-1,25
 541 533 541 533 541 479.5 c 128,-1,26
 541 426 541 426 512 380 c 0,0,1
201 591 m 2,27,-1
 201 331 l 1,28,29
 236 328 236 328 258 328 c 0,30,31
 432 328 432 328 432 475 c 0,32,33
 432 552 432 552 384 588.5 c 128,-1,34
 336 625 336 625 235 625 c 0,35,36
 215 625 215 625 208 618 c 128,-1,37
 201 611 201 611 201 591 c 2,27,-1
EndSplineSet
Validated: 1
EndChar

StartChar: Q
Encoding: 81 81 109
Width: 723
Flags: W
HStem: -178 19<636.886 702> 640 36<282.867 440.154>
VStem: 35 114<198.338 460.137> 575 114<199.468 460.837>
LayerCount: 3
Fore
SplineSet
689 331 m 0
 689 61 481 3 427 -7 c 1
 508 -112 588 -156 702 -159 c 1
 702 -177 l 1
 686.25 -178 678 -178 661 -178 c 0
 398 -178 322 -65 266 -1 c 1
 151 38 35 131 35 329 c 0
 35 532 171 676 362 676 c 0
 553 676 689 532 689 331 c 0
575 333 m 0
 575 520 491 640 365 640 c 0
 192 640 149 456 149 335 c 0
 149 87 271 22 362 22 c 0
 532 22 575 207 575 333 c 0
EndSplineSet
Validated: 1
Layer: 2
SplineSet
602 88 m 0,0,1
 533 14 533 14 427 -7 c 1,2,3
 488 -86 488 -86 552 -121.5 c 128,-1,4
 616 -157 616 -157 702 -159 c 1,5,-1
 702 -177 l 1,6,7
 686 -178 686 -178 654.5 -178 c 128,-1,8
 623 -178 623 -178 587.5 -174.5 c 128,-1,9
 552 -171 552 -171 524.5 -166.5 c 128,-1,10
 497 -162 497 -162 470 -151.5 c 128,-1,11
 443 -141 443 -141 425 -134.5 c 128,-1,12
 407 -128 407 -128 385.5 -113 c 128,-1,13
 364 -98 364 -98 353.5 -91 c 128,-1,14
 343 -84 343 -84 326 -67 c 128,-1,15
 309 -50 309 -50 304 -44.5 c 128,-1,16
 299 -39 299 -39 283.5 -21 c 128,-1,17
 268 -3 268 -3 266 -1 c 1,18,19
 166 33 166 33 100.5 113 c 128,-1,20
 35 193 35 193 35 337 c 128,-1,21
 35 481 35 481 127 578.5 c 128,-1,22
 219 676 219 676 362 676 c 128,-1,23
 505 676 505 676 597 579 c 128,-1,24
 689 482 689 482 689 331 c 128,-1,25
 689 180 689 180 602 88 c 0,0,1
575 333 m 0,26,27
 575 473 575 473 517.5 556.5 c 128,-1,28
 460 640 460 640 365 640 c 0,29,30
 315 640 315 640 276 619.5 c 128,-1,31
 237 599 237 599 214 567.5 c 128,-1,32
 191 536 191 536 170 479 c 128,-1,33
 149 422 149 422 149 334.5 c 128,-1,34
 149 247 149 247 169 182.5 c 128,-1,35
 189 118 189 118 222 85 c 0,36,37
 285 22 285 22 362 22 c 0,38,39
 411 22 411 22 449.5 42.5 c 128,-1,40
 488 63 488 63 511 95 c 128,-1,41
 534 127 534 127 554.5 185 c 128,-1,42
 575 243 575 243 575 333 c 0,26,27
EndSplineSet
Validated: 1
EndChar

StartChar: R
Encoding: 82 82 110
Width: 667
Flags: W
HStem: 0 19<15 67.948 235.073 292 615.2 657> 308 35<202 258> 625 37<204.666 361.399> 643 19<15 66.0497>
VStem: 100 102<34.6779 306 343 621.625> 436 109<408.233 567.423>
DStem2: 364 319 258 308 0.611448 -0.791285<0 333.131>
LayerCount: 3
Fore
SplineSet
291 662 m 2xec
 389 662 545 636 545 486 c 0
 545 348 405 327 364 319 c 1
 570 66 l 2
 599 32 619 22 657 19 c 1
 657 0 l 1
 496 0 l 1
 258 308 l 1
 202 306 l 1
 202 109 l 2
 202 37 215 24 292 19 c 1
 292 0 l 1
 15 0 l 1
 15 19 l 1
 90 25 100 37 100 120 c 2
 100 553 l 2
 100 624 90 635 15 643 c 1
 15 662 l 1xdc
 291 662 l 2xec
202 343 m 1
 350 346 436 371 436 488 c 0
 436 582 378 625 253 625 c 0xec
 213 625 202 617 202 589 c 2
 202 343 l 1
EndSplineSet
Validated: 1
Layer: 2
SplineSet
291 662 m 2,0,1
 379 662 379 662 454 630 c 0,2,3
 495 613 495 613 520 576 c 128,-1,4
 545 539 545 539 545 486 c 0,5,6
 545 353 545 353 369 320 c 0,7,8
 366 319 366 319 364 319 c 1,9,-1
 570 66 l 2,10,11
 591 41 591 41 609.5 31 c 128,-1,12
 628 21 628 21 657 19 c 1,13,-1
 657 0 l 1,14,-1
 496 0 l 1,15,-1
 258 308 l 1,16,-1
 202 306 l 1,17,-1
 202 109 l 2,18,19
 202 55 202 55 218 39 c 128,-1,20
 234 23 234 23 292 19 c 1,21,-1
 292 0 l 1,22,-1
 15 0 l 1,23,-1
 15 19 l 1,24,25
 71 23 71 23 85.5 40.5 c 128,-1,26
 100 58 100 58 100 120 c 2,27,-1
 100 553 l 2,28,29
 100 606 100 606 85.5 621.5 c 128,-1,30
 71 637 71 637 15 643 c 1,31,-1
 15 662 l 1,32,-1
 291 662 l 2,0,1
202 343 m 1,33,34
 323 345 323 345 379.5 375 c 128,-1,35
 436 405 436 405 436 481.5 c 128,-1,36
 436 558 436 558 391.5 591.5 c 128,-1,37
 347 625 347 625 253 625 c 0,38,39
 223 625 223 625 212.5 617.5 c 128,-1,40
 202 610 202 610 202 589 c 2,41,-1
 202 343 l 1,33,34
EndSplineSet
Validated: 1
EndChar

StartChar: S
Encoding: 83 83 111
Width: 529
Flags: W
HStem: 20 2<110 255> 635 41<181.969 327.205>
VStem: 59 86<484.127 588.923> 60 22<-13 12.7146> 378 101<84.0294 202.661>
LayerCount: 3
Fore
SplineSet
378 135 m 0xd8
 378 306 59 300 59 505 c 0
 59 611 143 676 232 676 c 0
 306 676 351 642 382 642 c 0
 399 642 410 653 414 676 c 1
 435 676 l 1
 457 463 l 1
 432 463 l 1
 398 587 322 635 249 635 c 0
 187 635 145 597 145 542 c 0xe8
 145 488 187 444 292 386 c 0
 424 315 479 250 479 168 c 0
 479 65 390 -14 275 -14 c 0
 188 -14 147 20 110 20 c 0
 95 20 83 6 82 -13 c 1
 60 -13 l 1
 30 199 l 1
 53 199 l 1
 103 77 166 22 255 22 c 0
 328 22 378 68 378 135 c 0xd8
EndSplineSet
Validated: 1
Layer: 2
SplineSet
53 199 m 1,0,1
 125 22 125 22 249 22 c 0,2,3
 310 22 310 22 344 53.5 c 128,-1,4
 378 85 378 85 378 133.5 c 128,-1,5
 378 182 378 182 345 218.5 c 128,-1,6
 312 255 312 255 265 281 c 128,-1,7
 218 307 218 307 171.5 334.5 c 128,-1,8
 125 362 125 362 92 405 c 128,-1,9
 59 448 59 448 59 505 c 0,10,11
 59 581 59 581 110.5 628.5 c 128,-1,12
 162 676 162 676 232 676 c 0,13,14
 274 676 274 676 323 659 c 128,-1,15
 372 642 372 642 382 642 c 0,16,17
 408 642 408 642 414 676 c 1,18,-1
 435 676 l 1,19,-1
 457 463 l 1,20,-1
 432 463 l 1,21,22
 408 551 408 551 358.5 593 c 128,-1,23
 309 635 309 635 256 635 c 128,-1,24
 203 635 203 635 174 609 c 128,-1,25
 145 583 145 583 145 542.5 c 128,-1,26
 145 502 145 502 179 466 c 128,-1,27
 213 430 213 430 292 386 c 1,28,29
 391 333 391 333 435 281.5 c 128,-1,30
 479 230 479 230 479 160.5 c 128,-1,31
 479 91 479 91 420 38.5 c 128,-1,32
 361 -14 361 -14 275 -14 c 0,33,34
 225 -14 225 -14 173.5 3 c 128,-1,35
 122 20 122 20 110.5 20 c 128,-1,36
 99 20 99 20 91 10.5 c 128,-1,37
 83 1 83 1 82 -13 c 1,38,-1
 60 -13 l 1,39,-1
 30 199 l 1,40,-1
 53 199 l 1,0,1
EndSplineSet
Validated: 1
EndChar

StartChar: T
Encoding: 84 84 112
Width: 606
Flags: W
HStem: 0 19<158 218.602 387.35 450> 620 42<89.8973 252 354 517.247>
VStem: 15 24<492 536.773> 252 102<34.7261 620> 567 24<492 537.107>
CounterMasks: 1 38
LayerCount: 3
Fore
SplineSet
252 620 m 1
 198 620 l 2
 86 620 63 601 39 492 c 1
 15 492 l 1
 21 662 l 1
 585 662 l 1
 591 492 l 1
 567 492 l 1
 544 602 522 620 408 620 c 2
 354 620 l 1
 354 109 l 2
 354 36 368 23 450 19 c 1
 450 0 l 1
 158 0 l 1
 158 19 l 1
 241 24 252 35 252 120 c 2
 252 620 l 1
EndSplineSet
Validated: 1
Layer: 2
SplineSet
252 620 m 1,0,-1
 198 620 l 2,1,2
 114 620 114 620 85.5 597 c 128,-1,3
 57 574 57 574 39 492 c 1,4,-1
 15 492 l 1,5,-1
 21 662 l 1,6,-1
 585 662 l 1,7,-1
 591 492 l 1,8,-1
 567 492 l 1,9,10
 550 575 550 575 521.5 597.5 c 128,-1,11
 493 620 493 620 408 620 c 2,12,-1
 354 620 l 1,13,-1
 354 109 l 2,14,15
 354 54 354 54 371 38 c 128,-1,16
 388 22 388 22 450 19 c 1,17,-1
 450 0 l 1,18,-1
 158 0 l 1,19,-1
 158 19 l 1,20,21
 220 23 220 23 236 39.5 c 128,-1,22
 252 56 252 56 252 120 c 2,23,-1
 252 620 l 1,0,-1
EndSplineSet
Validated: 1
EndChar

StartChar: U
Encoding: 85 85 113
Width: 721
Flags: W
HStem: -14 44<282.28 479.899> 643 19<15 70.8801 241.445 298 474 523.895 659.133 706>
VStem: 105 102<111.184 626.742> 568 44<117.258 618.268>
LayerCount: 3
Fore
SplineSet
207 233 m 2
 207 111 241 30 379 30 c 0
 454 30 518 61 545 109 c 0
 561 139 568 177 568 245 c 2
 568 515 l 2
 568 615 552 637 474 643 c 1
 474 662 l 1
 706 662 l 1
 706 643 l 1
 624 633 612 617 612 515 c 2
 612 254 l 2
 612 111 570 -14 356 -14 c 0
 186 -14 105 68 105 241 c 2
 105 553 l 2
 105 626 94 637 15 643 c 1
 15 662 l 1
 298 662 l 1
 298 643 l 1
 218 636 207 625 207 553 c 2
 207 233 l 2
EndSplineSet
Validated: 1
Layer: 2
SplineSet
207 233 m 2,0,1
 207 133 207 133 244.5 81.5 c 128,-1,2
 282 30 282 30 379 30 c 0,3,4
 435 30 435 30 480 51.5 c 128,-1,5
 525 73 525 73 546.5 112.5 c 128,-1,6
 568 152 568 152 568 245 c 2,7,-1
 568 515 l 2,8,9
 568 590 568 590 550 614.5 c 128,-1,10
 532 639 532 639 474 643 c 1,11,-1
 474 662 l 1,12,-1
 706 662 l 1,13,-1
 706 643 l 1,14,15
 644 635 644 635 628 613 c 128,-1,16
 612 591 612 591 612 515 c 2,17,-1
 612 254 l 2,18,19
 612 195 612 195 601.5 151 c 128,-1,20
 591 107 591 107 564 68 c 0,21,22
 510 -14 510 -14 356 -14 c 0,23,24
 228 -14 228 -14 166.5 48.5 c 128,-1,25
 105 111 105 111 105 241 c 2,26,-1
 105 553 l 2,27,28
 105 608 105 608 89.5 623 c 128,-1,29
 74 638 74 638 15 643 c 1,30,-1
 15 662 l 1,31,-1
 298 662 l 1,32,-1
 298 643 l 1,33,34
 238 638 238 638 222.5 622.5 c 128,-1,35
 207 607 207 607 207 553 c 2,36,-1
 207 233 l 2,0,1
EndSplineSet
Validated: 1
EndChar

StartChar: V
Encoding: 86 86 114
Width: 701
Flags: W
HStem: -11 21G<353.038 384.914> 643 19<10 52.9824 215.001 276 486 538.532 650.599 691>
DStem2: 242 499 116 538 0.408913 -0.912574<-117.411 370.196> 393 161 377 -11 0.367959 0.929842<0 469.505>
LayerCount: 3
Fore
SplineSet
691 662 m 1
 691 643 l 1
 643 640 631 630 599 550 c 2
 377 -11 l 1
 362 -11 l 1
 116 538 l 2
 76 628 59 641 10 643 c 1
 10 662 l 1
 276 662 l 1
 276 643 l 1
 262 642 251 641 247 641 c 0
 215 639 201 629 201 610 c 0
 201 595 209 572 242 499 c 2
 393 161 l 1
 540 528 l 2
 552 558 559 585 559 601 c 0
 559 629 541 640 486 643 c 1
 486 662 l 1
 691 662 l 1
EndSplineSet
Validated: 1
Layer: 2
SplineSet
691 662 m 1,0,-1
 691 643 l 1,1,2
 654 641 654 641 638.5 625 c 128,-1,3
 623 609 623 609 599 550 c 2,4,-1
 377 -11 l 1,5,-1
 362 -11 l 1,6,-1
 116 538 l 2,7,8
 87 604 87 604 67.5 622.5 c 128,-1,9
 48 641 48 641 10 643 c 1,10,-1
 10 662 l 1,11,-1
 276 662 l 1,12,-1
 276 643 l 1,13,14
 248 641 248 641 247 641 c 0,15,16
 201 638 201 638 201 610 c 0,17,18
 201 590 201 590 242 499 c 2,19,-1
 393 161 l 1,20,-1
 540 528 l 2,21,22
 559 576 559 576 559 599 c 128,-1,23
 559 622 559 622 543 631.5 c 128,-1,24
 527 641 527 641 486 643 c 1,25,-1
 486 662 l 1,26,-1
 691 662 l 1,0,-1
EndSplineSet
Validated: 1
EndChar

StartChar: W
Encoding: 87 87 115
Width: 947
Flags: W
HStem: -11 21G<298.812 328.281 627.435 692.5> 643 19<10 47.9786 202.468 255 318 369.547 525.098 585 739 784.553 901.136 937>
DStem2: 201 565 113 526 0.338223 -0.941066<-46.5191 402.545> 345 189 321 -11 0.3421 0.939664<0 254.018> 535 527 419 553 0.357647 -0.933857<-84.5461 22.6113 85.9347 365.655> 667 186 650 -11 0.345962 0.938249<0 436.287>
LayerCount: 3
Fore
SplineSet
937 662 m 1
 937 643 l 1
 884 633 873 624 854 572 c 0
 745 278 735 250 650 -11 c 1
 635 -11 l 1
 475 412 l 1
 321 -11 l 1
 306 -11 l 1
 113 526 l 2
 79 621 61 638 10 643 c 1
 10 662 l 1
 255 662 l 1
 255 643 l 1
 204 640 190 633 190 611 c 0
 190 600 194 583 201 565 c 2
 345 189 l 1
 452 471 l 1
 419 553 l 2
 387 634 375 642 318 643 c 1
 318 662 l 1
 585 662 l 1
 585 643 l 1
 531 642 508 632 508 608 c 0
 508 591 520 566 535 527 c 2
 667 186 l 1
 792 525 l 2
 802 553 808 579 808 600 c 0
 808 627 790 638 739 643 c 1
 739 662 l 1
 937 662 l 1
EndSplineSet
Validated: 1
Layer: 2
SplineSet
937 662 m 1,0,-1
 937 643 l 1,1,2
 897 635 897 635 882.5 623 c 128,-1,3
 868 611 868 611 854 572 c 0,4,5
 771 349 771 349 742 266 c 128,-1,6
 713 183 713 183 650 -11 c 1,7,-1
 635 -11 l 1,8,-1
 475 412 l 1,9,-1
 321 -11 l 1,10,-1
 306 -11 l 1,11,-1
 113 526 l 2,12,13
 88 596 88 596 68.5 617.5 c 128,-1,14
 49 639 49 639 10 643 c 1,15,-1
 10 662 l 1,16,-1
 255 662 l 1,17,-1
 255 643 l 1,18,19
 217 641 217 641 203.5 634.5 c 128,-1,20
 190 628 190 628 190 610.5 c 128,-1,21
 190 593 190 593 201 565 c 2,22,-1
 345 189 l 1,23,-1
 452 471 l 1,24,-1
 419 553 l 2,25,26
 395 613 395 613 378 627.5 c 128,-1,27
 361 642 361 642 318 643 c 1,28,-1
 318 662 l 1,29,-1
 585 662 l 1,30,-1
 585 643 l 1,31,32
 508 642 508 642 508 608 c 0,33,34
 508 597 508 597 535 527 c 2,35,-1
 667 186 l 1,36,-1
 792 525 l 2,37,38
 808 570 808 570 808 595 c 128,-1,39
 808 620 808 620 792.5 629.5 c 128,-1,40
 777 639 777 639 739 643 c 1,41,-1
 739 662 l 1,42,-1
 937 662 l 1,0,-1
EndSplineSet
Validated: 1
EndChar

StartChar: X
Encoding: 88 88 116
Width: 714
Flags: W
HStem: 0 19<10 53.6918 185.539 243 407 463.013 659.668 704> 643 19<22 73.4465 258.197 324 458 515.187 641.75 696>
DStem2: 155 133 219 140 0.631377 0.775476<-53.1281 235.741 349.057 605.629> 333 463 203 486 0.574946 -0.818192<-170.733 72.421 146.058 424.136>
LayerCount: 3
Fore
SplineSet
696 662 m 1
 696 643 l 1
 632 639 611 628 547 549 c 2
 401 367 l 1
 593 93 l 2
 634 34 651 25 704 19 c 1
 704 0 l 1
 407 0 l 1
 407 19 l 1
 457 24 484 30 484 50 c 0
 484 65 466 99 433 148 c 2
 338 288 l 1
 219 140 l 2
 182 94 167 69 167 54 c 0
 167 31 185 23 243 19 c 1
 243 0 l 1
 10 0 l 1
 10 19 l 1
 61 23 68 26 155 133 c 2
 312 326 l 25
 203 486 l 2
 107 627 87 640 22 643 c 1
 22 662 l 1
 324 662 l 1
 324 643 l 1
 296 642 l 2
 263 641 248 633 248 613 c 0
 248 591 272 548 333 463 c 2
 375 404 l 1
 488 542 l 2
 517 578 528 596 528 611 c 0
 528 634 512 641 458 643 c 1
 458 662 l 1
 696 662 l 1
EndSplineSet
Validated: 1
Layer: 2
SplineSet
696 662 m 1,0,-1
 696 643 l 1,1,2
 647 640 647 640 620.5 623.5 c 128,-1,3
 594 607 594 607 547 549 c 2,4,-1
 401 367 l 1,5,-1
 593 93 l 2,6,7
 623 50 623 50 643 37 c 128,-1,8
 663 24 663 24 704 19 c 1,9,-1
 704 0 l 1,10,-1
 407 0 l 1,11,-1
 407 19 l 1,12,13
 448 23 448 23 466 29.5 c 128,-1,14
 484 36 484 36 484 54 c 128,-1,15
 484 72 484 72 433 148 c 2,16,-1
 338 288 l 1,17,-1
 219 140 l 2,18,19
 167 75 167 75 167 56 c 128,-1,20
 167 37 167 37 183 29.5 c 128,-1,21
 199 22 199 22 243 19 c 1,22,-1
 243 0 l 1,23,-1
 10 0 l 1,24,-1
 10 19 l 1,25,26
 49 22 49 22 70 38 c 128,-1,27
 91 54 91 54 155 133 c 2,28,-1
 312 326 l 1,29,-1
 203 486 l 2,30,31
 133 589 133 589 102.5 615 c 128,-1,32
 72 641 72 641 22 643 c 1,33,-1
 22 662 l 1,34,-1
 324 662 l 1,35,-1
 324 643 l 1,36,-1
 296 642 l 2,37,38
 248 641 248 641 248 613 c 0,39,40
 248 581 248 581 333 463 c 2,41,-1
 375 404 l 1,42,-1
 488 542 l 2,43,44
 528 592 528 592 528 610 c 128,-1,45
 528 628 528 628 513.5 634.5 c 128,-1,46
 499 641 499 641 458 643 c 1,47,-1
 458 662 l 1,48,-1
 696 662 l 1,0,-1
EndSplineSet
Validated: 1
EndChar

StartChar: Y
Encoding: 89 89 117
Width: 701
Flags: W
HStem: 0 19<202 270.014 436.299 508> 643 19<10 51.1585 235.711 290 472 528.854 650.247 691>
VStem: 303 102<34.7389 294>
DStem2: 236 569 172 486 0.5547 -0.83205<-45.605 265.979> 384 347 405 303 0.547848 0.836578<0 305.637>
LayerCount: 3
Fore
SplineSet
691 662 m 1
 691 643 l 1
 640 639 612 619 553 529 c 2
 405 303 l 1
 405 109 l 2
 405 33 419 21 508 19 c 1
 508 0 l 1
 202 0 l 1
 202 19 l 1
 293 23 303 33 303 120 c 2
 303 294 l 1
 172 486 l 2
 75 629 58 641 10 643 c 1
 10 662 l 1
 290 662 l 1
 290 643 l 1
 249 640 219 634.667 219 613 c 0
 219 602 225 585 236 569 c 2
 384 347 l 1
 527 573 l 2
 536 588 541 600 541 610 c 0
 541 634 524 642 472 643 c 1
 472 662 l 1
 691 662 l 1
EndSplineSet
Validated: 1
Layer: 2
SplineSet
691 662 m 1,0,-1
 691 643 l 1,1,2
 652 640 652 640 624 617.5 c 128,-1,3
 596 595 596 595 553 529 c 2,4,-1
 405 303 l 1,5,-1
 405 109 l 2,6,7
 405 52 405 52 423 36.5 c 128,-1,8
 441 21 441 21 508 19 c 1,9,-1
 508 0 l 1,10,-1
 202 0 l 1,11,-1
 202 19 l 1,12,13
 270 22 270 22 286.5 38.5 c 128,-1,14
 303 55 303 55 303 120 c 2,15,-1
 303 294 l 1,16,-1
 172 486 l 2,17,18
 85 613 85 613 53 632 c 0,19,20
 36 642 36 642 10 643 c 1,21,-1
 10 662 l 1,22,-1
 290 662 l 1,23,-1
 290 643 l 1,24,25
 219 638 219 638 219 613 c 0,26,27
 219 594 219 594 236 569 c 2,28,-1
 384 347 l 1,29,-1
 527 573 l 2,30,31
 541 596 541 596 541 612 c 128,-1,32
 541 628 541 628 526 635 c 128,-1,33
 511 642 511 642 472 643 c 1,34,-1
 472 662 l 1,35,-1
 691 662 l 1,0,-1
EndSplineSet
Validated: 1
EndChar

StartChar: Z
Encoding: 90 90 118
Width: 613
Flags: W
HStem: 0 38<146 498.685> 624 38<123.111 447>
VStem: 32 26<491 543.391> 575 23<141.833 176>
DStem2: 10 15 146 38 0.583004 0.81247<97.9753 749.567>
LayerCount: 3
Fore
SplineSet
403 38 m 2
 538 38 555 110 575 176 c 1
 598 176 l 1
 574 0 l 1
 10 0 l 1
 10 15 l 1
 447 624 l 1
 226 624 l 2
 84 624 70 559 58 491 c 1
 32 491 l 1
 52 662 l 1
 578 662 l 1
 578 647 l 1
 146 38 l 1
 403 38 l 2
EndSplineSet
Validated: 1
Layer: 2
SplineSet
403 38 m 2,0,1
 446 38 446 38 492 53 c 0,2,3
 508 58 508 58 521.5 72 c 128,-1,4
 535 86 535 86 544 96 c 0,5,6
 554 106 554 106 575 176 c 1,7,-1
 598 176 l 1,8,-1
 574 0 l 1,9,-1
 10 0 l 1,10,-1
 10 15 l 1,11,-1
 447 624 l 1,12,-1
 226 624 l 2,13,14
 124 624 124 624 92 582 c 0,15,16
 76 560 76 560 70 542 c 128,-1,17
 64 524 64 524 58 491 c 1,18,-1
 32 491 l 1,19,-1
 52 662 l 1,20,-1
 578 662 l 1,21,-1
 578 647 l 1,22,-1
 146 38 l 1,23,-1
 403 38 l 2,0,1
EndSplineSet
Validated: 1
EndChar

StartChar: asciicircum
Encoding: 94 94 119
Width: 469
Flags: W
HStem: 586 76<167 303>
DStem2: 24 297 92 297 0.444266 0.895895<30.2101 352.654> 265 662 235 586 0.444266 -0.895895<54.7601 377.204>
LayerCount: 3
Fore
SplineSet
92 297 m 1
 24 297 l 1
 205 662 l 1
 265 662 l 1
 446 297 l 1
 378 297 l 1
 235 586 l 1
 92 297 l 1
EndSplineSet
Validated: 1
Layer: 2
SplineSet
92 297 m 1,0,-1
 24 297 l 1,1,-1
 205 662 l 1,2,-1
 265 662 l 1,3,-1
 446 297 l 1,4,-1
 378 297 l 1,5,-1
 235 586 l 1,6,-1
 92 297 l 1,0,-1
EndSplineSet
Validated: 1
EndChar

StartChar: underscore
Encoding: 95 95 120
Width: 500
VWidth: 999
Flags: W
HStem: 0 24<12 488>
LayerCount: 3
Fore
SplineSet
12 24 m 1
 500 24 l 1
 488 0 l 1
 0 0 l 1
 12 24 l 1
EndSplineSet
Validated: 1
Layer: 2
SplineSet
12 24 m 1,0,-1
 500 24 l 1,1,-1
 488 0 l 1,2,-1
 0 0 l 1,3,-1
 12 24 l 1,0,-1
EndSplineSet
Validated: 1
EndChar

StartChar: grave
Encoding: 96 96 121
Width: 250
Flags: W
HStem: 507 171
VStem: 19 223
LayerCount: 3
Fore
SplineSet
242 507 m 5
 202 507 l 1
 48 604 l 2
 30 616 19 631 19 647 c 0
 19 666 32 678 53 678 c 0
 68 678 77 673 95 655 c 2
 242 507 l 5
EndSplineSet
Validated: 19457
Layer: 2
SplineSet
242 507 m 1,0,-1
 202 507 l 1,1,-1
 48 604 l 2,2,3
 19 623 19 623 19 647 c 0,4,5
 19 678 19 678 53 678 c 0,6,7
 72 678 72 678 95 655 c 2,8,-1
 242 507 l 1,0,-1
EndSplineSet
Validated: 1
EndChar

StartChar: a
Encoding: 97 97 122
Width: 435
Flags: W
HStem: -10 58<99.5 205.493 319.5 400.598> 436 24<152.767 242.713>
VStem: 25 88<66.7336 165.371> 44 83<310.859 403.823> 275 81<73.7695 268 285.046 406.606>
LayerCount: 3
Fore
SplineSet
25 97 m 0xe8
 25 205 151 242 275 292 c 1
 275 353 l 2
 275 407 248 436 199 436 c 0
 159 436 127 414 127 387 c 0
 127 373 132 356 132 347 c 0
 132 325 111 305 87 305 c 0
 64 305 44 325 44 348 c 0xd8
 44 411 118 460 212 460 c 0
 328 460 356 400 356 300 c 2
 356 105 l 2
 356 61 363 47 386 47 c 0
 401 47 413 52 430 66 c 1
 430 40 l 1
 395 2 374 -10 340 -10 c 0
 299 -10 281 11 276 63 c 1
 215 11 174 -10 130 -10 c 0
 69 -10 25 34 25 97 c 0xe8
275 123 m 2
 275 268 l 1
 154 224 113 188 113 129 c 0xe8
 113 68.8018 150.8 48 176 48 c 0
 197 48 225 57 249 71 c 0
 270 83 275 92 275 123 c 2
EndSplineSet
Validated: 1
Layer: 2
SplineSet
127 387 m 1,0,-1
 132 347 l 1,1,2
 132 330 132 330 118.5 317.5 c 128,-1,3
 105 305 105 305 87.5 305 c 128,-1,4
 70 305 70 305 57 318 c 128,-1,5
 44 331 44 331 44 348 c 0,6,7
 44 395 44 395 92.5 427.5 c 128,-1,8
 141 460 141 460 217.5 460 c 128,-1,9
 294 460 294 460 325 420.5 c 128,-1,10
 356 381 356 381 356 300 c 2,11,-1
 356 105 l 2,12,13
 356 72 356 72 362.5 59.5 c 128,-1,14
 369 47 369 47 388 47 c 128,-1,15
 407 47 407 47 430 66 c 1,16,-1
 430 40 l 1,17,18
 404 11 404 11 384.5 0.5 c 128,-1,19
 365 -10 365 -10 337 -10 c 128,-1,20
 309 -10 309 -10 294.5 7 c 128,-1,21
 280 24 280 24 276 63 c 1,22,23
 190 -10 190 -10 130 -10 c 0,24,25
 84 -10 84 -10 54.5 20 c 128,-1,26
 25 50 25 50 25 93 c 0,27,28
 25 135 25 135 39 154 c 0,29,30
 61 184 61 184 62 185 c 0,31,32
 72 196 72 196 109 219 c 128,-1,33
 146 242 146 242 275 292 c 1,34,-1
 275 353 l 2,35,36
 275 436 275 436 199 436 c 0,37,38
 169 436 169 436 148 421.5 c 128,-1,39
 127 407 127 407 127 387 c 1,0,-1
275 123 m 2,40,-1
 275 268 l 1,41,42
 185 235 185 235 149 204 c 128,-1,43
 113 173 113 173 113 130.5 c 128,-1,44
 113 88 113 88 133 68 c 128,-1,45
 153 48 153 48 181.5 48 c 128,-1,46
 210 48 210 48 249 71 c 0,47,48
 265 80 265 80 270 90 c 128,-1,49
 275 100 275 100 275 123 c 2,40,-1
EndSplineSet
Validated: 1
EndChar

StartChar: b
Encoding: 98 98 123
Width: 500
Flags: W
HStem: -10 32<188.04 317.464> 397 63<219.105 322.612> 623 16<10 26.6741> 663 20G<131.016 160>
VStem: 76 84<41.004 367.28 375 620.992> 387 88<136.397 315.81>
LayerCount: 3
Fore
SplineSet
160 681 m 1
 160 375 l 1
 180 424 238 460 299 460 c 0
 399 460 475 366 475 243 c 0
 475 100 373 -10 241 -10 c 0
 161 -10 76 23 76 54 c 2
 76 573 l 2
 76 615 67 624 27 624 c 0
 20 624 16 624 10 623 c 1
 10 639 l 1
 58.6621 651.105 107.032 665.49 155 683 c 1
 160 681 l 1
160 322 m 2
 160 70 l 2
 160 45 205 22 257 22 c 0
 339 22 387 86 387 197 c 0
 387 319 337 397 259 397 c 0
 207 397 160 361 160 322 c 2
EndSplineSet
Validated: 1
Layer: 2
SplineSet
160 681 m 1,0,-1
 160 375 l 1,1,2
 175 412 175 412 214 436 c 128,-1,3
 253 460 253 460 299 460 c 0,4,5
 374 460 374 460 424.5 397.5 c 128,-1,6
 475 335 475 335 475 235.5 c 128,-1,7
 475 136 475 136 407.5 63 c 128,-1,8
 340 -10 340 -10 241 -10 c 0,9,10
 181 -10 181 -10 128.5 10.5 c 128,-1,11
 76 31 76 31 76 54 c 2,12,-1
 76 573 l 2,13,14
 76 604 76 604 66.5 614 c 128,-1,15
 57 624 57 624 36.5 624 c 128,-1,16
 16 624 16 624 10 623 c 1,17,-1
 10 639 l 1,18,19
 87 658 87 658 155 683 c 1,20,-1
 160 681 l 1,0,-1
160 322 m 2,21,-1
 160 70 l 2,22,23
 160 51 160 51 189 36.5 c 128,-1,24
 218 22 218 22 257 22 c 0,25,26
 319 22 319 22 353 68 c 128,-1,27
 387 114 387 114 387 201 c 128,-1,28
 387 288 387 288 352.5 342.5 c 128,-1,29
 318 397 318 397 259 397 c 0,30,31
 220 397 220 397 190 374 c 128,-1,32
 160 351 160 351 160 322 c 2,21,-1
EndSplineSet
Validated: 1
EndChar

StartChar: c
Encoding: 99 99 124
Width: 444
Flags: W
HStem: -10 72<184.362 297.679> 431 29<181.036 279.846>
VStem: 25 77<153.814 322.927> 303 95<324.666 383>
LayerCount: 3
Fore
SplineSet
25 213 m 0
 25 367 133 460 244 460 c 0
 328 460 398 413 398 357 c 0
 398 334 376 315 350 315 c 0
 329 315 311 333 303 361 c 2
 297 383 l 2
 287 420 274 431 238 431 c 0
 157 431 102 360 102 257 c 0
 102 142 166 62 257 62 c 0
 314 62 350 86 398 156 c 1
 412 147 l 1
 391 106 333 -10 215 -10 c 0
 104 -10 25 83 25 213 c 0
EndSplineSet
Validated: 1
Layer: 2
SplineSet
412 147 m 1,0,1
 334 -10 334 -10 215 -10 c 0,2,3
 132 -10 132 -10 78.5 52.5 c 128,-1,4
 25 115 25 115 25 219.5 c 128,-1,5
 25 324 25 324 90.5 392 c 128,-1,6
 156 460 156 460 244 460 c 0,7,8
 307 460 307 460 352.5 429.5 c 128,-1,9
 398 399 398 399 398 357 c 0,10,11
 398 340 398 340 384 327.5 c 128,-1,12
 370 315 370 315 350 315 c 0,13,14
 316 315 316 315 303 361 c 2,15,-1
 297 383 l 2,16,17
 289 411 289 411 277 421 c 128,-1,18
 265 431 265 431 238 431 c 0,19,20
 177 431 177 431 139.5 382.5 c 128,-1,21
 102 334 102 334 102 252.5 c 128,-1,22
 102 171 102 171 145.5 116.5 c 128,-1,23
 189 62 189 62 257 62 c 0,24,25
 300 62 300 62 331 82.5 c 128,-1,26
 362 103 362 103 398 156 c 1,27,-1
 412 147 l 1,0,1
EndSplineSet
Validated: 1
EndChar

StartChar: d
Encoding: 100 100 125
Width: 499
Flags: W
HStem: -10 52<184.033 291.394> 432 28<185.197 284.996> 623 16<270 291.626> 663 20G<393 422>
VStem: 25 86<127.042 316.819> 338 84<66.838 390.874 417 621.16>
LayerCount: 3
Fore
SplineSet
342 -10 m 1
 338 -7 l 1
 338 57 l 1
 304 10 266 -10 210 -10 c 0
 100 -10 25 77 25 205 c 0
 25 347 118 460 233 460 c 0
 273 460 300 449 338 417 c 1
 338 573 l 2
 338 614 329 624 292 624 c 0
 284 624 278 624 270 623 c 1
 270 639 l 1
 334 656 369 666 417 683 c 1
 422 681 l 1
 422 114 l 2
 422 68 430 57 466 57 c 0
 469 57 471 57 489 58 c 1
 489 42 l 1
 342 -10 l 1
249 42 m 0
 306 42 338 85 338 102 c 2
 338 332 l 2
 338 385 289 432 236 432 c 0
 160 432 111 358 111 245 c 0
 111 122 166 42 249 42 c 0
EndSplineSet
Validated: 1
Layer: 2
SplineSet
342 -10 m 1,0,-1
 338 -7 l 1,1,-1
 338 57 l 1,2,3
 290 -10 290 -10 208.5 -10 c 128,-1,4
 127 -10 127 -10 76 49.5 c 128,-1,5
 25 109 25 109 25 210 c 128,-1,6
 25 311 25 311 86 385.5 c 128,-1,7
 147 460 147 460 233 460 c 0,8,9
 287 460 287 460 338 417 c 1,10,-1
 338 573 l 2,11,12
 338 604 338 604 329 614 c 128,-1,13
 320 624 320 624 299 624 c 128,-1,14
 278 624 278 624 270 623 c 1,15,-1
 270 639 l 1,16,17
 361 663 361 663 417 683 c 1,18,-1
 422 681 l 1,19,-1
 422 114 l 2,20,21
 422 79 422 79 430.5 68 c 128,-1,22
 439 57 439 57 466 57 c 0,23,24
 471 57 471 57 489 58 c 1,25,-1
 489 42 l 1,26,-1
 342 -10 l 1,0,-1
249 42 m 0,27,28
 287 42 287 42 312.5 63.5 c 128,-1,29
 338 85 338 85 338 102 c 2,30,-1
 338 332 l 2,31,32
 338 372 338 372 307 402 c 128,-1,33
 276 432 276 432 236 432 c 0,34,35
 179 432 179 432 145 381 c 128,-1,36
 111 330 111 330 111 241.5 c 128,-1,37
 111 153 111 153 149 97.5 c 128,-1,38
 187 42 187 42 249 42 c 0,27,28
EndSplineSet
Validated: 1
EndChar

StartChar: e
Encoding: 101 101 126
Width: 444
Flags: W
HStem: -10 69<180.291 303.739> 277 32<99 303> 424 36<149.903 263.03>
VStem: 25 72<158.961 277 309 329.86>
LayerCount: 3
Fore
SplineSet
97 277 m 1
 103 99 188 59 253 59 c 0
 317 59 360 88 408 164 c 1
 424 157 l 1
 382 49 307 -10 212 -10 c 0
 97 -10 25 76 25 214 c 0
 25 363 113 460 234 460 c 0
 337 460 390 398 405 277 c 1
 97 277 l 1
99 309 m 1
 303 309 l 1
 290 396 266 424 205 424 c 0
 144 424 110 387 99 309 c 1
EndSplineSet
Validated: 1
Layer: 2
SplineSet
424 157 m 1,0,1
 360 -10 360 -10 204 -10 c 0,2,3
 126 -10 126 -10 75.5 50.5 c 128,-1,4
 25 111 25 111 25 218 c 128,-1,5
 25 325 25 325 83.5 392.5 c 128,-1,6
 142 460 142 460 234 460 c 0,7,8
 310 460 310 460 352 414.5 c 128,-1,9
 394 369 394 369 405 277 c 1,10,-1
 97 277 l 1,11,12
 101 149 101 149 149 104 c 128,-1,13
 197 59 197 59 249 59 c 128,-1,14
 301 59 301 59 336.5 83 c 128,-1,15
 372 107 372 107 408 164 c 1,16,-1
 424 157 l 1,0,1
99 309 m 1,17,-1
 303 309 l 1,18,19
 293 374 293 374 272 399 c 128,-1,20
 251 424 251 424 205 424 c 0,21,22
 115 424 115 424 99 309 c 1,17,-1
EndSplineSet
Validated: 1
EndChar

StartChar: f
Encoding: 102 102 127
Width: 373
Flags: W
HStem: 0 15<10 59.3046 212.095 270> 418 32<11 93 177 299> 655 28<198.225 299>
VStem: 93 84<28.3135 418 450 584.057>
LayerCount: 3
Fore
SplineSet
331 580 m 0
 283 580 290 655 233 655 c 0
 195 655 176 624 176 566 c 2
 176 450 l 1
 299 450 l 1
 299 418 l 1
 177 418 l 1
 177 104 l 2
 177 29 188 18 270 15 c 1
 270 0 l 1
 10 0 l 1
 10 15 l 1
 82 19 93 31 93 104 c 2
 93 418 l 1
 11 418 l 1
 11 450 l 1
 93 450 l 1
 95 589 137 683 269 683 c 0
 329 683 373 657 373 621 c 0
 373 598 354 580 331 580 c 0
EndSplineSet
Validated: 1
Layer: 2
SplineSet
360.5 592 m 128,-1,1
 348 580 348 580 331.5 580 c 128,-1,2
 315 580 315 580 303.5 591.5 c 128,-1,3
 292 603 292 603 285.5 617.5 c 128,-1,4
 279 632 279 632 265.5 643.5 c 128,-1,5
 252 655 252 655 233 655 c 0,6,7
 176 655 176 655 176 566 c 2,8,-1
 176 450 l 1,9,-1
 299 450 l 1,10,-1
 299 418 l 1,11,-1
 177 418 l 1,12,-1
 177 104 l 2,13,14
 177 48 177 48 193 32.5 c 128,-1,15
 209 17 209 17 270 15 c 1,16,-1
 270 0 l 1,17,-1
 10 0 l 1,18,-1
 10 15 l 1,19,20
 64 18 64 18 78.5 33.5 c 128,-1,21
 93 49 93 49 93 104 c 2,22,-1
 93 418 l 1,23,-1
 11 418 l 1,24,-1
 11 450 l 1,25,-1
 93 450 l 1,26,27
 95 562 95 562 135 622.5 c 128,-1,28
 175 683 175 683 269 683 c 0,29,30
 314 683 314 683 343.5 665.5 c 128,-1,31
 373 648 373 648 373 626 c 128,-1,0
 373 604 373 604 360.5 592 c 128,-1,1
EndSplineSet
Validated: 1
EndChar

StartChar: g
Encoding: 103 103 128
Width: 467
Flags: W
HStem: -218 57<123.716 307.166> -15 79<135.581 390.416> 149 25<199.645 281.514> 388 39<374.409 457> 432 28<171.949 256.204>
VStem: 15 70<-128.683 -67.1825> 56 83<230.739 378.073> 60 60<43.5 97.9692> 316 77<224.278 368.005> 420 28<-101.821 -34.2394>
LayerCount: 3
Fore
SplineSet
60 54 m 0xf9c0
 60 80 70 89 149 163 c 1
 83 196 56 234 56 297 c 0xfac0
 56 388 130 460 223 460 c 0
 297.575 460 319.163 427 380 427 c 2
 457 427 l 1
 457 388 l 1
 374 388 l 1
 388 356 393 333 393 304 c 0
 393 208 317 149 237 149 c 0
 225.6 149 191.371 152.737 180 154 c 1
 153 146 120 111 120 91 c 0xf9c0
 120 75 145 66 198 64 c 2
 327 58 l 2
 401 55 448 13 448 -49 c 0
 448 -150.4 306.193 -218 188 -218 c 0
 93 -218 15 -174 15 -121 c 0xfcc0
 15 -84 42 -51 113 1 c 1
 72 21 60 33 60 54 c 0xf9c0
134 -2 m 1
 92 -52 85 -65 85 -88 c 0xfcc0
 85 -132 143 -161 231 -161 c 0
 344 -161 420 -122 420 -64 c 0
 420 -28 387 -15 296 -15 c 0
 247 -15 167 -9 134 -2 c 1
316 265 m 0
 316 298 301 432 213 432 c 0
 167 432 139 397 139 338 c 0xfac0
 139 210.824 200.2 174 241 174 c 0
 287 174 316 209 316 265 c 0
EndSplineSet
Validated: 1
Layer: 2
SplineSet
71 27 m 128,-1,1
 60 38 60 38 60 55.5 c 128,-1,2
 60 73 60 73 73.5 89 c 128,-1,3
 87 105 87 105 149 163 c 1,4,5
 99 188 99 188 77.5 219 c 128,-1,6
 56 250 56 250 56 297 c 0,7,8
 56 365 56 365 104.5 412.5 c 128,-1,9
 153 460 153 460 223 460 c 0,10,11
 262 460 262 460 306.5 443.5 c 128,-1,12
 351 427 351 427 380 427 c 2,13,-1
 457 427 l 1,14,-1
 457 388 l 1,15,-1
 374 388 l 1,16,17
 393 345 393 345 393 304 c 0,18,19
 393 235 393 235 346.5 192 c 128,-1,20
 300 149 300 149 237 149 c 0,21,22
 225 149 225 149 180 154 c 1,23,24
 160 148 160 148 140 127 c 128,-1,25
 120 106 120 106 120 91 c 0,26,27
 120 67 120 67 198 64 c 2,28,-1
 327 58 l 2,29,30
 382 56 382 56 415 27 c 128,-1,31
 448 -2 448 -2 448 -49 c 0,32,33
 448 -121 448 -121 365.5 -169.5 c 128,-1,34
 283 -218 283 -218 200 -218 c 128,-1,35
 117 -218 117 -218 66 -189.5 c 128,-1,36
 15 -161 15 -161 15 -121 c 0,37,38
 15 -93 15 -93 37.5 -65.5 c 128,-1,39
 60 -38 60 -38 113 1 c 1,40,0
 82 16 82 16 71 27 c 128,-1,1
134 -2 m 1,41,42
 103 -39 103 -39 94 -55 c 128,-1,43
 85 -71 85 -71 85 -88 c 0,44,45
 85 -121 85 -121 125 -141 c 128,-1,46
 165 -161 165 -161 240.5 -161 c 128,-1,47
 316 -161 316 -161 368 -134 c 128,-1,48
 420 -107 420 -107 420 -64 c 0,49,50
 420 -37 420 -37 392 -26 c 128,-1,51
 364 -15 364 -15 279.5 -15 c 128,-1,52
 195 -15 195 -15 134 -2 c 1,41,42
302 348 m 1,53,54
 273 432 273 432 213 432 c 1,55,56
 178 432 178 432 158.5 407 c 128,-1,57
 139 382 139 382 139 338 c 0,58,59
 139 252 139 252 171 213 c 128,-1,60
 203 174 203 174 239.5 174 c 128,-1,61
 276 174 276 174 296 198.5 c 128,-1,62
 316 223 316 223 316 264.5 c 128,-1,63
 316 306 316 306 302 348 c 1,53,54
EndSplineSet
Validated: 1
EndChar

StartChar: h
Encoding: 104 104 129
Width: 498
Flags: W
HStem: 0 15<10 44.4688 189.229 226 276 312.771 459.013 488> 406 54<223.642 320.65> 623 16<11 27.8116> 663 20G<125 158>
VStem: 74 84<26.9707 364.21 376 622.626> 344 84<27.2344 380.953>
LayerCount: 3
Fore
SplineSet
158 343 m 1
 158 102 l 2
 158 33 168 21 226 15 c 1
 226 0 l 1
 10 0 l 1
 10 15 l 1
 68 23 74 32 74 102 c 2
 74 573 l 2
 74 616 66.667 625 28 625 c 0
 24.0625 625 14.9092 623.818 11 623 c 1
 11 639 l 1
 68 654 97 663 153 683 c 1
 158 680 l 1
 158 376 l 1
 204 436 246 460 305 460 c 0
 386 460 428 406 428 301 c 2
 428 102 l 2
 428 33 434 25 488 15 c 1
 488 0 l 1
 276 0 l 1
 276 15 l 1
 334 21 344 34 344 102 c 2
 344 300 l 2
 344 370 319 406 269 406 c 0
 230 406 200 389 158 343 c 1
EndSplineSet
Validated: 1
Layer: 2
SplineSet
158 343 m 1,0,-1
 158 102 l 2,1,2
 158 50 158 50 170 35 c 128,-1,3
 182 20 182 20 226 15 c 1,4,-1
 226 0 l 1,5,-1
 10 0 l 1,6,-1
 10 15 l 1,7,8
 53 21 53 21 63.5 35 c 128,-1,9
 74 49 74 49 74 102 c 2,10,-1
 74 573 l 2,11,12
 74 605 74 605 65.5 615 c 128,-1,13
 57 625 57 625 39 625 c 128,-1,14
 21 625 21 625 11 623 c 1,15,-1
 11 639 l 1,16,17
 82 658 82 658 153 683 c 1,18,-1
 158 680 l 1,19,-1
 158 376 l 1,20,21
 193 421 193 421 227 440.5 c 128,-1,22
 261 460 261 460 305 460 c 0,23,24
 428 460 428 460 428 301 c 2,25,-1
 428 102 l 2,26,27
 428 50 428 50 437.5 36.5 c 128,-1,28
 447 23 447 23 488 15 c 1,29,-1
 488 0 l 1,30,-1
 276 0 l 1,31,-1
 276 15 l 1,32,33
 319 19 319 19 331.5 35 c 128,-1,34
 344 51 344 51 344 102 c 2,35,-1
 344 300 l 2,36,37
 344 406 344 406 269 406 c 0,38,39
 240 406 240 406 214.5 391.5 c 128,-1,40
 189 377 189 377 158 343 c 1,0,-1
EndSplineSet
Validated: 1
EndChar

StartChar: i
Encoding: 105 105 130
Width: 278
Flags: W
HStem: 0 15<16 64.8977 208.246 253> 390 15<20 44.2187> 440 20G<149.167 179> 581 102<87.3961 170.485>
VStem: 78 102<590.456 673.544> 95 84<26.9614 391.6>
LayerCount: 3
Fore
SplineSet
62 393 m 0xf4
 53 393 35.3333 392.333 20 390 c 1
 20 405 l 1
 71.6667 419.597 123.333 438.595 175 460 c 1
 179 457 l 1
 179 102 l 2
 179 30 187 20 253 15 c 1
 253 0 l 1
 16 0 l 1
 16 15 l 1
 85 19 95 30 95 102 c 2
 95 334 l 2
 95 378 86 393 62 393 c 0xf4
128 683 m 0
 157 683 180 660 180 632 c 0
 180 603 157 581 128 581 c 0
 100 581 78 604 78 632 c 0xf8
 78 660 101 683 128 683 c 0
EndSplineSet
Validated: 1
Layer: 2
SplineSet
87.5 380 m 128,-1,1
 80 393 80 393 60 393 c 128,-1,2
 40 393 40 393 20 390 c 1,3,-1
 20 405 l 1,4,5
 90 425 90 425 175 460 c 1,6,-1
 179 457 l 1,7,-1
 179 102 l 2,8,9
 179 48 179 48 191.5 33.5 c 128,-1,10
 204 19 204 19 253 15 c 1,11,-1
 253 0 l 1,12,-1
 16 0 l 1,13,-1
 16 15 l 1,14,15
 68 18 68 18 81.5 33 c 128,-1,16
 95 48 95 48 95 102 c 2,17,-1
 95 334 l 2,18,0
 95 367 95 367 87.5 380 c 128,-1,1
93 668 m 128,-1,20
 108 683 108 683 129 683 c 128,-1,21
 150 683 150 683 165 668 c 128,-1,22
 180 653 180 653 180 631.5 c 128,-1,23
 180 610 180 610 165 595.5 c 128,-1,24
 150 581 150 581 128.5 581 c 128,-1,25
 107 581 107 581 92.5 596 c 128,-1,26
 78 611 78 611 78 632 c 128,-1,19
 78 653 78 653 93 668 c 128,-1,20
EndSplineSet
Validated: 1
EndChar

StartChar: j
Encoding: 106 106 131
Width: 348
Flags: W
HStem: -218 34<67 162.803> 390 16<102 125.762> 440 20G<228.5 263> 581 102<171.396 254.485>
VStem: 162 102<590.456 673.544> 179 84<-122.635 391.526>
LayerCount: 3
Fore
SplineSet
147 393 m 0xf4
 123 393 102 390 102 390 c 1
 102 406 l 1
 161 424 199 437 258 460 c 1
 263 457 l 1
 263 0 l 2
 263 -142 204 -218 94 -218 c 0
 40 -218 0 -195 0 -163 c 0
 0 -141 18 -124 41 -124 c 0
 82 -124 93 -184 131 -184 c 0
 173 -184 179 -139 179 -45 c 2
 179 334 l 2
 179 377 170 393 147 393 c 0xf4
212 683 m 0
 241 683 264 660 264 632 c 0
 264 603 241 581 212 581 c 0
 184 581 162 604 162 632 c 0xf8
 162 660 185 683 212 683 c 0
EndSplineSet
Validated: 1
Layer: 2
SplineSet
147 393 m 1,0,1
 102 390 l 1,2,-1
 102 406 l 1,3,4
 182 431 182 431 258 460 c 1,5,-1
 263 457 l 1,6,-1
 263 0 l 2,7,8
 263 -106 263 -106 220 -162 c 128,-1,9
 177 -218 177 -218 94 -218 c 0,10,11
 53 -218 53 -218 26.5 -202.5 c 128,-1,12
 0 -187 0 -187 0 -167 c 128,-1,13
 0 -147 0 -147 12 -135.5 c 128,-1,14
 24 -124 24 -124 43 -124 c 128,-1,15
 62 -124 62 -124 87 -154 c 128,-1,16
 112 -184 112 -184 131 -184 c 0,17,18
 161 -184 161 -184 170 -153 c 128,-1,19
 179 -122 179 -122 179 -45 c 2,20,-1
 179 334 l 2,21,22
 179 366 179 366 171.5 379.5 c 128,-1,23
 164 393 164 393 147 393 c 1,0,1
177 668 m 128,-1,25
 192 683 192 683 213 683 c 128,-1,26
 234 683 234 683 249 668 c 128,-1,27
 264 653 264 653 264 631.5 c 128,-1,28
 264 610 264 610 249 595.5 c 128,-1,29
 234 581 234 581 212.5 581 c 128,-1,30
 191 581 191 581 176.5 596 c 128,-1,31
 162 611 162 611 162 632 c 128,-1,24
 162 653 162 653 177 668 c 128,-1,25
EndSplineSet
Validated: 1
EndChar

StartChar: k
Encoding: 107 107 132
Width: 513
Flags: W
HStem: 0 15<10 48.0356 207.166 244 290 327.547 471.622 508> 436 14<279 322.951 433.532 483> 623 16<10 40.0744> 663 20G<137.667 169>
VStem: 85 84<27.832 251 261 621.836>
DStem2: 169 261 238 282 0.746808 0.66504<65.4956 222.978> 238 282 169 251 0.619251 -0.785194<0 254.465>
LayerCount: 3
Fore
SplineSet
10 623 m 1
 10 639 l 1
 72 654 110.333 664.667 165 683 c 1
 169 681 l 1
 169 261 l 1
 306 383 l 2
 320 395 329 409 329 417 c 0
 329 431 318 435 279 436 c 1
 279 450 l 1
 483 450 l 1
 483 435 l 1
 434.464 435 400.732 433.51 267 309 c 2
 238 282 l 1
 391 88 l 2
 433 37 464 18 508 15 c 1
 508 0 l 1
 290 0 l 1
 290 15 l 1
 317 15 330 17 330 30 c 0
 330 40 317 52 309 64 c 2
 169 251 l 1
 169 80 l 2
 169 31.5 175 26.5 244 15 c 1
 244 0 l 1
 10 0 l 1
 10 15 l 1
 82 27 85 30 85 82 c 2
 85 564 l 2
 85 612 75 625 42 625 c 0
 32 625 21.6367 624.273 10 623 c 1
EndSplineSet
Validated: 1
Layer: 2
SplineSet
10 623 m 1,0,-1
 10 639 l 1,1,2
 95 660 95 660 165 683 c 1,3,-1
 169 681 l 1,4,-1
 169 261 l 1,5,-1
 306 383 l 2,6,7
 329 403 329 403 329 415 c 128,-1,8
 329 427 329 427 318.5 431 c 128,-1,9
 308 435 308 435 279 436 c 1,10,-1
 279 450 l 1,11,-1
 483 450 l 1,12,-1
 483 435 l 1,13,14
 460 435 460 435 446.5 432.5 c 128,-1,15
 433 430 433 430 408 419 c 0,16,17
 367 401 367 401 267 309 c 2,18,-1
 238 282 l 1,19,-1
 391 88 l 2,20,21
 422 50 422 50 448.5 33.5 c 128,-1,22
 475 17 475 17 508 15 c 1,23,-1
 508 0 l 1,24,-1
 290 0 l 1,25,-1
 290 15 l 1,26,27
 330 15 330 15 330 30 c 0,28,29
 330 38 330 38 320.5 49 c 128,-1,30
 311 60 311 60 309 64 c 2,31,-1
 169 251 l 1,32,-1
 169 80 l 2,33,34
 169 44 169 44 180.5 34 c 128,-1,35
 192 24 192 24 244 15 c 1,36,-1
 244 0 l 1,37,-1
 10 0 l 1,38,-1
 10 15 l 1,39,40
 64 24 64 24 74.5 33.5 c 128,-1,41
 85 43 85 43 85 82 c 2,42,-1
 85 564 l 2,43,44
 85 600 85 600 76 612.5 c 128,-1,45
 67 625 67 625 47.5 625 c 128,-1,46
 28 625 28 625 10 623 c 1,0,-1
EndSplineSet
Validated: 1
EndChar

StartChar: l
Encoding: 108 108 133
Width: 258
Flags: W
HStem: 0 15<12 56.0693 201.079 248> 623 16<10 40.2449> 663 20G<143 173>
VStem: 89 84<28.0774 622.078>
LayerCount: 3
Fore
SplineSet
10 623 m 1
 10 639 l 1
 79 656 117 666 169 683 c 1
 173 681 l 1
 173 84 l 2
 173 29 185 19 248 15 c 1
 248 0 l 1
 12 0 l 1
 12 15 l 1
 75 20 89 33 89 87 c 2
 89 564 l 2
 89 611 79 625 47 625 c 0
 33.7754 625 22.667 624.5 10 623 c 1
EndSplineSet
Validated: 1
Layer: 2
SplineSet
10 623 m 1,0,-1
 10 639 l 1,1,2
 109 663 109 663 169 683 c 1,3,-1
 173 681 l 1,4,-1
 173 84 l 2,5,6
 173 43 173 43 186.5 30.5 c 128,-1,7
 200 18 200 18 248 15 c 1,8,-1
 248 0 l 1,9,-1
 12 0 l 1,10,-1
 12 15 l 1,11,12
 59 19 59 19 74 33 c 128,-1,13
 89 47 89 47 89 87 c 2,14,-1
 89 564 l 2,15,16
 89 599 89 599 80 612 c 128,-1,17
 71 625 71 625 49 625 c 128,-1,18
 27 625 27 625 10 623 c 1,0,-1
EndSplineSet
Validated: 1
EndChar

StartChar: m
Encoding: 109 109 134
Width: 779
Flags: W
HStem: 0 15<10 53.9987 187.193 232 280 321.029 460.503 504 550 588.007 743 769> 398 17<13 41.9731> 408 52<240.541 327.777 498.129 597.802>
VStem: 80 84<24.384 372.979 383 399.885> 348 84<26.085 373.205> 616 84<25.1622 390.068>
CounterMasks: 1 1c
LayerCount: 3
Fore
SplineSet
13 398 m 1xdc
 13 415 l 1xdc
 68 430 102 441 153 460 c 1
 160 458 l 1
 160 383 l 1
 243 446 271 460 315 460 c 0
 369 460 403 433 421 376 c 1
 475 434 526 460 584 460 c 0
 661 460 700 400 700 282 c 2
 700 76 l 2
 700 37 713 19 743 17 c 2
 769 15 l 1
 769 0 l 1
 550 0 l 1
 550 15 l 1
 608 22 616 30 616 87 c 2
 616 298 l 2
 616 381 598 408 541 408 c 0
 495 408 462 390 432 347 c 1
 432 95 l 2
 432 33 447 16 504 15 c 1
 504 0 l 1
 280 0 l 1
 280 15 l 1
 337 19 348 30 348 86 c 2
 348 303 l 2
 348 373 326 408 282 408 c 0xbc
 252.718 408 195.384 394.65 164 349 c 1
 164 67 l 2
 164 28 179 17 232 15 c 1
 232 0 l 1
 10 0 l 1
 10 15 l 1
 66 16 80 31 80 85 c 2
 80 338 l 2
 80 386 71 402 45 402 c 0
 34 402 26 401 13 398 c 1xdc
EndSplineSet
Validated: 1
Layer: 2
SplineSet
13 398 m 1,0,-1
 13 415 l 1,1,2
 85 435 85 435 153 460 c 1,3,-1
 160 458 l 1,4,-1
 160 383 l 1,5,6
 222 430 222 430 252 445 c 128,-1,7
 282 460 282 460 315 460 c 0,8,9
 394 460 394 460 421 376 c 1,10,11
 499 460 499 460 584 460 c 0,12,13
 700 460 700 460 700 282 c 2,14,-1
 700 76 l 2,15,16
 700 20 700 20 743 17 c 2,17,-1
 769 15 l 1,18,-1
 769 0 l 1,19,-1
 550 0 l 1,20,-1
 550 15 l 1,21,22
 594 20 594 20 605 32 c 128,-1,23
 616 44 616 44 616 87 c 2,24,-1
 616 298 l 2,25,26
 616 360 616 360 600 384 c 128,-1,27
 584 408 584 408 541 408 c 0,28,29
 475 408 475 408 432 347 c 1,30,-1
 432 95 l 2,31,32
 432 48 432 48 446.5 32 c 128,-1,33
 461 16 461 16 504 15 c 1,34,-1
 504 0 l 1,35,-1
 280 0 l 1,36,-1
 280 15 l 1,37,38
 323 18 323 18 335.5 31 c 128,-1,39
 348 44 348 44 348 86 c 2,40,-1
 348 303 l 2,41,42
 348 408 348 408 282 408 c 0,43,44
 254 408 254 408 219.5 394 c 128,-1,45
 185 380 185 380 164 349 c 1,46,-1
 164 67 l 2,47,48
 164 38 164 38 178 27.5 c 128,-1,49
 192 17 192 17 232 15 c 1,50,-1
 232 0 l 1,51,-1
 10 0 l 1,52,-1
 10 15 l 1,53,54
 52 16 52 16 66 30 c 128,-1,55
 80 44 80 44 80 85 c 2,56,-1
 80 338 l 2,57,58
 80 374 80 374 72.5 388 c 128,-1,59
 65 402 65 402 47.5 402 c 128,-1,60
 30 402 30 402 13 398 c 1,0,-1
EndSplineSet
Validated: 1
EndChar

StartChar: n
Encoding: 110 110 135
Width: 489
Flags: W
HStem: 0 15<12 47.6045 184.683 224 271 304.941 444.488 479> 398 17<10 36.4851> 405 55<226.961 313.525>
VStem: 74 84<24.7187 366.757 379 399.648> 334 84<26.7246 383.2>
LayerCount: 3
Fore
SplineSet
10 398 m 1xd8
 10 415 l 1xd8
 65 431 99 442 148 460 c 1
 155 458 l 1
 155 379 l 1
 223 443 254 460 300 460 c 0
 374 460 418 404 418 310 c 2
 418 81 l 2
 418 32 430 20 479 15 c 1
 479 0 l 1
 271 0 l 1
 271 15 l 1
 321 19 334 36 334 99 c 2
 334 308 l 2
 334 374 310 405 261 405 c 0xb8
 228 405 206 393 158 348 c 1
 158 67 l 2
 158 31 173 19 224 15 c 1
 224 0 l 1
 12 0 l 1
 12 15 l 1
 63 19 74 33 74 90 c 2
 74 338 l 2
 74 387 65 402 37 402 c 0
 26 402 16 401 10 398 c 1xd8
EndSplineSet
Validated: 1
Layer: 2
SplineSet
10 398 m 1,0,-1
 10 415 l 1,1,2
 84 437 84 437 148 460 c 1,3,-1
 155 458 l 1,4,-1
 155 379 l 1,5,6
 206 427 206 427 235.5 443.5 c 128,-1,7
 265 460 265 460 300 460 c 0,8,9
 355 460 355 460 386.5 420.5 c 128,-1,10
 418 381 418 381 418 310 c 2,11,-1
 418 81 l 2,12,13
 418 44 418 44 430 31.5 c 128,-1,14
 442 19 442 19 479 15 c 1,15,-1
 479 0 l 1,16,-1
 271 0 l 1,17,-1
 271 15 l 1,18,19
 309 18 309 18 321.5 35 c 128,-1,20
 334 52 334 52 334 99 c 2,21,-1
 334 308 l 2,22,23
 334 405 334 405 261 405 c 0,24,25
 236 405 236 405 215 393.5 c 128,-1,26
 194 382 194 382 158 348 c 1,27,-1
 158 67 l 2,28,29
 158 40 158 40 172 29 c 128,-1,30
 186 18 186 18 224 15 c 1,31,-1
 224 0 l 1,32,-1
 12 0 l 1,33,-1
 12 15 l 1,34,35
 50 18 50 18 62 32.5 c 128,-1,36
 74 47 74 47 74 90 c 2,37,-1
 74 338 l 2,38,39
 74 375 74 375 66 388.5 c 128,-1,40
 58 402 58 402 38 402 c 128,-1,41
 18 402 18 402 10 398 c 1,0,-1
EndSplineSet
Validated: 1
EndChar

StartChar: o
Encoding: 111 111 136
Width: 491
Flags: W
HStem: -10 28<208.557 307.555> 432 28<182.311 282.592>
VStem: 25 90<135.072 331.786> 376 90<127.031 328.965>
LayerCount: 3
Fore
SplineSet
246 460 m 0
 374 460 466 365 466 234 c 0
 466 96 370 -10 244 -10 c 0
 118 -10 25 91 25 226 c 0
 25 364 116 460 246 460 c 0
115 275 m 0
 115 136 170 18 256 18 c 0
 331 18 376 86 376 199 c 0
 376 336 317 432 233 432 c 0
 162 432 115 370 115 275 c 0
EndSplineSet
Validated: 1
Layer: 2
SplineSet
86.5 394.5 m 128,-1,1
 148 460 148 460 245 460 c 128,-1,2
 342 460 342 460 404 396 c 128,-1,3
 466 332 466 332 466 231 c 128,-1,4
 466 130 466 130 402 60 c 128,-1,5
 338 -10 338 -10 244 -10 c 128,-1,6
 150 -10 150 -10 87.5 57.5 c 128,-1,7
 25 125 25 125 25 227 c 128,-1,0
 25 329 25 329 86.5 394.5 c 128,-1,1
115 275 m 0,8,9
 115 168 115 168 154 93 c 128,-1,10
 193 18 193 18 252.5 18 c 128,-1,11
 312 18 312 18 344 66 c 128,-1,12
 376 114 376 114 376 208 c 128,-1,13
 376 302 376 302 336 367 c 128,-1,14
 296 432 296 432 238 432 c 128,-1,15
 180 432 180 432 147.5 389 c 128,-1,16
 115 346 115 346 115 275 c 0,8,9
EndSplineSet
Validated: 1
EndChar

StartChar: p
Encoding: 112 112 137
Width: 500
Flags: W
HStem: -217 17<10 52.3792 192.888 252> -10 32<209.607 319.088> 393 16<14 38.4652> 400 60<227.787 326.589>
VStem: 80 84<-188.428 33 53.9336 369.399 381 392.004> 389 86<133.177 323.133>
LayerCount: 3
Fore
SplineSet
14 393 m 1xec
 14 409 l 1xec
 69 426 104 439 158 460 c 1
 164 458 l 1
 164 381 l 1
 208 435 252 460 308 460 c 0xdc
 405 460 475 371 475 247 c 0
 475 102 383 -10 265 -10 c 0
 223 -10 199 0 164 33 c 1
 164 -124 l 2
 164 -187 177 -198 252 -199 c 1
 252 -217 l 1
 10 -217 l 1
 10 -200 l 1
 69 -194 80 -183 80 -131 c 2
 80 337 l 2
 80 384 73 394 39 394 c 0
 30 394 23 394 14 393 c 1xec
164 334 m 2
 164 88 l 2
 164 58 221 22 268 22 c 0
 340 22 389 97 389 208 c 0
 389 324 340 400 266 400 c 0xdc
 220 400 164 364 164 334 c 2
EndSplineSet
Validated: 1
Layer: 2
SplineSet
14 393 m 1,0,-1
 14 409 l 1,1,2
 77 428 77 428 158 460 c 1,3,-1
 164 458 l 1,4,-1
 164 381 l 1,5,6
 228 460 228 460 304.5 460 c 128,-1,7
 381 460 381 460 428 400 c 128,-1,8
 475 340 475 340 475 239 c 128,-1,9
 475 138 475 138 414.5 64 c 128,-1,10
 354 -10 354 -10 265 -10 c 0,11,12
 233 -10 233 -10 211.5 -1 c 128,-1,13
 190 8 190 8 164 33 c 1,14,-1
 164 -124 l 2,15,16
 164 -171 164 -171 180 -184.5 c 128,-1,17
 196 -198 196 -198 252 -199 c 1,18,-1
 252 -217 l 1,19,-1
 10 -217 l 1,20,-1
 10 -200 l 1,21,22
 54 -196 54 -196 67 -183 c 128,-1,23
 80 -170 80 -170 80 -131 c 2,24,-1
 80 337 l 2,25,26
 80 372 80 372 72 383 c 128,-1,27
 64 394 64 394 43.5 394 c 128,-1,28
 23 394 23 394 14 393 c 1,0,-1
164 334 m 2,29,-1
 164 88 l 2,30,31
 164 66 164 66 198.5 44 c 128,-1,32
 233 22 233 22 268 22 c 0,33,34
 322 22 322 22 355.5 73.5 c 128,-1,35
 389 125 389 125 389 210 c 128,-1,36
 389 295 389 295 355.5 347.5 c 128,-1,37
 322 400 322 400 266 400 c 0,38,39
 231 400 231 400 197.5 378 c 128,-1,40
 164 356 164 356 164 334 c 2,29,-1
EndSplineSet
Validated: 1
EndChar

StartChar: q
Encoding: 113 113 138
Width: 499
Flags: W
HStem: -217 14<253 285.09 462.762 489> -10 61<175.164 273.924> 433 28<193.375 304.978>
VStem: 25 86<128.702 316.729> 342 84<-184.059 64 82.3787 406.542>
LayerCount: 3
Fore
SplineSet
361 425 m 1
 415 457 l 1
 426 457 l 1
 426 -141 l 2
 426 -183 434 -191 489 -203 c 1
 489 -217 l 1
 253 -217 l 1
 253 -200 l 1
 324 -195 342 -180 342 -124 c 2
 342 64 l 1
 298 16 243 -10 185 -10 c 0
 91 -10 25 79 25 205 c 0
 25 349 121 461 246 461 c 0
 285 461 315 452 361 425 c 1
111 241 m 0
 111 167 137 51 242 51 c 0
 273 51 306 63 328 82 c 0
 338 90 342 103 342 127 c 2
 342 333 l 2
 342 400 311 433 249 433 c 0
 164 433 111 359 111 241 c 0
EndSplineSet
Validated: 1
Layer: 2
SplineSet
361 425 m 1,0,-1
 415 457 l 1,1,-1
 426 457 l 1,2,-1
 426 -141 l 2,3,4
 426 -173 426 -173 437 -183.5 c 128,-1,5
 448 -194 448 -194 489 -203 c 1,6,-1
 489 -217 l 1,7,-1
 253 -217 l 1,8,-1
 253 -200 l 1,9,10
 306 -196 306 -196 324 -181 c 128,-1,11
 342 -166 342 -166 342 -124 c 2,12,-1
 342 64 l 1,13,14
 274 -10 274 -10 185 -10 c 0,15,16
 115 -10 115 -10 70 50 c 128,-1,17
 25 110 25 110 25 211.5 c 128,-1,18
 25 313 25 313 88.5 387 c 128,-1,19
 152 461 152 461 246 461 c 0,20,21
 300 461 300 461 361 425 c 1,0,-1
111 241 m 0,22,23
 111 198 111 198 121 158 c 128,-1,24
 131 118 131 118 162 84.5 c 128,-1,25
 193 51 193 51 242.5 51 c 128,-1,26
 292 51 292 51 328 82 c 0,27,28
 342 93 342 93 342 127 c 2,29,-1
 342 333 l 2,30,31
 342 433 342 433 249 433 c 0,32,33
 185 433 185 433 148 381.5 c 128,-1,34
 111 330 111 330 111 241 c 0,22,23
EndSplineSet
Validated: 1
EndChar

StartChar: r
Encoding: 114 114 139
Width: 345
Flags: W
HStem: 0 15<10 42.3636 200.154 250> 397 63<225.76 302>
VStem: 81 84<29.2608 363.261 366 392.233>
LayerCount: 3
Fore
SplineSet
301 362 m 0
 274 362 251 397 235 397 c 0
 208 397 165 347 165 315 c 2
 165 90 l 2
 165 33 182 18 250 15 c 1
 250 0 l 1
 10 0 l 1
 10 15 l 1
 74 27 81 34 81 84 c 2
 81 334 l 2
 81 378 72 394 47 394 c 0
 35 394 26 393 12 390 c 1
 12 406 l 1
 71 425 107 438 160 460 c 1
 165 458 l 1
 165 366 l 1
 214 437 243 460 285 460 c 0
 319 460 340 440 340 407 c 0
 340 379 325 362 301 362 c 0
EndSplineSet
Validated: 1
Layer: 2
SplineSet
329.5 374 m 128,-1,1
 319 362 319 362 302.5 362 c 128,-1,2
 286 362 286 362 264 379.5 c 128,-1,3
 242 397 242 397 235 397 c 0,4,5
 215 397 215 397 190 368 c 128,-1,6
 165 339 165 339 165 315 c 2,7,-1
 165 90 l 2,8,9
 165 47 165 47 182 32 c 128,-1,10
 199 17 199 17 250 15 c 1,11,-1
 250 0 l 1,12,-1
 10 0 l 1,13,-1
 10 15 l 1,14,15
 58 24 58 24 69.5 35 c 128,-1,16
 81 46 81 46 81 84 c 2,17,-1
 81 334 l 2,18,19
 81 367 81 367 73.5 380.5 c 128,-1,20
 66 394 66 394 48.5 394 c 128,-1,21
 31 394 31 394 12 390 c 1,22,-1
 12 406 l 1,23,24
 92 432 92 432 160 460 c 1,25,-1
 165 458 l 1,26,-1
 165 366 l 1,27,28
 202 419 202 419 228 439.5 c 128,-1,29
 254 460 254 460 282.5 460 c 128,-1,30
 311 460 311 460 325.5 446 c 128,-1,31
 340 432 340 432 340 409 c 128,-1,0
 340 386 340 386 329.5 374 c 128,-1,1
EndSplineSet
Validated: 1
EndChar

StartChar: s
Encoding: 115 115 140
Width: 367
Flags: W
HStem: -10 22<129.07 225.983> 430 20G<281 295.588> 437 22<130.907 219.959>
VStem: 35 62<317.807 404.721> 36 16<118.812 152> 262 70<51.4369 135.87> 284 15<314 337.598>
DStem2: 140 301 152 192 0.860292 -0.509802<-59.4226 202.545>
LayerCount: 3
Fore
SplineSet
268 440 m 0xb4
 274 440 278 446 284 450 c 1
 295 450 l 1xd2
 299 314 l 1
 284 314 l 1
 261 403 231 437 174 437 c 0
 128 437 97 409 97 369 c 0xb2
 97 342 112 317 140 301 c 2
 248 237 l 2
 308 201 332 168 332 118 c 0
 332 48 268 -10 191 -10 c 0
 146 -10 97 8 72 8 c 0
 60 8 56 6 49 -4 c 1
 36 -4 l 1
 36 152 l 1
 52 152 l 1xac
 61 112 77 12 179 12 c 0
 230 12 262 40 262 84 c 0
 262 115 245 139 210 159 c 2
 152 192 l 2
 67 240 35 280 35 336 c 0
 35 408 92 459 171 459 c 0
 229 459 246 440 268 440 c 0xb4
EndSplineSet
Validated: 1
Layer: 2
SplineSet
233.5 449.5 m 128,-1,1
 262 440 262 440 265.5 440 c 128,-1,2
 269 440 269 440 284 450 c 1,3,-1
 295 450 l 1,4,-1
 299 314 l 1,5,-1
 284 314 l 1,6,7
 267 381 267 381 242 409 c 128,-1,8
 217 437 217 437 178.5 437 c 128,-1,9
 140 437 140 437 118.5 418 c 128,-1,10
 97 399 97 399 97 369 c 0,11,12
 97 326 97 326 140 301 c 2,13,-1
 248 237 l 2,14,15
 293 210 293 210 312.5 182.5 c 128,-1,16
 332 155 332 155 332 118 c 0,17,18
 332 66 332 66 290.5 28 c 128,-1,19
 249 -10 249 -10 191 -10 c 0,20,21
 166 -10 166 -10 124 -1 c 128,-1,22
 82 8 82 8 69.5 8 c 128,-1,23
 57 8 57 8 49 -4 c 1,24,-1
 36 -4 l 1,25,-1
 36 152 l 1,26,-1
 52 152 l 1,27,28
 68 82 68 82 90 53 c 0,29,30
 122 12 122 12 179 12 c 0,31,32
 217 12 217 12 239.5 31.5 c 128,-1,33
 262 51 262 51 262 84 c 0,34,35
 262 129 262 129 210 159 c 2,36,-1
 152 192 l 2,37,38
 88 228 88 228 61.5 261 c 128,-1,39
 35 294 35 294 35 342 c 128,-1,40
 35 390 35 390 73.5 424.5 c 128,-1,41
 112 459 112 459 171 459 c 0,42,0
 205 459 205 459 233.5 449.5 c 128,-1,1
EndSplineSet
Validated: 1
EndChar

StartChar: t
Encoding: 116 116 141
Width: 283
Flags: W
HStem: -10 52<133.5 233.354> 418 32<158 259>
VStem: 74 84<53.0804 418>
LayerCount: 3
Fore
SplineSet
259 450 m 1
 259 418 l 1
 158 418 l 1
 158 132 l 2
 158 69 173 42 210 42 c 0
 232 42 249 52 270 77 c 1
 283 66 l 1
 250 14 212 -10 163 -10 c 0
 104 -10 74 33 74 117 c 2
 74 418 l 1
 21 418 l 1
 18 420 17 422 17 425 c 0
 17 445 42 423 131 551 c 0
 138 561 144 570 151 579 c 1
 157 579 158 576 158 566 c 2
 158 450 l 1
 259 450 l 1
EndSplineSet
Validated: 1
Layer: 2
SplineSet
259 450 m 1,0,-1
 259 418 l 1,1,-1
 158 418 l 1,2,-1
 158 132 l 2,3,4
 158 85 158 85 170 63.5 c 128,-1,5
 182 42 182 42 211.5 42 c 128,-1,6
 241 42 241 42 270 77 c 1,7,-1
 283 66 l 1,8,9
 235 -10 235 -10 163 -10 c 0,10,11
 74 -10 74 -10 74 117 c 2,12,-1
 74 418 l 1,13,-1
 21 418 l 1,14,15
 17 421 17 421 17 425.5 c 128,-1,16
 17 430 17 430 20 433 c 128,-1,17
 23 436 23 436 31.5 441.5 c 128,-1,18
 40 447 40 447 59 462 c 128,-1,19
 78 477 78 477 112.5 525.5 c 128,-1,20
 147 574 147 574 151 579 c 1,21,22
 158 579 158 579 158 566 c 2,23,-1
 158 450 l 1,24,-1
 259 450 l 1,0,-1
EndSplineSet
Validated: 1
EndChar

StartChar: u
Encoding: 117 117 142
Width: 490
Flags: W
HStem: -10 58<178.854 267.029> 36 14<457.082 480> 436 14<10 45.6494 260 295.843>
VStem: 72 84<70.25 426.561> 334 84<54.8743 76 81.0178 424.313>
LayerCount: 3
Fore
SplineSet
480 50 m 1x78
 480 36 l 1x78
 429 22 393 11 343 -9 c 1
 339 -7 l 1
 339 76 l 1
 304.283 41.2832 265.178 -10 193 -10 c 0
 120 -10 72 41 72 120 c 2
 72 372 l 2
 72 418 58 433 10 436 c 1
 10 450 l 1
 156 450 l 1
 156 124 l 2
 156 82 188 48 227 48 c 0xb8
 247.38 48 334 58.7129 334 135 c 2
 334 370 l 2
 334 420 322 430 260 433 c 1
 260 450 l 1
 418 450 l 1
 418 107 l 2
 418 61 429 50 475 50 c 2
 480 50 l 1x78
EndSplineSet
Validated: 1
Layer: 2
SplineSet
480 50 m 1,0,-1
 480 36 l 1,1,2
 402 15 402 15 343 -9 c 1,3,-1
 339 -7 l 1,4,-1
 339 76 l 1,5,6
 336 73 336 73 322 58 c 0,7,8
 281 16 281 16 255 4 c 1,9,10
 226 -8 226 -8 210 -9 c 128,-1,11
 194 -10 194 -10 193 -10 c 0,12,13
 138 -10 138 -10 105 25.5 c 128,-1,14
 72 61 72 61 72 120 c 2,15,-1
 72 372 l 2,16,17
 72 407 72 407 59 420.5 c 128,-1,18
 46 434 46 434 10 436 c 1,19,-1
 10 450 l 1,20,-1
 156 450 l 1,21,-1
 156 124 l 2,22,23
 156 93 156 93 177 70.5 c 128,-1,24
 198 48 198 48 226 48 c 128,-1,25
 254 48 254 48 281 60 c 0,26,27
 334 83 334 83 334 135 c 2,28,-1
 334 370 l 2,29,30
 334 407 334 407 320.5 419 c 128,-1,31
 307 431 307 431 260 433 c 1,32,-1
 260 450 l 1,33,-1
 418 450 l 1,34,-1
 418 107 l 2,35,36
 418 72 418 72 429 61 c 128,-1,37
 440 50 440 50 475 50 c 2,38,-1
 480 50 l 1,0,-1
EndSplineSet
Validated: 1
EndChar

StartChar: v
Encoding: 118 118 143
Width: 468
Flags: W
HStem: -14 21G<239.5 245> 435 15<5 35.4054 166.996 201 324 354.717 437.277 463>
DStem2: 164 370 96 320 0.385756 -0.922601<-37.2146 275.533> 266 114 270 36 0.370393 0.928875<0 306.9>
LayerCount: 3
Fore
SplineSet
463 450 m 1
 463 435 l 1
 433 432 425 426 398 357 c 2
 270 36 l 2
 255 -1 248 -14 242 -14 c 0
 237 -14 230 -10 216 33 c 2
 96 320 l 2
 52.4844 424.074 43 433 5 435 c 1
 5 450 l 1
 201 450 l 1
 201 435 l 1
 166 432 155 425 155 407 c 0
 155 398 158 384 164 370 c 2
 266 114 l 1
 365 373 l 2
 369 383 371 393 371 403 c 0
 371 422 356 432 324 435 c 1
 324 450 l 1
 463 450 l 1
EndSplineSet
Validated: 1
Layer: 2
SplineSet
463 450 m 1,0,-1
 463 435 l 1,1,2
 440 433 440 433 429 420 c 128,-1,3
 418 407 418 407 398 357 c 2,4,-1
 270 36 l 2,5,6
 250 -14 250 -14 242 -14 c 0,7,8
 231 -14 231 -14 216 33 c 1,9,-1
 96 320 l 2,10,11
 64 397 64 397 49 415 c 128,-1,12
 34 433 34 433 5 435 c 1,13,-1
 5 450 l 1,14,-1
 201 450 l 1,15,-1
 201 435 l 1,16,17
 175 433 175 433 165 427 c 128,-1,18
 155 421 155 421 155 406 c 128,-1,19
 155 391 155 391 164 370 c 2,20,-1
 266 114 l 1,21,-1
 365 373 l 2,22,23
 371 388 371 388 371 403 c 0,24,25
 371 431 371 431 324 435 c 1,26,-1
 324 450 l 1,27,-1
 463 450 l 1,0,-1
EndSplineSet
Validated: 1
EndChar

StartChar: w
Encoding: 119 119 144
Width: 683
Flags: W
HStem: -14 21G<216 221.5 468 474.5> 435 15<5 26.4997 153.785 185 246 274.386 413.479 449 555 581.211 663.052 678>
DStem2: 244 111 193 30 0.367167 -0.930155<-308.791 0> 244 111 244 25 0.422885 0.906183<0 186.915> 408 340 335 310 0.351123 -0.936329<-60.6506 2.45786 51.9663 239.232> 492 116 499 35 0.370465 0.928847<0 306.487>
LayerCount: 3
Fore
SplineSet
335 310 m 1
 299 419 289 430 246 435 c 1
 246 450 l 1
 449 450 l 1
 449 435 l 1
 402 428 391 421 391 399 c 0
 391 386 391 386 408 340 c 2
 492 116 l 1
 582 338 l 2
 593 365 599 389 599 404 c 0
 599 421 589 428 555 435 c 1
 555 450 l 1
 678 450 l 1
 678 435 l 1
 658 428 654 423 637 381 c 2
 499 35 l 2
 483 -5 478 -14 471 -14 c 0
 465 -14 461 -8 447 29 c 2
 356 265 l 1
 244 25 l 2
 232 -1 224 -14 219 -14 c 0
 213 -14 205 0 193 30 c 2
 58 372 l 2
 37.6064 423.663 28 433 5 435 c 1
 5 450 l 1
 185 450 l 1
 185 435 l 1
 151 431 139 423 139 402 c 0
 139 392 141 382 145 372 c 2
 244 111 l 1
 335 310 l 1
EndSplineSet
Validated: 1
Layer: 2
SplineSet
335 310 m 1,0,1
 308 390 308 390 293.5 410.5 c 128,-1,2
 279 431 279 431 246 435 c 1,3,-1
 246 450 l 1,4,-1
 449 450 l 1,5,-1
 449 435 l 1,6,7
 414 430 414 430 402.5 423 c 128,-1,8
 391 416 391 416 391 401 c 128,-1,9
 391 386 391 386 408 340 c 2,10,-1
 492 116 l 1,11,-1
 582 338 l 2,12,13
 599 380 599 380 599 398.5 c 128,-1,14
 599 417 599 417 590 423.5 c 128,-1,15
 581 430 581 430 555 435 c 1,16,-1
 555 450 l 1,17,-1
 678 450 l 1,18,-1
 678 435 l 1,19,20
 663 430 663 430 656.5 421 c 128,-1,21
 650 412 650 412 637 381 c 2,22,-1
 499 35 l 2,23,24
 479 -14 479 -14 471 -14 c 128,-1,25
 463 -14 463 -14 447 29 c 2,26,-1
 356 265 l 1,27,-1
 244 25 l 2,28,29
 226 -14 226 -14 218.5 -14 c 128,-1,30
 211 -14 211 -14 193 30 c 2,31,-1
 58 372 l 2,32,33
 43 410 43 410 33 421.5 c 128,-1,34
 23 433 23 433 5 435 c 1,35,-1
 5 450 l 1,36,-1
 185 450 l 1,37,-1
 185 435 l 1,38,39
 159 432 159 432 149 425 c 128,-1,40
 139 418 139 418 139 402.5 c 128,-1,41
 139 387 139 387 145 372 c 2,42,-1
 244 111 l 1,43,-1
 335 310 l 1,0,1
EndSplineSet
Validated: 1
EndChar

StartChar: x
Encoding: 120 120 145
Width: 482
Flags: W
HStem: 0 15<10 42.0081 119.416 155 271 305.389 440.192 472> 435 15<17 55.6465 189.38 224 268 300.378 391.318 426>
DStem2: 83 66 135 74 0.55227 0.833665<-9.59552 181.558 285.671 412.667> 227 324 197 231 0.536188 -0.844098<-99.2551 24.3886 100.23 285.37>
LayerCount: 3
Fore
SplineSet
241 304 m 1
 279 362 308 391 308 413 c 0
 308 427 298 433 268 435 c 1
 268 450 l 1
 426 450 l 1
 426 435 l 1
 394 434 364 418 345 391 c 2
 262 271 l 1
 390 75 l 2
 419.431 29.9346 441 15 472 15 c 1
 472 0 l 1
 271 0 l 1
 271 15 l 1
 304 17 311 21 311 39 c 0
 311 45 309 51 305 57 c 2
 214 197 l 1
 135 74 l 2
 122 54 115 39 115 33 c 0
 115 20 127 15 155 15 c 1
 155 0 l 1
 10 0 l 1
 10 15 l 1
 43 18 54 24 83 66 c 2
 197 231 l 1
 103 375 l 2
 64.9482 433.292 49.75 434.25 17 435 c 1
 17 450 l 1
 224 450 l 1
 224 435 l 1
 194 434 181 427 181 413 c 0
 181 400 199 366 227 324 c 2
 241 304 l 1
EndSplineSet
Validated: 1
Layer: 2
SplineSet
241 304 m 1,0,1
 252 321 252 321 267 341.5 c 128,-1,2
 282 362 282 362 295 380 c 128,-1,3
 308 398 308 398 308 413 c 0,4,5
 308 432 308 432 268 435 c 1,6,-1
 268 450 l 1,7,-1
 426 450 l 1,8,-1
 426 435 l 1,9,10
 375 433 375 433 345 391 c 2,11,-1
 262 271 l 1,12,-1
 390 75 l 2,13,14
 412 42 412 42 430.5 28.5 c 128,-1,15
 449 15 449 15 472 15 c 1,16,-1
 472 0 l 1,17,-1
 271 0 l 1,18,-1
 271 15 l 1,19,20
 296 17 296 17 303.5 21.5 c 128,-1,21
 311 26 311 26 311 37 c 128,-1,22
 311 48 311 48 305 57 c 2,23,-1
 214 197 l 1,24,-1
 135 74 l 2,25,26
 115 43 115 43 115 33 c 0,27,28
 115 15 115 15 155 15 c 1,29,-1
 155 0 l 1,30,-1
 10 0 l 1,31,-1
 10 15 l 1,32,33
 35 17 35 17 48.5 26 c 128,-1,34
 62 35 62 35 83 66 c 2,35,-1
 197 231 l 1,36,-1
 103 375 l 2,37,38
 71 424 71 424 46 432 c 0,39,40
 37 435 37 435 17 435 c 1,41,-1
 17 450 l 1,42,-1
 224 450 l 1,43,-1
 224 435 l 1,44,45
 181 434 181 434 181 413.5 c 128,-1,46
 181 393 181 393 227 324 c 1,47,-1
 241 304 l 1,0,1
EndSplineSet
Validated: 1
EndChar

StartChar: y
Encoding: 121 121 146
Width: 471
Flags: W
HStem: -218 84<51.1022 158.006> 435 15<5 32.2314 165.875 211 331 368.453 443.43 466>
DStem2: 278 117 188 120 0.421487 -0.906835<-316.105 0> 278 117 264 -18 0.353133 0.935573<0 309.612>
LayerCount: 3
Fore
SplineSet
142 -134 m 0
 183 -134 232 -11 232 19 c 0
 232 34 213.628 68.7441 188 120 c 2
 56 404 l 2
 48 421 31 432 5 436 c 1
 5 450 l 1
 211 450 l 1
 211 435 l 1
 168 433 153 426 153 408 c 0
 153 397 157 384 163 370 c 2
 278 117 l 1
 375 393 l 2
 378 400 379 406 379 410 c 0
 379 426 363 435 331 435 c 1
 331 450 l 1
 466 450 l 1
 466 435 l 1
 442 432 430 422 418 390 c 2
 264 -18 l 2
 210 -162 162 -218 95 -218 c 0
 53 -218 21 -193 21 -160 c 0
 21 -136 41 -116 64 -116 c 0
 102 -116 125 -134 142 -134 c 0
EndSplineSet
Validated: 1
Layer: 2
SplineSet
142 -134 m 0,0,1
 170 -134 170 -134 201 -72 c 128,-1,2
 232 -10 232 -10 232 19 c 0,3,4
 232 32 232 32 188 120 c 1,5,-1
 56 404 l 2,6,7
 44 430 44 430 5 436 c 1,8,-1
 5 450 l 1,9,-1
 211 450 l 1,10,-1
 211 435 l 1,11,12
 179 434 179 434 166 428 c 128,-1,13
 153 422 153 422 153 407.5 c 128,-1,14
 153 393 153 393 163 370 c 2,15,-1
 278 117 l 1,16,-1
 375 393 l 2,17,18
 379 402 379 402 379 410 c 0,19,20
 379 435 379 435 331 435 c 1,21,-1
 331 450 l 1,22,-1
 466 450 l 1,23,-1
 466 435 l 1,24,25
 448 433 448 433 437.5 423.5 c 128,-1,26
 427 414 427 414 418 390 c 2,27,-1
 264 -18 l 2,28,29
 224 -126 224 -126 184.5 -172 c 128,-1,30
 145 -218 145 -218 95 -218 c 0,31,32
 63 -218 63 -218 42 -201.5 c 128,-1,33
 21 -185 21 -185 21 -163.5 c 128,-1,34
 21 -142 21 -142 34 -129 c 128,-1,35
 47 -116 47 -116 66.5 -116 c 128,-1,36
 86 -116 86 -116 111 -125 c 128,-1,37
 136 -134 136 -134 142 -134 c 0,0,1
EndSplineSet
Validated: 1
EndChar

StartChar: z
Encoding: 122 122 147
Width: 417
Flags: W
HStem: 0 30<117 338.127> 420 30<79.2712 276>
VStem: 36 18<332 376.547> 383 18<100.719 136.556>
DStem2: 10 15 117 30 0.553275 0.832998<71.6954 484.536>
LayerCount: 3
Fore
SplineSet
255 30 m 2
 361 30 368 63 383 139 c 1
 401 135 l 1
 387 0 l 1
 10 0 l 1
 10 15 l 1
 276 420 l 1
 138 420 l 2
 78 420 63 405 54 332 c 1
 36 332 l 1
 39 450 l 1
 386 450 l 1
 386 435 l 1
 117 30 l 1
 255 30 l 2
EndSplineSet
Validated: 1
Layer: 2
SplineSet
255 30 m 2,0,1
 294 30 294 30 317 35 c 128,-1,2
 340 40 340 40 353 57 c 128,-1,3
 366 74 366 74 371 89 c 128,-1,4
 376 104 376 104 383 139 c 1,5,-1
 401 135 l 1,6,-1
 387 0 l 1,7,-1
 10 0 l 1,8,-1
 10 15 l 1,9,-1
 276 420 l 1,10,-1
 138 420 l 2,11,12
 93 420 93 420 77 403.5 c 128,-1,13
 61 387 61 387 54 332 c 1,14,-1
 36 332 l 1,15,-1
 39 450 l 1,16,-1
 386 450 l 1,17,-1
 386 435 l 1,18,-1
 117 30 l 1,19,-1
 255 30 l 2,0,1
EndSplineSet
Validated: 1
EndChar

StartChar: braceleft
Encoding: 123 123 148
Width: 480
Flags: W
HStem: -181 11<335.277 350> 669 11<335.405 350>
VStem: 185 74<-131.641 212.517 286.333 630.647>
LayerCount: 3
Fore
SplineSet
350 -181 m 1
 243 -179 185 -160 185 -41 c 2
 185 136 l 2
 185 205 167 229 100 250 c 1
 167 270 185 293 185 363 c 2
 185 541 l 2
 185 660 244 678 350 680 c 1
 350 669 l 1
 281 651 259 621 259 546 c 2
 259 378 l 2
 259 295 240 269 165 249 c 1
 240 230 259 204 259 121 c 2
 259 -47 l 2
 259 -122 281 -152 350 -170 c 1
 350 -181 l 1
EndSplineSet
Validated: 1
Layer: 2
SplineSet
350 -181 m 1,0,1
 262 -179 262 -179 223.5 -152 c 128,-1,2
 185 -125 185 -125 185 -41 c 2,3,-1
 185 136 l 2,4,5
 185 188 185 188 167.5 211 c 128,-1,6
 150 234 150 234 100 250 c 1,7,8
 150 265 150 265 167.5 288 c 128,-1,9
 185 311 185 311 185 363 c 2,10,-1
 185 541 l 2,11,12
 185 627 185 627 228 654 c 0,13,14
 251 669 251 669 278.5 674 c 128,-1,15
 306 679 306 679 350 680 c 1,16,-1
 350 669 l 1,17,18
 298 656 298 656 278.5 629 c 128,-1,19
 259 602 259 602 259 546 c 2,20,-1
 259 378 l 2,21,22
 259 316 259 316 240 290 c 128,-1,23
 221 264 221 264 165 249 c 1,24,25
 221 235 221 235 240 209 c 128,-1,26
 259 183 259 183 259 121 c 2,27,-1
 259 -47 l 2,28,29
 259 -103 259 -103 278.5 -130 c 128,-1,30
 298 -157 298 -157 350 -170 c 1,31,-1
 350 -181 l 1,0,1
EndSplineSet
Validated: 1
EndChar

StartChar: bar
Encoding: 124 124 149
Width: 241
VWidth: 999
Flags: W
HStem: -82 79<25.3325 77.3699 104 146.621> 592 80<96.3325 138 163.77 217.62>
VStem: 10 221
DStem2: 76 1 104 -3 0.103333 0.994647<0 598.131>
LayerCount: 3
Fore
SplineSet
25 -16 m 1
 32 -2 45 1 61 1 c 0
 66 1 71 1 76 1 c 1
 90 142 124 454 138 596 c 1
 131 596 124 597 117 597 c 0
 102 597 88 593 81 581 c 1
 96 659 l 1
 103 673 116 676 132 676 c 0
 150 676 172 672 191 672 c 0
 207 672 221 675 231 686 c 1
 218 611 l 1
 210 596 195 592 177 592 c 0
 173 592 170 592 166 593 c 1
 151 452 117 140 104 -3 c 1
 109 -3 115 -3 120 -3 c 0
 136 -3 150 -0 160 11 c 1
 147 -64 l 1
 139 -78 125 -82 108 -82 c 0
 89 -82 67 -77 48 -77 c 0
 31 -77 18 -81 10 -94 c 1
 25 -16 l 1
EndSplineSet
Validated: 1
Layer: 2
SplineSet
76 1 m 1,0,-1
 138 596 l 1,1,-1
 117 597 l 1,2,3
 90 597 90 597 81 581 c 1,4,-1
 96 659 l 1,5,6
 104 676 104 676 132 676 c 1,7,-1
 191 672 l 1,8,9
 218 672 218 672 231 686 c 1,10,-1
 218 611 l 1,11,12
 208 592 208 592 177 592 c 0,13,14
 170 592 170 592 166 593 c 1,15,16
 112 88 112 88 104 -3 c 1,17,-1
 120 -3 l 2,18,19
 147 -3 147 -3 160 11 c 1,20,-1
 147 -64 l 1,21,22
 137 -82 137 -82 108 -82 c 1,23,-1
 48 -77 l 1,24,25
 20 -77 20 -77 10 -94 c 1,26,-1
 25 -16 l 1,27,28
 34 1 34 1 61 1 c 2,29,-1
 76 1 l 1,0,-1
EndSplineSet
Validated: 1
EndChar

StartChar: asciitilde
Encoding: 126 126 151
Width: 500
Flags: W
HStem: 186 66<278.573 403.867> 254 66<96.1329 221.427>
LayerCount: 3
Fore
SplineSet
142 320 m 0
 237 320 278 252 353 252 c 0
 384 252 401 264 427 303 c 1
 481 271 l 1
 435 207 404 186 358 186 c 0
 263 186 222 254 147 254 c 0
 116 254 99 242 73 203 c 1
 19 235 l 1
 65 299 96 320 142 320 c 0
EndSplineSet
Validated: 1
Layer: 2
SplineSet
80 301.5 m 128,-1,1
 107 320 107 320 149.5 320 c 128,-1,2
 192 320 192 320 255 286 c 128,-1,3
 318 252 318 252 347 252 c 128,-1,4
 376 252 376 252 391.5 263 c 128,-1,5
 407 274 407 274 427 303 c 1,6,-1
 481 271 l 1,7,8
 447 223 447 223 420 204.5 c 128,-1,9
 393 186 393 186 350.5 186 c 128,-1,10
 308 186 308 186 245 220 c 128,-1,11
 182 254 182 254 153 254 c 128,-1,12
 124 254 124 254 108.5 243 c 128,-1,13
 93 232 93 232 73 203 c 1,14,-1
 19 235 l 1,15,0
 53 283 53 283 80 301.5 c 128,-1,1
EndSplineSet
Validated: 1
EndChar

StartChar: currency
Encoding: 164 164 152
Width: 500
Flags: W
HStem: 115 64<174.256 326.454> 481 64<174.743 326.891>
VStem: 35 68<251.85 408.946> 397 68<251.509 408.522>
DStem2: 28 602 -22 554 0.707107 -0.707107<0 140.868 557.717 698.621> 76 204 124 156 0.708534 0.705677<-137.038 4.29456 421.453 562.856>
LayerCount: 3
Fore
SplineSet
-22 108 m 1
 76 204 l 1
 47 246 35 283 35 330 c 0
 35 378 47 416 76 456 c 1
 -22 554 l 1
 28 602 l 1
 124 506 l 1
 169 535 202 545 251 545 c 0
 299 545 337 533 376 506 c 1
 474 602 l 1
 522 554 l 1
 426 456 l 1
 455 413 465 380 465 331 c 0
 465 283 455 249 426 204 c 1
 522 108 l 1
 474 58 l 1
 376 156 l 1
 337 128 298 115 251 115 c 0
 205 115 166 128 124 156 c 1
 28 58 l 1
 -22 108 l 1
253 481 m 0
 169 481 103 414 103 330 c 0
 103 247 169 179 251 179 c 0
 332 179 397 246 397 331 c 0
 397 413 332 481 253 481 c 0
EndSplineSet
Validated: 1
Layer: 2
SplineSet
-22 108 m 1,0,-1
 76 204 l 1,1,2
 35 263 35 263 35 331 c 128,-1,3
 35 399 35 399 76 456 c 1,4,-1
 -22 554 l 1,5,-1
 28 602 l 1,6,-1
 124 506 l 1,7,8
 185 545 185 545 252.5 545 c 128,-1,9
 320 545 320 545 376 506 c 1,10,-1
 474 602 l 1,11,-1
 522 554 l 1,12,-1
 426 456 l 1,13,14
 465 398 465 398 465 331.5 c 128,-1,15
 465 265 465 265 426 204 c 1,16,-1
 522 108 l 1,17,-1
 474 58 l 1,18,-1
 376 156 l 1,19,20
 319 115 319 115 252.5 115 c 128,-1,21
 186 115 186 115 124 156 c 1,22,-1
 28 58 l 1,23,-1
 -22 108 l 1,0,-1
354.5 437 m 128,-1,25
 312 481 312 481 251 481 c 128,-1,26
 190 481 190 481 146.5 437 c 128,-1,27
 103 393 103 393 103 330.5 c 128,-1,28
 103 268 103 268 146.5 223.5 c 128,-1,29
 190 179 190 179 251 179 c 128,-1,30
 312 179 312 179 354.5 223 c 128,-1,31
 397 267 397 267 397 330 c 128,-1,24
 397 393 397 393 354.5 437 c 128,-1,25
EndSplineSet
Validated: 1
EndChar

StartChar: section
Encoding: 167 167 153
Width: 500
Flags: W
HStem: -148 21<195.959 290.694> 124 22<292.444 341.002> 383 22<152.492 208.906> 655 21<204.371 296.847>
VStem: 70 53<259.702 356.412> 104 68<-102.476 -32.5 519.101 614.309> 313 64<561.5 633.875> 330 56<-92.7632 5.54492> 374 52<171.553 268.496>
LayerCount: 3
Fore
SplineSet
279 568 m 0xfa
 279 600 313 613 313 623 c 0xfa
 313 641 285 655 251 655 c 0
 200 655 166 626 166 584 c 0
 166 559 180 530 200 513 c 2
 337 400 l 2
 395 352 426 298 426 245 c 0xf080
 426 175 378 124 310 124 c 0
 303.545 124 298.727 124.455 292 125 c 1
 367 60 386 30 386 -21 c 0
 386 -97 329 -148 242 -148 c 0
 164 -148 104 -104 104 -48 c 0
 104 -17 127 6 158 6 c 0
 185 6 206 -12 206 -36 c 0
 206 -67 172 -80 172 -92 c 0
 172 -110 206 -127 243 -127 c 0
 296 -127 330 -97 330 -50 c 0xf5
 330 68 70 111 70 286 c 0
 70 354 119 405 185 405 c 0
 191 405 200 405 210 404 c 1
 130 470 110 500 110 554 c 0
 110 626 166 676 249 676 c 0
 322 676 377 634 377 578 c 0
 377 545 358 525 326 525 c 0
 299 525 279 543 279 568 c 0xfa
374 212 m 0xf880
 374 288 234 383 191 383 c 0
 152 383 123 355 123 316 c 0
 123 248 242 146 305 146 c 0
 342 146 374 177 374 212 c 0xf880
EndSplineSet
Validated: 1
Layer: 2
SplineSet
279 568 m 128,-1,1
 279 587 279 587 296 604 c 128,-1,2
 313 621 313 621 313 623 c 0,3,4
 313 636 313 636 295 645.5 c 128,-1,5
 277 655 277 655 245 655 c 128,-1,6
 213 655 213 655 189.5 635.5 c 128,-1,7
 166 616 166 616 166 579 c 128,-1,8
 166 542 166 542 200 513 c 2,9,-1
 337 400 l 2,10,11
 426 326 426 326 426 245 c 0,12,13
 426 192 426 192 393.5 158 c 128,-1,14
 361 124 361 124 310 124 c 0,15,16
 304 124 304 124 292 125 c 1,17,18
 348 76 348 76 367 46.5 c 128,-1,19
 386 17 386 17 386 -21 c 0,20,21
 386 -78 386 -78 346.5 -113 c 128,-1,22
 307 -148 307 -148 245.5 -148 c 128,-1,23
 184 -148 184 -148 144 -119 c 128,-1,24
 104 -90 104 -90 104 -48 c 0,25,26
 104 -25 104 -25 119.5 -9.5 c 128,-1,27
 135 6 135 6 156.5 6 c 128,-1,28
 178 6 178 6 192 -6 c 128,-1,29
 206 -18 206 -18 206 -36 c 128,-1,30
 206 -54 206 -54 189 -71 c 128,-1,31
 172 -88 172 -88 172 -92 c 0,32,33
 172 -106 172 -106 193.5 -116.5 c 128,-1,34
 215 -127 215 -127 249 -127 c 128,-1,35
 283 -127 283 -127 306.5 -106 c 128,-1,36
 330 -85 330 -85 330 -51.5 c 128,-1,37
 330 -18 330 -18 303 12.5 c 128,-1,38
 276 43 276 43 238 69.5 c 128,-1,39
 200 96 200 96 162 125 c 128,-1,40
 124 154 124 154 97 196 c 128,-1,41
 70 238 70 238 70 287.5 c 128,-1,42
 70 337 70 337 103 371 c 128,-1,43
 136 405 136 405 185 405 c 0,44,45
 200 405 200 405 210 404 c 1,46,47
 150 454 150 454 130 484 c 128,-1,48
 110 514 110 514 110 561 c 128,-1,49
 110 608 110 608 148.5 642 c 128,-1,50
 187 676 187 676 245.5 676 c 128,-1,51
 304 676 304 676 340.5 648 c 128,-1,52
 377 620 377 620 377 578 c 0,53,54
 377 553 377 553 363.5 539 c 128,-1,55
 350 525 350 525 328 525 c 128,-1,56
 306 525 306 525 292.5 537 c 128,-1,0
 279 549 279 549 279 568 c 128,-1,1
374 212 m 0,57,58
 374 264 374 264 301.5 323.5 c 128,-1,59
 229 383 229 383 195.5 383 c 128,-1,60
 162 383 162 383 142.5 364 c 128,-1,61
 123 345 123 345 123 316 c 0,62,63
 123 266 123 266 189.5 206 c 128,-1,64
 256 146 256 146 305 146 c 0,65,66
 333 146 333 146 353.5 166 c 128,-1,67
 374 186 374 186 374 212 c 0,57,58
EndSplineSet
Validated: 1
EndChar

StartChar: brokenbar
Encoding: 166 166 154
Width: 200
Flags: W
HStem: -14 21G<67 133> 656 20G<67 133>
VStem: 67 66<-14 262 400 676>
LayerCount: 3
Fore
SplineSet
67 -14 m 1
 67 262 l 1
 133 262 l 1
 133 -14 l 1
 67 -14 l 1
67 400 m 1
 67 676 l 1
 133 676 l 1
 133 400 l 1
 67 400 l 1
EndSplineSet
Validated: 1
Layer: 2
SplineSet
67 -14 m 1,0,-1
 67 262 l 1,1,-1
 133 262 l 1,2,-1
 133 -14 l 1,3,-1
 67 -14 l 1,0,-1
67 400 m 1,4,-1
 67 676 l 1,5,-1
 133 676 l 1,6,-1
 133 400 l 1,7,-1
 67 400 l 1,4,-1
EndSplineSet
Validated: 1
EndChar

StartChar: logicalnot
Encoding: 172 172 155
Width: 564
Flags: W
HStem: 320 66<30 468>
VStem: 468 66<108 320>
LayerCount: 3
Fore
SplineSet
468 108 m 1
 468 320 l 1
 30 320 l 1
 30 386 l 1
 534 386 l 1
 534 108 l 1
 468 108 l 1
EndSplineSet
Validated: 1
Layer: 2
SplineSet
468 108 m 1,0,-1
 468 320 l 1,1,-1
 30 320 l 1,2,-1
 30 386 l 1,3,-1
 534 386 l 1,4,-1
 534 108 l 1,5,-1
 468 108 l 1,0,-1
EndSplineSet
Validated: 1
EndChar

StartChar: macron
Encoding: 175 175 157
Width: 333
Flags: W
HStem: 547 54<11 322>
VStem: 11 311<547 601>
LayerCount: 3
Fore
SplineSet
11 601 m 1
 322 601 l 1
 322 547 l 1
 11 547 l 1
 11 601 l 1
EndSplineSet
Validated: 1
Layer: 2
SplineSet
11 601 m 1,0,-1
 322 601 l 1,1,-1
 322 547 l 1,2,-1
 11 547 l 1,3,-1
 11 601 l 1,0,-1
EndSplineSet
Validated: 1
EndChar

StartChar: paragraph
Encoding: 182 182 158
Width: 483
Flags: W
HStem: -154 22<114 172.688 422.2 480> 273 22<160.359 202> 640 22<149.644 202 268 326 416.7 480>
VStem: 8 76<362.527 581.119> 202 66<-117.054 273 295 640> 326 66<-115.835 627.725>
LayerCount: 3
Fore
SplineSet
202 273 m 1
 86 277 8 324 8 477 c 0
 8 607 70 662 217 662 c 2
 480 662 l 1
 480 643 l 1
 403 636 392 625 392 553 c 2
 392 -42 l 2
 392 -113 404 -126 480 -132 c 1
 480 -154 l 1
 326 -154 l 1
 326 640 l 1
 268 640 l 1
 268 -154 l 1
 114 -154 l 1
 114 -132 l 1
 192 -127 202 -115 202 -31 c 2
 202 273 l 1
202 640 m 1
 128 634 84 611 84 481 c 0
 84 355 116 304 202 295 c 1
 202 640 l 1
EndSplineSet
Validated: 1
Layer: 2
SplineSet
202 273 m 1,0,1
 108 276 108 276 58 322 c 128,-1,2
 8 368 8 368 8 471.5 c 128,-1,3
 8 575 8 575 57.5 618.5 c 128,-1,4
 107 662 107 662 217 662 c 2,5,-1
 480 662 l 1,6,-1
 480 643 l 1,7,8
 422 638 422 638 407 622.5 c 128,-1,9
 392 607 392 607 392 553 c 2,10,-1
 392 -42 l 2,11,12
 392 -95 392 -95 407.5 -111.5 c 128,-1,13
 423 -128 423 -128 480 -132 c 1,14,-1
 480 -154 l 1,15,-1
 326 -154 l 1,16,-1
 326 640 l 1,17,-1
 268 640 l 1,18,-1
 268 -154 l 1,19,-1
 114 -154 l 1,20,-1
 114 -132 l 1,21,22
 172 -128 172 -128 187 -111 c 128,-1,23
 202 -94 202 -94 202 -31 c 2,24,-1
 202 273 l 1,0,1
202 640 m 1,25,26
 140 635 140 635 112 603.5 c 128,-1,27
 84 572 84 572 84 479 c 128,-1,28
 84 386 84 386 111 344 c 128,-1,29
 138 302 138 302 202 295 c 1,30,-1
 202 640 l 1,25,26
EndSplineSet
Validated: 1
EndChar

StartChar: degree
Encoding: 176 176 159
Width: 400
Flags: W
HStem: 390 34<146.115 254.139> 642 34<146.705 253.073>
VStem: 57 39<470.708 595.51> 304 39<471.436 594.244>
LayerCount: 3
Fore
SplineSet
200 676 m 0
 280 676 343 613 343 532 c 0
 343 452 279 390 198 390 c 0
 120 390 57 454 57 533 c 0
 57 613 120 676 200 676 c 0
200 642 m 0
 143 642 96 592 96 533 c 0
 96 474 143 424 199 424 c 0
 257 424 304 473 304 533 c 0
 304 592 256 642 200 642 c 0
EndSplineSet
Validated: 1
Layer: 2
SplineSet
200 676 m 128,-1,1
 260 676 260 676 301.5 634.5 c 128,-1,2
 343 593 343 593 343 532.5 c 128,-1,3
 343 472 343 472 301 431 c 128,-1,4
 259 390 259 390 199.5 390 c 128,-1,5
 140 390 140 390 98.5 432 c 128,-1,6
 57 474 57 474 57 533.5 c 128,-1,7
 57 593 57 593 98.5 634.5 c 128,-1,0
 140 676 140 676 200 676 c 128,-1,1
273 609.5 m 128,-1,9
 242 642 242 642 199.5 642 c 128,-1,10
 157 642 157 642 126.5 609.5 c 128,-1,11
 96 577 96 577 96 533 c 128,-1,12
 96 489 96 489 126.5 456.5 c 128,-1,13
 157 424 157 424 199.5 424 c 128,-1,14
 242 424 242 424 273 456 c 128,-1,15
 304 488 304 488 304 532.5 c 128,-1,8
 304 577 304 577 273 609.5 c 128,-1,9
EndSplineSet
Validated: 1
EndChar

StartChar: uniEE02
Encoding: 60930 60930 162
Width: 0
VWidth: 999
GlyphClass: 4
Flags: W
HStem: 203 13<-249.991 -226 -189.66 -112 -76.416 -64>
VStem: -229 38<216 347.894> -218 35<315 350> -114 35<216 347.734> -104 34<316 350>
AnchorPoint: "DoubleShaidur" -152 198.5 mark 0
AnchorPoint: "DoubleShaidur" 88 198 basemark 0
AnchorPoint: "Shaidur" -20 352 mark 0
LayerCount: 3
Fore
SplineSet
-183 348 m 0xa0
 -189 323 -191 296 -191 268 c 0
 -191 251 -191 233 -189 216 c 1
 -112 216 l 1
 -113 229 -114 244 -114 259 c 0xd0
 -114 292 -111 325 -104 350 c 0
 -102 357 -94 356 -87 356 c 0
 -79 356 -68 355 -70 348 c 0x88
 -76 319 -79 297 -79 265 c 0
 -79 247 -77 233 -76 216 c 1
 -41 216 l 2
 -36 216 -32 213 -32 210 c 0
 -32 209 -32 209 -33 208 c 0
 -44 198 -71 178 -87 152 c 0
 -99 134 -108 108 -109 100 c 0
 -109 95 -115 94 -121 94 c 0
 -123 94 -126 94 -129 94 c 0
 -137 94 -146 95 -143 102 c 0
 -141 108 -125 138 -110 158 c 1
 -94 177 -71 196 -64 203 c 1
 -243 203 l 2
 -249 203 -250 206 -250 210 c 0
 -250 214 -247 216 -241 216 c 2
 -226 216 l 1
 -227 231 -229 248 -229 266 c 0xd0
 -229 295 -224 328 -218 350 c 0
 -216 357 -208 357 -200 357 c 1
 -193 356 -182 355 -183 348 c 0xa0
EndSplineSet
Validated: 1
Layer: 2
SplineSet
-79 265 m 1,0,-1
 -76 216 l 1,1,-1
 -41 216 l 2,2,3
 -32 216 -32 216 -32 210 c 0,4,5
 -32 209 -32 209 -33 208 c 0,6,7
 -35 207 -35 207 -43.5 199 c 128,-1,8
 -52 191 -52 191 -62 182 c 0,9,10
 -73 174 -73 174 -89.5 148.5 c 128,-1,11
 -106 123 -106 123 -109 100 c 0,12,13
 -109 94 -109 94 -121 94 c 2,14,-1
 -129 94 l 2,15,16
 -137 94 -137 94 -141 95.5 c 128,-1,17
 -145 97 -145 97 -140.5 110.5 c 128,-1,18
 -136 124 -136 124 -119.5 145 c 128,-1,19
 -103 166 -103 166 -93.5 175.5 c 128,-1,20
 -84 185 -84 185 -75 193 c 128,-1,21
 -66 201 -66 201 -64 203 c 1,22,-1
 -243 203 l 2,23,24
 -250 203 -250 203 -250 209.5 c 128,-1,25
 -250 216 -250 216 -241 216 c 2,26,-1
 -226 216 l 1,27,28
 -229 261 -229 261 -229 286 c 0,29,30
 -229 312 -229 312 -218 350 c 0,31,32
 -216 357 -216 357 -210 357 c 128,-1,33
 -204 357 -204 357 -197.5 356.5 c 128,-1,34
 -191 356 -191 356 -186.5 354.5 c 128,-1,35
 -182 353 -182 353 -183 348 c 0,36,37
 -191 315 -191 315 -191 274 c 128,-1,38
 -191 233 -191 233 -189 216 c 1,39,-1
 -112 216 l 1,40,41
 -114 242 -114 242 -114 278 c 128,-1,42
 -114 314 -114 314 -104 350 c 0,43,44
 -102 356 -102 356 -90.5 356 c 128,-1,45
 -79 356 -79 356 -74 354.5 c 128,-1,46
 -69 353 -69 353 -70 348 c 0,47,48
 -79 304 -79 304 -79 265 c 1,0,-1
EndSplineSet
Validated: 1
Colour: ffc259
EndChar

StartChar: uniEE03
Encoding: 60931 60931 163
Width: 0
VWidth: 999
GlyphClass: 4
Flags: W
HStem: 302 52<-63.8514 -37.6301> 341 13<-185.993 -160 -125.914 -63>
VStem: -169 36<201.023 339.69> -64 27<306.22 340.717>
AnchorPoint: "DoubleShaidur" -112.5 200.5 mark 0
AnchorPoint: "DoubleShaidur" 107 201 basemark 0
AnchorPoint: "Shaidur" -7 353.5 mark 0
LayerCount: 3
Fore
SplineSet
-169 260 m 0x70
 -169 287 -165 323 -160 341 c 1
 -179 341 l 2
 -185 341 -186 344 -186 348 c 0
 -186 352 -184 353 -177 354 c 1x70
 -131 354 -84 354 -38 354 c 0
 -30 354 -29 350 -29 346 c 0
 -30 340 -36 334 -37 326 c 0
 -40 312 -33 302 -40 302 c 0xb0
 -47 302 -61 312 -64 321 c 0
 -65 327 -65 335 -63 341 c 1
 -84 341 -104 341 -125 341 c 1
 -130 313 -133 288 -133 258 c 0
 -133 240 -130 227 -130 207 c 0
 -130 201 -142 201 -148 201 c 0
 -154 201 -166 201 -166 207 c 0
 -166 223 -169 241 -169 260 c 0x70
EndSplineSet
Validated: 1
Layer: 2
SplineSet
-166 207 m 2,0,-1
 -169 260 l 1,1,2
 -169 309 -169 309 -160 341 c 1,3,-1
 -179 341 l 2,4,5
 -186 341 -186 341 -186 348 c 0,6,7
 -186 353 -186 353 -177 354 c 1,8,-1
 -38 354 l 2,9,10
 -29 354 -29 354 -29 346 c 0,11,12
 -29 343 -29 343 -34 334 c 0,13,14
 -38 325 -38 325 -37 313.5 c 128,-1,15
 -36 302 -36 302 -40.5 302 c 128,-1,16
 -45 302 -45 302 -55 309 c 128,-1,17
 -65 316 -65 316 -65 325 c 0,18,19
 -65 335 -65 335 -63 341 c 1,20,-1
 -125 341 l 1,21,22
 -133 296 -133 296 -133 258 c 1,23,-1
 -130 207 l 2,24,25
 -130 201 -130 201 -148 201 c 128,-1,26
 -166 201 -166 201 -166 207 c 2,0,-1
EndSplineSet
Validated: 1
Colour: ffc259
EndChar

StartChar: uniEE04
Encoding: 60932 60932 164
Width: 0
VWidth: 999
GlyphClass: 4
Flags: W
HStem: 270 14<-144 -70>
VStem: -181 37<201.04 270 284 342.247> -70 36<201.03 270 284 343.01>
AnchorPoint: "DoubleShaidur" -109 196.7 mark 0
AnchorPoint: "DoubleShaidur" 145 196 basemark 0
AnchorPoint: "Shaidur" -7 344.5 mark 0
LayerCount: 3
Fore
SplineSet
-25 344 m 0
 -25 323 -34 294 -34 264 c 0
 -34 243 -31 228 -31 207 c 0
 -31 201 -41 201 -48 201 c 0
 -56 201 -67 201 -67 207 c 0
 -69 223 -71 240 -71 258 c 0
 -71 262 -71 266 -70 270 c 1
 -144 270 l 1
 -144 267 -144 264 -144 261 c 0
 -144 241 -141 228 -141 207 c 0
 -141 201 -151 201 -158 201 c 0
 -166 201 -177 201 -177 207 c 0
 -179 223 -181 242 -181 261 c 0
 -181 291 -176 322 -170 345 c 0
 -169 350 -162 351 -157 351 c 0
 -155 351 -153 351 -152 351 c 0
 -147 351 -133 350 -135 343 c 0
 -138 327 -142 307 -144 284 c 1
 -70 284 l 1
 -67 306 -64 327 -60 345 c 0
 -59 350 -52 351 -47 351 c 0
 -45 351 -43 351 -42 351 c 0
 -37 351 -25 350 -25 344 c 0
EndSplineSet
Validated: 1
Layer: 2
SplineSet
-144 261 m 1,0,-1
 -141 207 l 2,1,2
 -141 201 -141 201 -159 201 c 128,-1,3
 -177 201 -177 201 -177 207 c 0,4,5
 -181 239 -181 239 -181 271 c 128,-1,6
 -181 303 -181 303 -170 345 c 0,7,8
 -169 351 -169 351 -157 351 c 2,9,-1
 -152 351 l 2,10,11
 -146 351 -146 351 -140 349.5 c 128,-1,12
 -134 348 -134 348 -135 343 c 0,13,14
 -142 305 -142 305 -144 284 c 1,15,-1
 -70 284 l 1,16,17
 -64 325 -64 325 -60 345 c 0,18,19
 -59 351 -59 351 -47 351 c 2,20,-1
 -42 351 l 2,21,22
 -25 351 -25 351 -25 344 c 0,23,24
 -25 335 -25 335 -29.5 307.5 c 128,-1,25
 -34 280 -34 280 -34 264 c 2,26,-1
 -31 207 l 2,27,28
 -31 201 -31 201 -49 201 c 128,-1,29
 -67 201 -67 201 -67 207 c 0,30,31
 -71 239 -71 239 -71 252.5 c 128,-1,32
 -71 266 -71 266 -70 270 c 1,33,-1
 -144 270 l 1,34,-1
 -144 261 l 1,0,-1
EndSplineSet
Validated: 1
Colour: ffc259
EndChar

StartChar: uniEE05
Encoding: 60933 60933 165
Width: 0
VWidth: 999
GlyphClass: 4
Flags: W
HStem: 256 57<-102.134 -50.1074>
VStem: -103 54<256.797 312.152>
AnchorPoint: "DoubleShaidur" -77.5 254.2 mark 0
AnchorPoint: "DoubleShaidur" 103 256 basemark 0
AnchorPoint: "Shaidur" -27 288.5 mark 0
LayerCount: 3
Fore
SplineSet
-77 256 m 0
 -93 256 -103 270 -103 285 c 0
 -103 301 -91 313 -74 313 c 0
 -60 313 -49 301 -49 286 c 0
 -49 270 -61 256 -77 256 c 0
EndSplineSet
Validated: 1
Layer: 2
SplineSet
-77 256 m 128,-1,1
 -89 256 -89 256 -96 264.5 c 128,-1,2
 -103 273 -103 273 -103 285 c 128,-1,3
 -103 297 -103 297 -95 305 c 128,-1,4
 -87 313 -87 313 -75.5 313 c 128,-1,5
 -64 313 -64 313 -56.5 305 c 128,-1,6
 -49 297 -49 297 -49 285.5 c 128,-1,7
 -49 274 -49 274 -57 265 c 128,-1,0
 -65 256 -65 256 -77 256 c 128,-1,1
EndSplineSet
Validated: 1
Colour: ffc259
EndChar

StartChar: uniEE06
Encoding: 60934 60934 166
Width: 0
VWidth: 999
GlyphClass: 4
Flags: W
HStem: 197 152
VStem: -212 39<254.814 321> -91 38<228.149 317>
AnchorPoint: "DoubleShaidur" -181 198 mark 0
AnchorPoint: "DoubleShaidur" 116 196 basemark 0
AnchorPoint: "Shaidur" 1 352.5 mark 0
LayerCount: 3
Fore
SplineSet
-53 341 m 0
 -53 337 -53 333 -53 328 c 0
 -53 288 -31 234 -31 203 c 0
 -31 198 -42 197 -50 197 c 0
 -58 197 -66 198 -67 204 c 0
 -73 224 -77 235 -81 256 c 1
 -87 281 -91 297 -91 317 c 1
 -102 307 -118 284 -134 261 c 0
 -149 240 -167 210 -171 205 c 1
 -173 200 -186 198 -187 204 c 0
 -193 224 -197 235 -201 256 c 1
 -207 281 -212 302 -212 321 c 1
 -224 309 -240 285 -254 266 c 0
 -259 260 -287 210 -291 205 c 1
 -293 198 -306 198 -306 206 c 0
 -306 222 -266 281 -258 292 c 0
 -240 316 -219 337 -206 345 c 0
 -202 348 -194 349 -189 349 c 0
 -183 349 -172 348 -173 341 c 0
 -173 339 -173 336 -173 334 c 0
 -173 312 -168 271 -162 254 c 1
 -140 292 -112 329 -86 345 c 0
 -82 348 -74 349 -69 349 c 0
 -63 349 -52 348 -53 341 c 0
EndSplineSet
Validated: 1
Layer: 2
SplineSet
-53 341 m 1,0,1
 -53 328 l 2,2,3
 -53 307 -53 307 -42 262 c 128,-1,4
 -31 217 -31 217 -31 203 c 0,5,6
 -31 197 -31 197 -48.5 197 c 128,-1,7
 -66 197 -66 197 -67 204 c 1,8,9
 -91 285 -91 285 -91 317 c 1,10,11
 -111 299 -111 299 -140 253 c 128,-1,12
 -169 207 -169 207 -171 204 c 128,-1,13
 -173 201 -173 201 -179.5 200.5 c 128,-1,14
 -186 200 -186 200 -187 204 c 0,15,16
 -212 288 -212 288 -212 321 c 1,17,18
 -218 315 -218 315 -237.5 289 c 128,-1,19
 -257 263 -257 263 -273 235 c 128,-1,20
 -289 207 -289 207 -291 205 c 1,21,22
 -292 200 -292 200 -299 200 c 128,-1,23
 -306 200 -306 200 -306 206 c 0,24,25
 -306 226 -306 226 -267.5 278.5 c 128,-1,26
 -229 331 -229 331 -206 345 c 0,27,28
 -201 349 -201 349 -186.5 349 c 128,-1,29
 -172 349 -172 349 -173 341 c 1,30,-1
 -173 334 l 2,31,32
 -173 285 -173 285 -162 254 c 1,33,34
 -122 323 -122 323 -86 345 c 0,35,36
 -81 349 -81 349 -66.5 349 c 128,-1,37
 -52 349 -52 349 -53 341 c 1,0,1
EndSplineSet
Validated: 1
Colour: ffc259
EndChar

StartChar: uniEE07
Encoding: 60935 60935 167
Width: 0
VWidth: 999
GlyphClass: 4
Flags: W
HStem: 341 13<-219.946 -194 -160.117 -84 -50.1174 -21.0469>
VStem: -204 38<201.03 339.827> -94 38<201.03 339.827>
AnchorPoint: "Shaidur" 0.5 354.623 mark 0
AnchorPoint: "DoubleShaidur" -126.5 198.9 mark 0
AnchorPoint: "DoubleShaidur" 122 200 basemark 0
LayerCount: 3
Fore
SplineSet
-94 261 m 0
 -94 289 -90 320 -84 341 c 1
 -159 341 l 1
 -164 316 -166 290 -166 263 c 0
 -166 244 -164 225 -164 207 c 0
 -164 201 -174 201 -181 201 c 0
 -189 201 -200 201 -200 207 c 0
 -202 223 -204 242 -204 261 c 0
 -204 289 -200 320 -194 341 c 1
 -213 341 l 2
 -218 341 -220 343 -220 346 c 0
 -220 351 -219 354 -211 354 c 0
 -196 354 -176 354 -154 354 c 0
 -110 354 -59 354 -30 354 c 0
 -22 354 -21 351 -21 346 c 1
 -22 342 -23 341 -30 341 c 2
 -49 341 l 1
 -54 316 -56 290 -56 263 c 0
 -56 244 -55 225 -54 207 c 0
 -54 201 -64 201 -71 201 c 0
 -79 201 -90 201 -90 207 c 0
 -92 223 -94 242 -94 261 c 0
EndSplineSet
Validated: 1
Layer: 2
SplineSet
-166 263 m 1,0,-1
 -164 207 l 2,1,2
 -164 201 -164 201 -182 201 c 128,-1,3
 -200 201 -200 201 -200 207 c 0,4,5
 -204 239 -204 239 -204 272.5 c 128,-1,6
 -204 306 -204 306 -194 341 c 1,7,-1
 -213 341 l 2,8,9
 -220 341 -220 341 -220 346 c 0,10,11
 -220 354 -220 354 -211 354 c 2,12,-1
 -30 354 l 2,13,14
 -21 354 -21 354 -21 346 c 1,15,16
 -22 341 -22 341 -30 341 c 2,17,-1
 -49 341 l 1,18,19
 -56 306 -56 306 -56 274.5 c 128,-1,20
 -56 243 -56 243 -54 207 c 0,21,22
 -54 201 -54 201 -72 201 c 128,-1,23
 -90 201 -90 201 -90 207 c 0,24,25
 -94 239 -94 239 -94 272.5 c 128,-1,26
 -94 306 -94 306 -84 341 c 1,27,-1
 -159 341 l 1,28,29
 -166 306 -166 306 -166 263 c 1,0,-1
EndSplineSet
Validated: 1
Colour: ffc259
EndChar

StartChar: uniEE08
Encoding: 60936 60936 168
Width: 0
VWidth: 999
GlyphClass: 4
Flags: W
HStem: 203 13<-227.991 -199 -162.373 -89 -52.4191 -29.076> 344 13<-205 -82 -48.1174 -15.0469>
VStem: -202 38<216 342.941> -92 38<216 342.941>
AnchorPoint: "DoubleShaidur" -124 201 mark 0
AnchorPoint: "DoubleShaidur" 123 200.3 basemark 0
AnchorPoint: "Shaidur" 0 356.5 mark 0
LayerCount: 3
Fore
SplineSet
-92 265 m 0
 -92 293 -88 323 -82 344 c 1
 -157 344 l 1
 -162 320 -164 294 -164 267 c 0
 -164 250 -163 233 -162 216 c 1
 -89 216 l 1
 -90 230 -92 248 -92 265 c 0
-202 265 m 0
 -202 293 -198 323 -192 344 c 1
 -207 344 l 2
 -213 344 -215 347 -214 351 c 0
 -214 355 -212 357 -205 357 c 0
 -191 357 -171 357 -149 357 c 0
 -104 357 -53 357 -24 357 c 0
 -16 357 -15 354 -15 349 c 1
 -16 345 -17 344 -24 344 c 2
 -47 344 l 1
 -52 320 -54 294 -54 267 c 0
 -54 250 -53 232 -52 215 c 1
 -37 215 l 2
 -30 215 -29 212 -29 208 c 0
 -29 204 -30 203 -38 203 c 2
 -221 203 l 2
 -227 203 -228 206 -228 210 c 0
 -228 214 -225 215 -219 215 c 0
 -213 216 -206 216 -199 216 c 1
 -200 231 -202 248 -202 265 c 0
EndSplineSet
Validated: 1
Layer: 2
SplineSet
-89 216 m 1,0,1
 -92 258 -92 258 -92 283.5 c 128,-1,2
 -92 309 -92 309 -82 344 c 1,3,-1
 -157 344 l 1,4,5
 -164 310 -164 310 -164 280 c 128,-1,6
 -164 250 -164 250 -162 216 c 1,7,-1
 -89 216 l 1,0,1
-199 216 m 1,8,9
 -202 261 -202 261 -202 285 c 128,-1,10
 -202 309 -202 309 -192 344 c 1,11,-1
 -207 344 l 2,12,13
 -216 344 -216 344 -214 351 c 1,14,15
 -214 357 -214 357 -205 357 c 2,16,-1
 -24 357 l 2,17,18
 -15 357 -15 357 -15 349 c 1,19,20
 -16 344 -16 344 -24 344 c 2,21,-1
 -47 344 l 1,22,23
 -54 310 -54 310 -54 279.5 c 128,-1,24
 -54 249 -54 249 -52 215 c 1,25,-1
 -37 215 l 2,26,27
 -29 215 -29 215 -29 208 c 0,28,29
 -29 203 -29 203 -38 203 c 2,30,-1
 -221 203 l 2,31,32
 -228 203 -228 203 -228 210 c 0,33,34
 -228 215 -228 215 -220.5 215.5 c 128,-1,35
 -213 216 -213 216 -199 216 c 1,8,9
EndSplineSet
Validated: 1
Colour: ffc259
EndChar

StartChar: uniEE09
Encoding: 60937 60937 169
Width: 0
VWidth: 999
GlyphClass: 4
Flags: W
HStem: 372 48<-161.426 -119.574>
VStem: -214 39<254.814 321> -162 43<372.091 419.909> -93 38<228.149 317>
AnchorPoint: "DoubleShaidur" -182 195 mark 0
AnchorPoint: "DoubleShaidur" 209 196 basemark 0
AnchorPoint: "Shaidur" 0 349.5 mark 0
LayerCount: 3
Fore
SplineSet
-142 372 m 0
 -155 372 -162 384 -162 393 c 0
 -162 406 -152 420 -139 420 c 0
 -126 420 -119 408 -119 399 c 0
 -119 386 -129 372 -142 372 c 0
-55 341 m 0
 -55 337 -55 333 -55 328 c 0
 -55 288 -33 234 -33 203 c 0
 -33 198 -44 197 -52 197 c 0
 -60 197 -68 198 -69 204 c 0
 -75 224 -79 235 -83 256 c 1
 -89 281 -93 297 -93 317 c 1
 -104 307 -120 284 -136 261 c 0
 -151 240 -169 210 -173 205 c 1
 -175 200 -188 198 -189 204 c 0
 -195 224 -199 235 -203 256 c 1
 -209 281 -214 302 -214 321 c 1
 -226 309 -242 285 -256 266 c 0
 -261 260 -289 210 -293 205 c 1
 -295 198 -308 198 -308 206 c 0
 -308 222 -268 281 -260 292 c 0
 -242 316 -221 337 -208 345 c 0
 -204 348 -196 349 -191 349 c 0
 -185 349 -174 348 -175 341 c 0
 -175 339 -175 336 -175 334 c 0
 -175 312 -170 271 -164 254 c 1
 -142 292 -114 329 -88 345 c 0
 -84 348 -76 349 -71 349 c 0
 -65 349 -54 348 -55 341 c 0
EndSplineSet
Validated: 1
Layer: 2
SplineSet
-142 372 m 128,-1,1
 -151 372 -151 372 -156.5 378.5 c 128,-1,2
 -162 385 -162 385 -162 394 c 128,-1,3
 -162 403 -162 403 -155 411.5 c 128,-1,4
 -148 420 -148 420 -139 420 c 128,-1,5
 -130 420 -130 420 -124.5 413.5 c 128,-1,6
 -119 407 -119 407 -119 398 c 128,-1,7
 -119 389 -119 389 -126 380.5 c 128,-1,0
 -133 372 -133 372 -142 372 c 128,-1,1
-55 341 m 1,8,-1
 -55 328 l 2,9,10
 -55 307 -55 307 -44 262 c 128,-1,11
 -33 217 -33 217 -33 203 c 0,12,13
 -33 197 -33 197 -50.5 197 c 128,-1,14
 -68 197 -68 197 -69 204 c 1,15,16
 -93 285 -93 285 -93 317 c 1,17,18
 -113 299 -113 299 -142 253 c 128,-1,19
 -171 207 -171 207 -173 204 c 128,-1,20
 -175 201 -175 201 -181.5 200.5 c 128,-1,21
 -188 200 -188 200 -189 204 c 0,22,23
 -214 288 -214 288 -214 321 c 1,24,25
 -220 315 -220 315 -239.5 289 c 128,-1,26
 -259 263 -259 263 -275 235 c 128,-1,27
 -291 207 -291 207 -293 205 c 1,28,29
 -294 200 -294 200 -301 200 c 128,-1,30
 -308 200 -308 200 -308 206 c 0,31,32
 -308 226 -308 226 -269.5 278.5 c 128,-1,33
 -231 331 -231 331 -208 345 c 0,34,35
 -203 349 -203 349 -188.5 349 c 128,-1,36
 -174 349 -174 349 -175 341 c 1,37,-1
 -175 334 l 2,38,39
 -175 285 -175 285 -164 254 c 1,40,41
 -124 323 -124 323 -88 345 c 0,42,43
 -83 349 -83 349 -68.5 349 c 128,-1,44
 -54 349 -54 349 -55 341 c 1,8,-1
EndSplineSet
Validated: 1
Colour: ffc259
EndChar

StartChar: uniEE0A
Encoding: 60938 60938 170
Width: 0
VWidth: 999
GlyphClass: 4
Flags: W
HStem: 341 13<-228.98 -203 -169.135 -93 -59.1348 -30.0015> 387 48<-147.429 -105.369>
VStem: -212 36<201.05 339.737> -148 43<387.084 434.99> -102 36<201.05 339.737>
AnchorPoint: "DoubleShaidur" -138 197 mark 0
AnchorPoint: "DoubleShaidur" 122 196 basemark 0
AnchorPoint: "Shaidur" -7 347.5 mark 0
LayerCount: 3
Fore
SplineSet
-212 260 m 0
 -212 289 -208 319 -203 341 c 1
 -221 341 l 2
 -227 341 -229 344 -229 348 c 0
 -229 352 -226 354 -220 354 c 0
 -205 354 -185 354 -163 354 c 0
 -119 354 -67 354 -38 354 c 0
 -32 354 -30 352 -30 348 c 0
 -30 343 -30 341 -39 341 c 2
 -58 341 l 1
 -63 314 -66 290 -66 259 c 0
 -66 241 -64 227 -63 207 c 0
 -62 201 -72 201 -79 201 c 0
 -87 201 -98 201 -99 207 c 0
 -100 223 -102 241 -102 260 c 0
 -102 289 -98 319 -93 341 c 1
 -168 341 l 1
 -173 314 -176 290 -176 259 c 0
 -176 241 -174 227 -173 207 c 0
 -172 201 -182 201 -189 201 c 0
 -197 201 -208 201 -209 207 c 0
 -210 223 -212 241 -212 260 c 0
-128 387 m 0
 -140 387 -148 398 -148 408 c 0
 -148 421 -138 435 -126 435 c 0
 -113 435 -105 423 -105 413 c 0
 -105 400 -115 387 -128 387 c 0
EndSplineSet
Validated: 1
Layer: 2
SplineSet
-176 259 m 1,0,-1
 -173 207 l 2,1,2
 -172 203 -172 203 -176.5 202 c 128,-1,3
 -181 201 -181 201 -194.5 201 c 128,-1,4
 -208 201 -208 201 -209 207 c 0,5,6
 -212 255 -212 255 -212 278 c 128,-1,7
 -212 301 -212 301 -203 341 c 1,8,-1
 -221 341 l 2,9,10
 -229 341 -229 341 -229 347.5 c 128,-1,11
 -229 354 -229 354 -220 354 c 2,12,-1
 -38 354 l 2,13,14
 -30 354 -30 354 -30 347.5 c 128,-1,15
 -30 341 -30 341 -39 341 c 2,16,-1
 -58 341 l 1,17,18
 -66 298 -66 298 -66 259 c 1,19,-1
 -63 207 l 2,20,21
 -62 203 -62 203 -66.5 202 c 128,-1,22
 -71 201 -71 201 -84.5 201 c 128,-1,23
 -98 201 -98 201 -99 207 c 0,24,25
 -102 255 -102 255 -102 278 c 128,-1,26
 -102 301 -102 301 -93 341 c 1,27,-1
 -168 341 l 1,28,29
 -176 298 -176 298 -176 259 c 1,0,-1
-128 387 m 128,-1,31
 -137 387 -137 387 -142.5 393.5 c 128,-1,32
 -148 400 -148 400 -148 409 c 128,-1,33
 -148 418 -148 418 -141.5 426.5 c 128,-1,34
 -135 435 -135 435 -126 435 c 128,-1,35
 -117 435 -117 435 -111 428 c 128,-1,36
 -105 421 -105 421 -105 412 c 128,-1,37
 -105 403 -105 403 -112 395 c 128,-1,30
 -119 387 -119 387 -128 387 c 128,-1,31
EndSplineSet
Validated: 1
Colour: ffc259
EndChar

StartChar: uniEE0B
Encoding: 60939 60939 171
Width: 0
GlyphClass: 4
Flags: W
HStem: 203 13<-256.98 -227 -191.419 -117 -81.4191 -57.0939> 344 13<-242.98 -221 -187.117 -111 -77.1174 -44.0015> 390 48<-165.429 -123.369>
VStem: -229 36<216 342.848> -166 43<390.084 437.99> -119 36<216.634 342.848>
AnchorPoint: "DoubleShaidur" -155 200 mark 0
AnchorPoint: "DoubleShaidur" 140 201.4 basemark 0
AnchorPoint: "Shaidur" -7 352.5 mark 0
LayerCount: 3
Fore
SplineSet
-117 216 m 1
 -118 229 -119 244 -119 260 c 0
 -119 290 -116 321 -111 344 c 1
 -186 344 l 1
 -191 318 -193 289 -193 260 c 0
 -193 245 -192 231 -191 216 c 1
 -117 216 l 1
-227 216 m 1
 -228 230 -229 245 -229 261 c 0
 -229 290 -226 321 -221 344 c 1
 -235 344 l 2
 -241 344 -243 347 -243 351 c 0
 -243 355 -240 357 -234 357 c 0
 -219 357 -199 357 -177 357 c 0
 -133 357 -81 357 -52 357 c 0
 -46 357 -44 355 -44 351 c 0
 -44 346 -44 344 -53 344 c 2
 -76 344 l 1
 -81 318 -83 289 -83 260 c 0
 -83 245 -82 230 -81 216 c 1
 -66 215 l 2
 -58 215 -57 212 -57 208 c 0
 -58 204 -59 203 -66 203 c 2
 -249 203 l 2
 -255 203 -257 206 -257 210 c 0
 -257 214 -254 215 -247 215 c 1
 -241 216 -235 216 -227 216 c 1
-146 390 m 0
 -158 390 -166 401 -166 411 c 0
 -166 424 -156 438 -144 438 c 0
 -131 438 -123 426 -123 416 c 0
 -123 403 -133 390 -146 390 c 0
EndSplineSet
Validated: 1
Layer: 2
SplineSet
-117 216 m 1,0,1
 -119 242 -119 242 -119 274.5 c 128,-1,2
 -119 307 -119 307 -111 344 c 1,3,-1
 -186 344 l 1,4,5
 -193 308 -193 308 -193 277 c 128,-1,6
 -193 246 -193 246 -191 216 c 1,7,-1
 -117 216 l 1,0,1
-227 216 m 1,8,9
 -229 244 -229 244 -229 275.5 c 128,-1,10
 -229 307 -229 307 -221 344 c 1,11,-1
 -235 344 l 2,12,13
 -243 344 -243 344 -243 350.5 c 128,-1,14
 -243 357 -243 357 -234 357 c 2,15,-1
 -52 357 l 2,16,17
 -44 357 -44 357 -44 350.5 c 128,-1,18
 -44 344 -44 344 -53 344 c 2,19,-1
 -76 344 l 1,20,21
 -83 308 -83 308 -83 276 c 128,-1,22
 -83 244 -83 244 -81 216 c 1,23,-1
 -66 215 l 2,24,25
 -57 215 -57 215 -57 208 c 1,26,27
 -58 203 -58 203 -66 203 c 2,28,-1
 -249 203 l 2,29,30
 -257 203 -257 203 -257 210 c 0,31,32
 -257 215 -257 215 -249 215.5 c 128,-1,33
 -241 216 -241 216 -227 216 c 1,8,9
-129.5 398 m 128,-1,35
 -136 390 -136 390 -145.5 390 c 128,-1,36
 -155 390 -155 390 -160.5 396.5 c 128,-1,37
 -166 403 -166 403 -166 412 c 128,-1,38
 -166 421 -166 421 -159.5 429.5 c 128,-1,39
 -153 438 -153 438 -144 438 c 128,-1,40
 -135 438 -135 438 -129 431 c 128,-1,41
 -123 424 -123 424 -123 415 c 128,-1,34
 -123 406 -123 406 -129.5 398 c 128,-1,35
EndSplineSet
Validated: 1
Colour: ffc259
EndChar

StartChar: uniEE50
Encoding: 61008 61008 175
Width: 1
GlyphClass: 4
Flags: W
HStem: 389 196
VStem: -421 96
AnchorPoint: "Tonal" -372 498 mark 0
LayerCount: 3
Fore
SplineSet
-409 515 m 5
 -399 544 -370 574 -341 581 c 6
 -325 585 l 5
 -335 461 l 5
 -370 455 -405 421 -421 389 c 5
 -409 515 l 5
EndSplineSet
Validated: 3073
Layer: 2
SplineSet
-409 515 m 1,0,1
 -400 542 -400 542 -379 559.5 c 128,-1,2
 -358 577 -358 577 -341 581 c 2,3,-1
 -325 585 l 1,4,-1
 -335 461 l 1,5,6
 -341 460 -341 460 -351 457 c 128,-1,7
 -361 454 -361 454 -384 435.5 c 128,-1,8
 -407 417 -407 417 -421 389 c 1,9,-1
 -409 515 l 1,0,1
EndSplineSet
Substitution2: "Priznakify-1" uniEC01
Colour: ffc259
EndChar

StartChar: uniEE51
Encoding: 61009 61009 176
Width: 0
GlyphClass: 4
Flags: W
HStem: 340 315 459 21G<-352.11 -346>
VStem: -484 226
AnchorPoint: "Tonal" -372 498 mark 0
LayerCount: 3
Fore
SplineSet
-472 467 m 1xa0
 -462 496 -433 526 -404 533 c 1
 -388 536 l 1
 -398 412 l 1
 -433 406 -468 372 -484 340 c 1
 -472 467 l 1xa0
-342 586 m 1
 -332 615 -303 646 -274 651 c 1
 -258 655 l 1xa0
 -268 531 l 1
 -303 525 -338 491 -354 459 c 1x60
 -342 586 l 1
EndSplineSet
Validated: 3073
Layer: 2
SplineSet
-472 467 m 1,0,1
 -463 494 -463 494 -442 511.5 c 128,-1,2
 -421 529 -421 529 -404 533 c 2,3,-1
 -388 536 l 1,4,-1
 -398 412 l 1,5,6
 -404 411 -404 411 -414 408 c 128,-1,7
 -424 405 -424 405 -447 386.5 c 128,-1,8
 -470 368 -470 368 -484 340 c 1,9,-1
 -472 467 l 1,0,1
-342 586 m 1,10,11
 -333 613 -333 613 -312 630.5 c 128,-1,12
 -291 648 -291 648 -274 651 c 1,13,-1
 -258 655 l 1,14,-1
 -268 531 l 1,15,16
 -274 530 -274 530 -284 527 c 128,-1,17
 -294 524 -294 524 -317 505.5 c 128,-1,18
 -340 487 -340 487 -354 459 c 1,19,-1
 -342 586 l 1,10,11
EndSplineSet
Substitution2: "Priznakify-1" uniEB62
Colour: ffc259
EndChar

StartChar: uniEE52
Encoding: 61010 61010 177
Width: 1
GlyphClass: 4
Flags: W
AnchorPoint: "Tonal" -379 504 mark 0
LayerCount: 3
Fore
SplineSet
-555 398 m 1
 -545 427 -516 457 -487 464 c 2
 -471 468 l 1
 -481 344 l 1
 -516 338 -551 304 -567 272 c 1
 -555 398 l 1
-294 636 m 1
 -284 665 -255 695 -227 702 c 2
 -210 706 l 1
 -221 582 l 1
 -256 576 -290 542 -306 510 c 1
 -294 636 l 1
-425 517 m 1
 -415 546 -386 576 -357 583 c 2
 -341 587 l 1
 -351 463 l 1
 -386 457 -421 423 -437 391 c 1
 -425 517 l 1
EndSplineSet
Validated: 3073
Layer: 2
SplineSet
-555 398 m 1,0,1
 -546 425 -546 425 -525 442.5 c 128,-1,2
 -504 460 -504 460 -487 464 c 2,3,-1
 -471 468 l 1,4,-1
 -481 344 l 1,5,6
 -487 343 -487 343 -497 340 c 128,-1,7
 -507 337 -507 337 -530 318.5 c 128,-1,8
 -553 300 -553 300 -567 272 c 1,9,-1
 -555 398 l 1,0,1
-294 636 m 1,10,11
 -285 663 -285 663 -264 680.5 c 128,-1,12
 -243 698 -243 698 -227 702 c 2,13,-1
 -210 706 l 1,14,-1
 -221 582 l 1,15,16
 -227 581 -227 581 -237 578 c 128,-1,17
 -247 575 -247 575 -269.5 556.5 c 128,-1,18
 -292 538 -292 538 -306 510 c 1,19,-1
 -294 636 l 1,10,11
-425 517 m 1,20,21
 -416 544 -416 544 -395 561.5 c 128,-1,22
 -374 579 -374 579 -357 583 c 2,23,-1
 -341 587 l 1,24,-1
 -351 463 l 1,25,26
 -357 462 -357 462 -367 459 c 128,-1,27
 -377 456 -377 456 -400 437.5 c 128,-1,28
 -423 419 -423 419 -437 391 c 1,29,-1
 -425 517 l 1,20,21
EndSplineSet
Substitution2: "Priznakify-1" uniEB64
Colour: ffc259
EndChar

StartChar: uniEE54
Encoding: 61012 61012 178
Width: 0
VWidth: 999
GlyphClass: 4
Flags: W
HStem: 175 247
VStem: 38 46
AnchorPoint: "Otsechka" 55 173 mark 0
LayerCount: 3
Fore
SplineSet
84 422 m 5
 60 181 l 5
 38 175 l 5
 62 414 l 5
 84 422 l 5
EndSplineSet
Validated: 3073
Layer: 2
SplineSet
84 422 m 1,0,-1
 60 181 l 1,1,-1
 38 175 l 1,2,-1
 62 414 l 1,3,-1
 84 422 l 1,0,-1
EndSplineSet
Colour: ffc259
EndChar

